<?xml version="1.0" encoding="utf-8"?>
<!-- Generator: Adobe Illustrator 23.0.1, SVG Export Plug-In . SVG Version: 6.00 Build 0)  -->
<svg version="1.1" id="Layer_1" xmlns="http://www.w3.org/2000/svg" xmlns:xlink="http://www.w3.org/1999/xlink" x="0px" y="0px"
	 viewBox="0 0 860.2 860.2" style="enable-background:new 0 0 860.2 860.2;" xml:space="preserve">
<path d="M430.1,860.2c-58.1,0-114.4-11.4-167.4-33.8c-51.2-21.7-97.2-52.7-136.7-92.2s-70.5-85.5-92.2-136.7
	C11.4,544.5,0,488.1,0,430.1C0,372,11.4,315.7,33.8,262.7C55.5,211.5,86.5,165.5,126,126s85.5-70.5,136.7-92.2
	C315.7,11.4,372.1,0,430.1,0c58.1,0,114.4,11.4,167.4,33.8c51.2,21.7,97.2,52.7,136.7,92.2s70.5,85.5,92.2,136.7
	c22.4,53,33.8,109.4,33.8,167.4c0,58.1-11.4,114.4-33.8,167.4c-21.7,51.2-52.7,97.2-92.2,136.7s-85.5,70.5-136.7,92.2
	C544.5,848.8,488.2,860.2,430.1,860.2z M430.1,9.3C198.1,9.3,9.4,198,9.4,430s188.7,420.7,420.7,420.7S850.8,662,850.8,430
	C850.8,198.1,662.1,9.3,430.1,9.3z"/>
<path d="M430.1,737.7c-41.5,0-81.8-8.1-119.8-24.2c-36.6-15.5-69.6-37.7-97.8-65.9c-28.3-28.3-50.4-61.2-65.9-97.8
	c-16-37.9-24.2-78.2-24.2-119.8c0-41.5,8.1-81.8,24.2-119.8c15.5-36.6,37.7-69.6,65.9-97.8c28.3-28.3,61.2-50.4,97.8-65.9
	c37.9-16,78.2-24.2,119.8-24.2c41.5,0,81.8,8.1,119.8,24.2c36.6,15.5,69.6,37.7,97.8,65.9c28.3,28.3,50.4,61.2,65.9,97.8
	c16,37.9,24.2,78.2,24.2,119.8c0,41.5-8.1,81.8-24.2,119.8c-15.5,36.6-37.7,69.6-65.9,97.8c-28.3,28.3-61.2,50.4-97.8,65.9
	C511.9,729.6,471.6,737.7,430.1,737.7z M430.1,131.8c-164.4,0-298.2,133.8-298.2,298.2s133.8,298.2,298.2,298.2
	S728.3,594.4,728.3,430C728.3,265.6,594.5,131.8,430.1,131.8z"/>
<path d="M160.8,620.5l-18.5,12.8l-0.8-1.3c4.7-5.2,7.5-10.1,8.1-14.9c0.6-4.8-0.4-9.4-3.1-13.9c-2.3-3.8-5.3-6.7-9-8.6
	c-3.8-1.9-8.2-2.5-13.5-1.7c-5.3,0.8-11,3-17.2,6.7c-5.2,3.1-9.1,6.6-11.9,10.5c-2.8,3.9-4.2,8.1-4.3,12.6
	c-0.1,4.5,1.2,8.9,3.7,13.2c2.2,3.7,5,6.4,8.2,8.4c3.3,1.9,8.3,3.1,14.9,3.6l0,1.8c-6.7,0.1-12.5-0.9-17.1-3.3
	c-4.6-2.4-8.5-6.2-11.6-11.5c-5.6-9.4-6.5-18.8-2.6-28.1c2.9-7,7.9-12.5,14.9-16.7c5.7-3.3,11.7-5.3,17.9-5.5
	c6.2-0.3,12.1,1,17.3,3.9s9.5,7,12.6,12.3c2.5,4.1,3.9,8.8,4.3,14c0.1,1.5,0.3,2.5,0.5,3.1c0.4,0.7,1.1,1.3,2,1.5
	c1.2,0.3,2.6,0.2,4-0.4L160.8,620.5z"/>
<path d="M157.8,687l-17.1-19.1l-10.7,3.6c-2.7,0.9-4.5,1.7-5.4,2.6c-0.8,0.6-1.1,1.6-1,2.8c0.1,1.2,1,3.1,3,5.7l-1.3,1.2l-14-15.5
	l1.3-1.2c2.2,1.7,3.9,2.6,5,2.7c2.3,0.2,5.9-0.5,10.8-2.2l56.1-19l1.1,1.3l-25.7,54c-2.1,4.3-3,7.5-3,9.5c0,2,0.9,4.1,2.6,6.2
	l-1.3,1.2l-17.5-19.4l1.3-1.2c1.9,1.9,3.4,2.9,4.6,3.1c1.2,0.2,2.2-0.1,3-0.8c1.1-0.9,2.3-2.9,3.7-6L157.8,687z M159.6,683.5
	l12.4-26.3l-27.7,9.2L159.6,683.5z"/>
<path d="M219.4,767.5l-14.2-10.6l0.7-38.2c-1.3-0.9-2.5-1.7-3.3-2.4c-0.4-0.2-0.7-0.6-1-0.9c-0.4-0.3-0.7-0.7-1.1-1l-11.5,15.4
	c-2.5,3.3-3.7,5.7-3.6,7c0.1,1.9,1.2,3.6,3.2,5.1l2.1,1.6l-1.1,1.4l-22.7-17l1.1-1.4l2,1.5c2.3,1.7,4.4,2.2,6.4,1.4
	c1.1-0.4,2.9-2.1,5.1-5.1l25.7-34.2c2.5-3.3,3.7-5.7,3.6-7c-0.1-1.9-1.2-3.6-3.3-5.1l-2-1.5l1.1-1.4l19.3,14.4
	c5.7,4.2,9.5,7.7,11.5,10.6c2.1,2.8,3.2,6.1,3.4,9.6c0.2,3.6-0.9,7-3.1,10c-2.5,3.2-5.7,5.3-9.5,6.1c-3.9,0.9-8.4,0-13.7-2.3
	L214,747c-0.1,5.4,0.3,9.3,1.2,11.7c0.9,2.5,2.7,4.9,5.4,7.5L219.4,767.5z M202.2,712.1c0.5,0.3,0.9,0.7,1.3,1
	c0.4,0.3,0.7,0.6,0.8,0.7c5,3.8,9.7,5.5,13.9,5.3c4.2-0.3,7.6-2.1,10.1-5.5c2.5-3.3,3.5-6.7,3-10.4c-0.5-3.7-2.5-6.7-5.8-9.3
	c-1.5-1.1-3.7-2.4-6.7-3.9L202.2,712.1z"/>
<path d="M257.5,752.2l-8.7,17.1c-1.9,3.8-2.6,6.2-2.3,7.5c0.4,1.8,1.8,3.4,4,4.5l2.3,1.2l-0.8,1.6l-25.2-12.9l0.8-1.6l2.2,1.2
	c2.5,1.3,4.7,1.4,6.6,0.3c1.1-0.6,2.4-2.6,4.1-6l19.5-38.1c1.9-3.8,2.7-6.2,2.3-7.5c-0.4-1.8-1.8-3.4-4-4.5l-2.2-1.2l0.8-1.6
	l21.6,11c5.3,2.7,9.2,5.4,11.7,8c2.5,2.6,4.1,5.8,4.8,9.4c0.8,3.7,0.2,7.2-1.6,10.8c-2.5,4.8-6.1,7.9-10.8,9.3
	c-4.7,1.4-10,0.6-15.8-2.4c-1.4-0.7-2.9-1.6-4.5-2.7C260.8,754.8,259.2,753.6,257.5,752.2z M258.8,749.7c1.4,1.1,2.6,2,3.8,2.7
	c1.1,0.8,2.1,1.4,3,1.8c3,1.6,6.2,1.7,9.6,0.5c3.4-1.2,6-3.7,7.9-7.4c1.3-2.5,2-5.1,2.1-8c0.1-2.7-0.6-5.2-1.9-7.2
	c-1.3-2-3.3-3.7-5.7-5c-1.4-0.7-3.5-1.5-6.1-2.1L258.8,749.7z"/>
<path d="M320.1,745.6l-8.1,24.9l13.9,4.5c3.6,1.2,6.2,1.4,7.8,0.7c2.1-0.9,3.8-3.1,5.2-6.7l1.8,0.5l-7.1,21.9l-1.8-0.5
	c0.6-3.2,0.7-5.4,0.6-6.4c-0.2-1.2-0.8-2.4-1.9-3.5c-1.1-1-2.9-2-5.6-2.9l-13.9-4.5l-6.7,20.8c-0.9,2.8-1.3,4.5-1.2,5.2
	c0,0.7,0.3,1.3,0.8,1.9c0.6,0.5,1.6,1.1,3.4,1.7l10.6,3.5c3.5,1.2,6.3,1.7,8,1.8c1.8,0,3.7-0.5,5.6-1.4c2.5-1.3,5.4-3.6,8.7-6.8
	l1.9,0.6L331.4,815l-48.6-15.7l0.5-1.8l2.3,0.7c1.5,0.5,3.1,0.6,4.6,0.3c1.1-0.2,2.1-0.7,2.7-1.6s1.5-2.9,2.5-5.9l13.2-40.9
	c1.3-4,1.7-6.6,1.2-7.8c-0.7-1.6-2.4-2.8-5-3.6l-2.3-0.7l0.5-1.8l48.6,15.7l-3.8,14l-1.9-0.6c0.4-3.5,0.4-6.1,0-7.5
	c-0.4-1.5-1.3-2.8-2.6-3.9c-1.1-0.9-3.2-1.8-6.3-2.8L320.1,745.6z"/>
<path d="M358.1,753.7l17.9,1.8l35.5,53.4l3.8-38c0.4-4.1,0.2-6.6-0.6-7.7c-1-1.5-2.9-2.4-5.5-2.6l-2.3-0.2l0.2-1.8l22.9,2.2
	l-0.2,1.8l-2.3-0.2c-2.8-0.3-4.8,0.3-6.2,2c-0.9,1-1.4,3.3-1.8,7l-5.5,55.6l-1.8-0.2L374,769.4l-4,40.5c-0.4,4.1-0.3,6.6,0.6,7.7
	c1.1,1.5,3,2.4,5.5,2.6l2.3,0.2l-0.2,1.8l-22.9-2.2l0.2-1.8l2.3,0.2c2.8,0.3,4.9-0.3,6.2-2c0.9-1,1.4-3.3,1.8-7l4.5-45.8
	c-1.7-2.4-3-4.1-3.9-4.8c-1-0.9-2.3-1.6-4.2-2.4c-0.9-0.3-2.4-0.6-4.3-0.8L358.1,753.7z"/>
<path d="M488.5,757.5l2.1,15.4l-1.8,0.2c-0.6-2.7-1.3-4.6-2-5.7c-1.2-1.8-2.6-3-4.4-3.8c-1.8-0.8-4-1-6.7-0.8l-9.3,0.8l4.5,50.4
	c0.4,4,1,6.6,2,7.5c1.3,1.3,3.3,1.8,5.8,1.5l2.3-0.2l0.2,1.8l-28,2.5l-0.2-1.8l2.3-0.2c2.8-0.2,4.7-1.2,5.7-3.1
	c0.7-1.1,0.8-3.5,0.4-7.2l-4.5-50.4l-7.9,0.7c-3.1,0.2-5.2,0.7-6.5,1.3c-1.6,0.8-3,2-4,3.9c-1,1.8-1.5,4.3-1.5,7.3l-1.8,0.2
	l-0.6-15.6L488.5,757.5z"/>
<path d="M574.5,802.3l-17.1,4.7L527.6,783c-1.6,0.5-2.8,0.8-3.9,1.2c-0.4,0.1-0.8,0.3-1.3,0.3c-0.5,0.1-1,0.2-1.5,0.3l5.1,18.6
	c1.1,4.1,2.3,6.4,3.4,7.1c1.5,1.1,3.5,1.3,6,0.6l2.5-0.7l0.5,1.7l-27.3,7.5l-0.5-1.7l2.4-0.7c2.7-0.8,4.4-2.2,5-4.2
	c0.4-1.2,0.1-3.6-0.9-7.2l-11.3-41.3c-1.1-4.1-2.3-6.4-3.4-7.1c-1.6-1.1-3.6-1.2-6.1-0.5l-2.4,0.7l-0.5-1.7l23.3-6.4
	c6.8-1.8,12-2.8,15.4-2.7c3.5,0.1,6.7,1.2,9.7,3.2c3,2.1,4.9,4.9,5.9,8.5c1.1,4,0.7,7.6-1,11.3c-1.8,3.6-5.2,6.7-10.2,9.4l18.2,14.7
	c4.1,3.3,7.5,5.5,10.1,6.3s5.6,0.9,9.2,0.3L574.5,802.3z M520.2,781.9c0.6-0.2,1.1-0.3,1.5-0.4s0.8-0.2,1.1-0.2
	c6.1-1.7,10.3-4.2,12.7-7.7c2.4-3.5,3-7.2,1.9-11.3c-1.1-4-3.2-6.9-6.4-8.7c-3.2-1.8-6.8-2.2-11-1c-1.8,0.5-4.2,1.5-7.2,2.9
	L520.2,781.9z"/>
<path d="M590.3,721.7l20.9-10l0.8,1.6l-1.1,0.5c-0.7,0.4-1.7,1.2-2.8,2.6c-1.2,1.3-2.1,3-2.7,4.9c-0.6,1.9-1.2,4.6-1.6,8.3
	l-3.6,29.5l7.1,15c1.8,3.7,3.3,5.8,4.5,6.3c1.7,0.7,3.8,0.5,6.1-0.7l2-0.9l0.8,1.6l-25.4,12.1l-0.8-1.6l2.2-1c2.6-1.2,4-2.8,4.3-4.9
	c0.2-1.3-0.5-3.5-2.1-6.9l-6.7-14.2l-28.3-17.3c-3.3-2-5.5-3.2-6.6-3.7c-1.1-0.5-2.9-0.6-5.6-0.6c-0.7,0-1.6,0.2-2.7,0.8l-0.8-1.6
	l25.6-12.2l0.8,1.6l-1.3,0.6c-1.3,0.6-2.5,1.6-3.4,2.8c-0.9,1.2-0.9,2.5-0.3,3.8c0.5,1,2.3,2.5,5.5,4.4l21.6,13.3l2.9-24
	c0.5-3.6,0.3-6.1-0.3-7.4c-0.4-0.8-0.9-1.5-1.7-1.9c-0.8-0.4-1.6-0.7-2.6-0.6c-1,0-2.2,0.4-3.9,1.2L590.3,721.7z"/>
<path d="M707.6,686.2l1.4-0.8l7.7,17.2l-38.2,34.1l-1.2-1.3l1.8-1.7c2.1-1.9,3-3.9,2.7-6.1c-0.2-1.2-1.6-3.2-4-6.1l-28.4-31.9
	c-2.8-3-4.8-4.7-6.2-4.9c-1.9-0.2-3.8,0.5-5.6,2.2l-1.8,1.7l-1.2-1.3l22.4-20l1.2,1.3c-2.6,2.4-4.3,4.2-4.9,5.6
	c-0.6,1.5-0.7,2.8-0.5,3.9c0.3,1.1,1.8,3.1,4.4,6.1l27.7,31c1.8,2,3.3,3.2,4.2,3.7c0.8,0.2,1.5,0.2,2.4-0.1c0.8-0.3,2.8-1.9,6-4.7
	l3.6-3.2c3.8-3.3,6.2-6,7.2-8c1-1.9,1.6-4.2,1.5-6.7C709.9,693.7,709.1,690.4,707.6,686.2z"/>
<path d="M749.1,635.7l1.3-1.1l10.6,15.7L729,690.4l-1.4-1.1l1.5-2c1.7-2.2,2.3-4.4,1.6-6.4c-0.4-1.2-2.1-2.9-5-5.3L692.3,649
	c-3.3-2.5-5.5-3.8-6.9-3.8c-1.9,0.1-3.6,1.1-5.2,3.1l-1.5,2l-1.4-1.1l18.7-23.5l1.4,1.1c-2.2,2.8-3.5,4.8-3.8,6.4
	c-0.3,1.5-0.2,2.8,0.2,3.9c0.5,1,2.3,2.8,5.3,5.3l32.6,25.9c2.1,1.6,3.8,2.7,4.9,2.9c0.8,0.1,1.5-0.1,2.3-0.5
	c0.8-0.4,2.4-2.4,5.1-5.6l3.1-3.8c3.2-4,5.1-7,5.7-9.1c0.7-2.1,0.9-4.4,0.4-6.9C752.5,642.8,751.2,639.6,749.1,635.7z"/>
<path d="M738.9,552.7l20.6,9.3l-0.7,1.3c-6.9-1.4-12.5-1.2-16.9,0.7c-4.4,1.9-7.8,5.2-10.2,9.7c-2.1,3.9-3,7.9-2.7,12.1
	c0.3,4.2,2.1,8.3,5.4,12.4c3.3,4.2,8.2,7.8,14.6,11.3c5.3,2.9,10.3,4.5,15.1,4.8c4.8,0.4,9.1-0.6,13-2.9s7-5.6,9.4-10
	c2.1-3.8,3-7.6,3-11.4c0-3.8-1.6-8.7-4.6-14.8l1.6-0.9c3.6,5.8,5.6,11.2,6,16.4c0.3,5.2-1,10.5-3.8,15.8
	c-5.1,9.7-12.7,15.2-22.8,16.7c-7.4,1.1-14.8-0.3-22-4.1c-5.9-3.1-10.5-7.3-13.9-12.5c-3.5-5.3-5.3-10.9-5.5-16.9
	c-0.2-6,1.1-11.8,4.1-17.1c2.3-4.3,5.5-7.8,9.8-10.9c1.3-0.9,2-1.6,2.3-2.1c0.4-0.8,0.5-1.6,0.2-2.5c-0.4-1.2-1.2-2.3-2.3-3.3
	L738.9,552.7z"/>
<path d="M119.5,177.2l21.5,13.5l-1,1.4c-7.5-2.6-13.8-3.2-19-1.7s-9.5,4.6-12.9,9.3c-2.9,4-4.5,8.4-4.8,13.1
	c-0.3,4.7,1.1,9.6,4.2,14.7c3.1,5.1,8,10,14.6,14.8c5.5,4,10.8,6.5,16.1,7.7c5.3,1.1,10.2,0.7,14.9-1.2c4.7-2,8.7-5.2,11.9-9.7
	c2.8-3.9,4.5-8,5-12.2s-0.4-9.9-2.8-17.1l1.9-0.7c3.2,6.9,4.6,13.3,4.1,19.1c-0.4,5.8-2.7,11.5-6.7,17.1
	c-7.2,10-16.6,15.1-27.9,15.2c-8.5,0.1-16.5-2.6-23.9-8c-6-4.4-10.6-9.7-13.7-16.1c-3.1-6.4-4.3-12.9-3.7-19.6
	c0.7-6.7,3-12.9,7.1-18.5c3.2-4.4,7.3-7.9,12.6-10.6c1.6-0.8,2.5-1.4,2.9-2c0.6-0.8,0.8-1.7,0.7-2.7c-0.2-1.4-1-2.7-2.1-4.1
	L119.5,177.2z"/>
<path d="M173.8,173.3l26.1-22.7l-14-16.1c-2.5-2.9-4.3-4.6-5.5-5.2c-0.9-0.4-2-0.5-3.3-0.3c-1.8,0.4-3.3,1.1-4.6,2.3l-2,1.7
	l-1.3-1.5l24-20.9l1.3,1.5l-2,1.7c-1.3,1.2-2.3,2.6-2.9,4.2c-0.5,1.2-0.5,2.4-0.1,3.6c0.5,1.2,1.9,3.1,4.3,5.9l31.5,36.3
	c2.5,2.8,4.3,4.6,5.4,5.2c0.9,0.4,2,0.6,3.3,0.3c1.8-0.4,3.4-1.2,4.7-2.3l2-1.7l1.3,1.5l-24,20.9l-1.3-1.5l2-1.7
	c2.3-2,3.4-4.1,3.3-6.4c-0.1-1.5-1.6-3.9-4.5-7.3l-14.9-17.1l-26.1,22.7l14.9,17.1c2.5,2.8,4.3,4.6,5.4,5.2c0.9,0.5,2,0.5,3.3,0.3
	c1.8-0.4,3.3-1.1,4.6-2.3l2-1.8l1.3,1.5l-24,21l-1.3-1.5l2-1.7c2.3-2,3.4-4.2,3.3-6.4c-0.1-1.5-1.6-3.9-4.6-7.3l-31.5-36.3
	c-2.5-2.9-4.3-4.6-5.5-5.2c-0.9-0.4-2-0.6-3.3-0.3c-1.8,0.4-3.4,1.2-4.7,2.3l-2,1.7l-1.3-1.5l24.1-20.9l1.3,1.5l-2,1.8
	c-1.3,1.2-2.3,2.6-2.9,4.2c-0.5,1.2-0.5,2.4,0,3.6c0.4,1.2,1.9,3.2,4.3,5.9L173.8,173.3z"/>
<path d="M310.8,130.2l-17.6,9.3l-38.6-19c-1.6,0.9-2.9,1.7-4,2.2c-0.4,0.2-0.9,0.5-1.4,0.7s-1,0.5-1.5,0.7l10.1,19.1
	c2.2,4.1,4,6.5,5.4,7c2,0.8,4.2,0.5,6.7-0.8l2.6-1.4l0.9,1.8l-28.2,14.9l-0.9-1.8l2.5-1.3c2.8-1.5,4.3-3.4,4.5-5.9
	c0.1-1.4-0.8-3.9-2.8-7.7L226,105.4c-2.2-4.1-4-6.5-5.4-7c-2-0.8-4.3-0.5-6.8,0.8l-2.5,1.3l-0.9-1.8l24-12.7
	c7-3.7,12.4-5.9,16.3-6.6c3.9-0.7,7.7-0.3,11.4,1.2c3.8,1.5,6.6,4.2,8.6,8c2.1,4.1,2.7,8.3,1.6,12.6c-1.1,4.4-4,8.6-8.9,12.8
	l23.6,11.7c5.4,2.7,9.6,4.2,12.6,4.4s6.4-0.4,10.2-1.9L310.8,130.2z M246.1,121.1c0.6-0.3,1.2-0.6,1.6-0.8s0.8-0.4,1.1-0.6
	c6.3-3.3,10.3-7.2,12.1-11.6c1.8-4.4,1.5-8.7-0.7-12.9c-2.2-4.1-5.2-6.8-9.2-8c-3.9-1.2-8-0.7-12.3,1.5c-1.9,1-4.3,2.6-7.1,5
	L246.1,121.1z"/>
<path d="M342.5,116.6l0.6,1.9l-30.3,10.1l-0.6-1.9l2.5-0.8c2.9-1,4.8-2.5,5.5-4.7c0.5-1.4,0-4.2-1.4-8.4l-15.2-45.7
	c-1.2-3.6-2.2-5.9-3-6.9c-0.6-0.8-1.6-1.3-2.9-1.5c-1.8-0.3-3.5-0.2-5.2,0.3l-2.5,0.8l-0.6-1.9l30.3-10.1l0.6,1.9l-2.6,0.9
	c-2.9,1-4.7,2.5-5.5,4.7c-0.5,1.4,0,4.2,1.4,8.5l15.2,45.7c1.2,3.6,2.2,5.9,3,6.9c0.6,0.8,1.6,1.3,2.9,1.5c1.8,0.3,3.5,0.2,5.2-0.3
	L342.5,116.6z"/>
<path d="M380.3,33.4l4.5,25.4l-2,0.4c-1.5-4.8-3.4-8.4-5.6-11c-2.2-2.6-5-4.5-8.4-5.6s-6.8-1.4-10.1-0.8c-3.8,0.7-6.6,2.4-8.7,5.1
	c-2,2.7-2.8,5.6-2.3,8.5c0.4,2.2,1.5,4.1,3.4,5.7c2.7,2.3,8.7,5,17.9,8c7.5,2.5,12.7,4.5,15.5,6c2.9,1.5,5.2,3.5,7,5.9s3,5.1,3.5,8
	c1,5.6-0.3,10.7-3.9,15.5c-3.6,4.8-8.8,7.8-15.6,9c-2.1,0.4-4.2,0.6-6.1,0.6c-1.1,0-3.6-0.2-7.3-0.7s-6-0.7-7-0.5
	c-0.9,0.2-1.6,0.6-2,1.2s-0.6,1.8-0.6,3.6l-2,0.4L346,92.9l2-0.4c1.9,5.1,3.8,8.8,5.9,11.1c2.1,2.3,4.9,4.1,8.4,5.2
	c3.6,1.2,7.3,1.4,11.2,0.7c4.5-0.8,7.9-2.6,10.1-5.5c2.2-2.8,3-5.9,2.4-9.1c-0.3-1.8-1.1-3.5-2.5-5.2c-1.3-1.7-3.2-3.1-5.5-4.3
	c-1.6-0.8-5.8-2.4-12.7-4.9c-6.9-2.4-11.9-4.4-14.9-6s-5.4-3.6-7.3-5.9c-1.8-2.3-3-4.9-3.5-8c-0.9-5.3,0.3-10.2,3.6-14.7
	c3.4-4.5,8.2-7.3,14.4-8.4c3.9-0.7,8.2-0.5,12.9,0.7c2.2,0.5,3.7,0.7,4.5,0.6c0.9-0.2,1.7-0.6,2.1-1.2c0.5-0.7,0.8-1.9,0.8-3.6
	L380.3,33.4z"/>
<path d="M467.5,33l0.5,17.5h-2.1c-0.4-3.1-0.9-5.3-1.5-6.6c-1.1-2.1-2.6-3.7-4.5-4.8c-1.9-1-4.3-1.6-7.4-1.6L442,37.3l-0.9,56.9
	c-0.1,4.6,0.4,7.4,1.3,8.6c1.4,1.6,3.5,2.4,6.4,2.4h2.6v2l-31.6-0.5v-2h2.6c3.2,0.1,5.4-0.9,6.7-2.8c0.8-1.2,1.3-3.8,1.3-8l0.9-56.9
	l-9-0.1c-3.5-0.1-6,0.2-7.4,0.6c-1.9,0.7-3.6,2-5,3.9c-1.4,2-2.2,4.6-2.5,8h-2.1l1.2-17.5L467.5,33z"/>
<path d="M466,79.1l28.1,4l-1.2,8.2l-28.1-4L466,79.1z"/>
<path d="M559.6,110.3l1.6,0.9l-12,17.5l-55.1-16.9l0.6-1.9l2.7,0.8c3,0.9,5.5,0.6,7.4-1c1.1-0.9,2.2-3.4,3.5-7.4l14.1-45.9
	c1.4-4.4,1.7-7.4,1.1-8.8c-0.9-2-2.7-3.4-5.4-4.2l-2.7-0.8l0.6-1.9l32.2,9.9l-0.6,1.9c-3.8-1.2-6.5-1.7-8.3-1.4s-3.1,0.9-4,1.8
	c-0.9,0.9-2,3.5-3.3,7.8l-13.8,44.7c-0.9,2.9-1.2,5-1,6.2c0.2,0.9,0.7,1.6,1.4,2.2c0.8,0.6,3.4,1.6,8,3l5.2,1.6
	c5.5,1.7,9.4,2.5,11.9,2.3c2.5-0.1,4.9-0.9,7.4-2.4C553.6,116.8,556.4,114.1,559.6,110.3z"/>
<path d="M586.6,144.7l-0.9,1.8l-28.7-14l0.9-1.8l2.4,1.2c2.8,1.4,5.2,1.5,7.2,0.5c1.3-0.7,2.9-3,4.9-7l21.1-43.3
	c1.7-3.4,2.5-5.7,2.6-7c0.1-1-0.3-2-1-3.1c-1.1-1.5-2.4-2.6-4-3.4l-2.4-1.2l0.9-1.8l28.7,14l-0.9,1.8l-2.4-1.2
	c-2.7-1.3-5.1-1.5-7.2-0.5c-1.3,0.7-3,3-4.9,7L581.8,130c-1.6,3.4-2.5,5.7-2.6,7c-0.1,1,0.3,2,1,3.1c1,1.5,2.3,2.6,3.9,3.4
	L586.6,144.7z"/>
<path d="M638,132.8l6.3,38.2c1,6.3,2.3,11,4,14.2c1.6,3.2,3.7,5.8,6.1,7.9l-1.2,1.6l-28.7-20.8l1.2-1.6c1.7,1.2,3.2,1.9,4.3,1.8
	c1.2,0,2-0.4,2.5-1.1c0.5-0.7,0.8-1.5,1-2.2s0-2.5-0.5-5.2l-5.9-35.7L613,149.4c-2.2,3.1-3.5,5.2-3.8,6.5c-0.2,1-0.1,2,0.5,3.3
	c0.8,1.6,1.9,3,3.3,4l2,1.5l-1.2,1.6l-25.7-18.6l1.2-1.6l2.1,1.5c2.5,1.8,4.8,2.4,7,1.7c1.4-0.4,3.4-2.5,6-6.1l28.2-39
	c2.2-3.1,3.5-5.2,3.8-6.5c0.2-0.9,0.1-2-0.5-3.2c-0.8-1.7-1.9-3-3.3-4l-2.1-1.5l1.2-1.6l25.7,18.6l-1.2,1.6l-2-1.5
	c-1.4-1-3-1.6-4.8-1.9c-1.3-0.2-2.4,0.1-3.5,0.8c-1,0.7-2.6,2.5-4.8,5.5L627.7,129c1-0.1,4.4-0.6,10.2-1.2
	c14.7-1.7,23.9-3.2,27.7-4.6c1.7-0.6,2.8-1.4,3.5-2.2c0.5-0.7,0.6-1.5,0.4-2.5c-0.3-1-1.1-2-2.6-3.1l-1.4-1l1.2-1.6l22.2,16
	l-1.2,1.6c-1.3-0.9-2.6-1.6-3.9-2s-3.1-0.8-5.3-0.9c-2.2-0.2-5.2-0.1-9,0.4c-1.1,0.1-6.3,1-15.6,2.6L638,132.8z"/>
<path d="M722.1,167.2l-22,19.5l10.9,12.2c2.8,3.2,5.2,4.9,7.1,5.1c2.5,0.3,5.4-0.9,8.8-3.5l1.4,1.5l-19.4,17.2l-1.4-1.5
	c2.4-2.8,3.8-4.7,4.2-5.8c0.5-1.3,0.6-2.8,0.1-4.4c-0.5-1.6-1.7-3.6-3.8-5.9l-10.9-12.2l-18.4,16.3c-2.5,2.2-3.9,3.6-4.2,4.3
	c-0.3,0.7-0.4,1.5-0.3,2.3c0.2,0.8,0.9,2,2.3,3.5l8.4,9.5c2.8,3.2,5,5.2,6.7,6.3c1.7,1,3.8,1.6,6.2,1.8c3.2,0.2,7.3-0.3,12.3-1.6
	l1.5,1.6l-18.2,7.6l-38.1-42.9l1.5-1.4l1.8,2c1.2,1.3,2.6,2.3,4.3,2.9c1.2,0.5,2.4,0.5,3.6,0s3.1-1.9,5.8-4.3l36.2-32.1
	c3.5-3.1,5.4-5.4,5.6-6.9c0.2-2-0.7-4.1-2.7-6.4l-1.8-2l1.5-1.4l38.1,42.9l-11.7,11.4l-1.4-1.6c2.4-3.2,3.9-5.6,4.3-7.3
	c0.5-1.7,0.4-3.4-0.2-5.3c-0.6-1.5-2.1-3.6-4.5-6.3L722.1,167.2z"/>
<g>
	<path d="M472.4,296.9c-5.1,0-14.7-8.7-21.5-10.1c-0.6-0.1-1.3-0.2-2-0.3l6.1-135.2c0,0-22.9-9.6-51.9,0c0,17.2,7.6,94.3,8.6,135.4
		c-0.9,0.2-1.9,0.3-2.8,0.6c-2.9,0.7-5.8,11.4-8.8,12.4c-19.5,6.3-89.1,15.6-113.5-10.9c-7.1,1.7-7,73.7-2.6,77.4
		c6.3-3.3,58.9-29.5,108.1-12.9c11.1,3.7,15.1,13.2,18.6,12.6l-7.5,331.5c0,14.4,25.3,18.3,25.3,18.3s26.6-3.6,26.6-18.3
		c0-35.1-6.4-284.7-6.6-331.2c0.1,0,0.1,0,0.2,0c2.8,0.5,10.6-15.2,13.9-18.9c7.6-8.6,20.7-19,41-19.8c32.9-1.3,106.8,3.4,106.8,3.4
		l2.2-1.8C582.4,308.4,519.9,296.4,472.4,296.9z M409.5,360.7c-1.1-1.5-5.9-10.3-16.5-13.2c-10.6-2.9-70.1-12.3-102.9,6.5
		c-3.5-10.8-2-21.1-2-21.1h122.5c0,0,0,16.8,0,20.7c0,2.9,2.6,7.2,6.5,8.5C413.5,362.1,410.6,362.3,409.5,360.7z M406.7,688.6
		c0-6.7,3.8-182.8,6.4-263.6c0.8-24.7,1.4-46.7,1.8-56c1.3,1.8,4.8,1.9,4.8,1.9c-3.1,154.9-1.6,306.9,7.2,339.6
		C419.2,707.7,406.7,703.9,406.7,688.6z M441.2,281.3c-0.5-26,1.4-125.7-12.1-129.5c6.8,0,15.9,1.2,19.1,4.3
		c3.3,3.1-2.5,126.8-2.5,126.8S444.1,281.6,441.2,281.3z M452.8,313.1c0-2.2-0.2-8.5-0.2-13.7c-0.1-5.3-2.3-9-5.9-10.1
		c4.9,0,8,4.6,9.4,6.3c4.6,5.5,5.6,9.6,11.5,9.3c5.1-0.2,89.9-3.5,139.4,22.5C553.2,309.7,512.2,313.1,452.8,313.1z"/>
	<path d="M264.6,289.2c-6.1,0-6.1,76.9,0,76.9c3.1,0,15.1,0,15.1,0c-4.5-28.2-3-52.4,0-76.9C279.7,289.2,268,289.2,264.6,289.2z
		 M265.4,359.3c-1.6-4-1.6-14.9-1.9-26.3h10c0,0-1.3,14.6,2.2,26.3H265.4z"/>
</g>
</svg>
