<?xml version="1.0" encoding="utf-8"?>
<!-- Generator: Adobe Illustrator 23.0.1, SVG Export Plug-In . SVG Version: 6.00 Build 0)  -->
<svg version="1.1" id="Layer_1" xmlns="http://www.w3.org/2000/svg" xmlns:xlink="http://www.w3.org/1999/xlink" x="0px" y="0px"
	 viewBox="0 0 886.4 886.4" style="enable-background:new 0 0 886.4 886.4;" xml:space="preserve">
<style type="text/css">
	.st0{fill:#FFFFFF;}
	.st1{fill:#BFBFBF;}
	.st2{fill:#808080;}
	.st3{fill:#DFDFDF;}
	.st4{fill:#404040;}
</style>
<ellipse transform="matrix(0.7071 -0.7071 0.7071 0.7071 -183.6504 443.2292)" class="st0" cx="443.2" cy="443.3" rx="430.9" ry="430.9"/>
<path d="M851.6,270.7c-22.3-52.8-54.3-100.2-95-140.9s-88.1-72.7-140.9-95C561.1,11.7,503,0,443.2,0S325.3,11.7,270.7,34.8
	c-52.8,22.3-100.2,54.3-140.9,95s-72.7,88.1-95,140.9C11.7,325.3,0,383.4,0,443.2s11.7,117.9,34.8,172.5
	c22.3,52.8,54.3,100.2,95,140.9c40.7,40.7,88.1,72.7,140.9,95c54.6,23.1,112.7,34.8,172.5,34.8c59.8,0,117.9-11.7,172.5-34.8
	c52.8-22.3,100.2-54.3,140.9-95c40.7-40.7,72.7-88.1,95-140.9c23.1-54.6,34.8-112.7,34.8-172.5S874.7,325.4,851.6,270.7z
	 M443.2,874.2c-237.6,0-430.9-193.3-430.9-430.9S205.6,12.4,443.2,12.4s430.9,193.3,430.9,430.9
	C874.1,680.9,680.8,874.2,443.2,874.2z"/>
<path d="M231.5,735.4c4.2-0.3,7.6-2.1,10.1-5.5c2.5-3.3,3.4-6.8,2.9-10.4s-2.5-6.7-5.9-9.3c-1.5-1.1-3.8-2.4-6.7-3.8l-16.4,22.1
	c0.5,0.4,0.9,0.7,1.3,1c0.4,0.3,0.6,0.5,0.9,0.7C222.7,733.9,227.3,735.6,231.5,735.4z"/>
<path d="M290.8,743.4c-1.5-0.8-3.5-1.4-6.1-2.1l-12.4,24.6c1.4,1.1,2.6,2,3.8,2.7c1.1,0.8,2.1,1.3,2.9,1.8c3,1.5,6.2,1.7,9.6,0.5
	c3.4-1.2,6-3.7,7.9-7.4c1.3-2.6,2-5.2,2-7.9c0.1-2.7-0.6-5.1-2-7.2C295.2,746.3,293.3,744.6,290.8,743.4z"/>
<polygon points="157.4,683.2 172.6,700 184.9,673.8 "/>
<path d="M538.4,781.7c-1-4-3.1-7-6.2-8.9s-6.8-2.3-10.9-1.3c-1.8,0.5-4.2,1.4-7.2,2.8l6.6,26.7c0.6-0.2,1.1-0.3,1.6-0.4
	c0.4-0.1,0.8-0.2,1.1-0.3c6.1-1.5,10.4-4,12.9-7.4C538.7,789.6,539.4,785.8,538.4,781.7z"/>
<path d="M444.4,750.3c-136.8,0-252.9-89.2-293.1-212.5l-107,34.5c60,184.9,242.8,309.2,443.9,288.2
	c173-18.1,310.4-138.6,358.5-294.9l-107.5-32.9C700.5,658.7,583.1,750.3,444.4,750.3z M101.7,651.9c-5.7-9.4-6.6-18.8-2.7-28.1
	c2.9-7,7.8-12.6,14.8-16.8c5.7-3.4,11.6-5.3,17.9-5.6c6.3-0.3,12,1,17.3,3.8c5.3,2.9,9.5,7,12.7,12.2c2.5,4.1,3.9,8.7,4.3,13.9
	c0.1,1.5,0.3,2.6,0.6,3.1c0.5,0.8,1.1,1.3,2,1.5c1.2,0.3,2.5,0.2,4.1-0.3l0.9,1.5L155.1,650l-0.8-1.3c4.7-5.2,7.4-10.2,8-14.9
	c0.6-4.7-0.4-9.4-3.2-13.8c-2.3-3.8-5.3-6.6-9-8.5s-8.2-2.4-13.5-1.7c-5.2,0.8-11,3-17.2,6.8c-5.1,3.1-9.1,6.6-11.9,10.5
	c-2.8,3.9-4.2,8.1-4.2,12.6s1.3,8.9,3.8,13.1c2.2,3.7,5,6.5,8.2,8.3c3.3,1.9,8.3,3.1,15,3.6l-0.1,1.8c-6.8,0.2-12.5-0.9-17.1-3.3
	C108.8,660.9,104.9,657.1,101.7,651.9z M172.8,735.9l-1.3,1.2L154,717.7l1.3-1.2c1.9,1.9,3.4,2.9,4.6,3.1c1.2,0.2,2.2-0.1,3-0.8
	c1.1-1,2.3-3,3.7-6l4.4-9.4l-17.2-19l-10.8,3.7c-2.7,0.9-4.4,1.8-5.4,2.6c-0.8,0.7-1.1,1.6-1,2.9c0.1,1.2,1.1,3.1,3.1,5.6l-1.3,1.2
	l-14-15.5l1.3-1.2c2.2,1.7,3.9,2.6,5,2.7c2.3,0.2,5.9-0.6,10.8-2.3l56-19.3l1.1,1.3l-25.4,54.1c-2,4.4-3,7.5-3,9.5
	C170.2,731.8,171.1,733.8,172.8,735.9z M228.5,774.9c0.9,2.5,2.8,5,5.4,7.4l-1.1,1.4l-14.2-10.6l0.5-38.2c-1.4-0.9-2.5-1.7-3.3-2.3
	c-0.3-0.3-0.7-0.5-1.1-0.8c-0.4-0.3-0.8-0.6-1.2-1L202,746.2c-2.5,3.3-3.7,5.7-3.5,7c0.1,1.9,1.2,3.6,3.2,5l2.1,1.5l-1.1,1.5
	l-22.8-16.9l1.1-1.5l2,1.5c2.2,1.7,4.4,2.1,6.5,1.4c1.1-0.4,2.9-2.1,5.1-5.1l25.5-34.3c2.5-3.3,3.7-5.7,3.5-7
	c-0.2-1.9-1.3-3.6-3.3-5.1l-2-1.5l1.1-1.5l19.4,14.4c5.6,4.2,9.5,7.7,11.6,10.5s3.2,6,3.4,9.6s-0.8,6.9-3.1,10
	c-2.4,3.3-5.6,5.3-9.5,6.1c-3.9,0.8-8.5,0.1-13.7-2.3l-0.4,23.4C227.2,768.5,227.6,772.5,228.5,774.9z M280.3,774.6
	c-1.4-0.7-2.9-1.6-4.5-2.6s-3.2-2.2-4.9-3.6l-8.7,17.2c-1.9,3.7-2.6,6.2-2.3,7.5c0.5,1.8,1.8,3.3,4,4.5l2.3,1.1l-0.8,1.6l-25.3-12.8
	l0.8-1.6l2.2,1.1c2.5,1.3,4.7,1.4,6.6,0.3c1-0.6,2.4-2.6,4.1-6l19.3-38.2c1.9-3.7,2.7-6.2,2.3-7.5c-0.5-1.9-1.8-3.3-4.1-4.5
	l-2.2-1.1l0.8-1.6l21.7,11c5.3,2.7,9.2,5.3,11.7,8c2.5,2.6,4.1,5.8,4.9,9.4c0.8,3.6,0.3,7.2-1.5,10.8c-2.4,4.8-6,7.9-10.7,9.4
	C291.4,778.3,286.1,777.6,280.3,774.6z M359.8,781.2c0.4-3.5,0.4-6,0-7.5s-1.3-2.8-2.6-4c-1.1-0.9-3.2-1.8-6.3-2.8l-17.3-5.5
	l-7.9,24.9l13.9,4.4c3.6,1.1,6.2,1.4,7.7,0.7c2.1-0.9,3.8-3.1,5.1-6.7l1.7,0.5l-7,22l-1.7-0.5c0.5-3.2,0.7-5.3,0.6-6.3
	c-0.2-1.3-0.9-2.4-1.9-3.4c-1.1-1-2.9-2-5.6-2.8l-13.9-4.4l-6.6,20.8c-0.9,2.8-1.3,4.5-1.3,5.2c0.1,0.7,0.3,1.3,0.8,1.9
	s1.6,1.1,3.4,1.7l10.7,3.4c3.6,1.1,6.2,1.7,8,1.7s3.6-0.5,5.6-1.5c2.5-1.3,5.4-3.6,8.7-6.8l1.9,0.6l-10.5,14.1l-48.6-15.5l0.6-1.7
	l2.2,0.7c1.5,0.5,3,0.6,4.6,0.3c1.1-0.2,2.1-0.7,2.7-1.6c0.7-0.9,1.5-2.9,2.5-5.9l13.1-41c1.3-4,1.7-6.6,1.1-7.8
	c-0.7-1.6-2.4-2.8-5-3.6l-2.2-0.7l0.6-1.7l48.6,15.5l-3.7,14L359.8,781.2z M438.7,780.2l-2.3-0.3c-2.8-0.3-4.9,0.3-6.2,1.8
	c-0.8,0.9-1.5,3.3-1.9,6.9l-6.8,55.4l-1.7-0.2L383,785.6l-5,40.5c-0.5,4-0.4,6.6,0.4,7.7c1.1,1.5,2.9,2.4,5.4,2.7l2.3,0.3l-0.2,1.8
	l-22.9-2.8l0.2-1.8l2.3,0.3c2.8,0.3,4.9-0.3,6.3-1.8c0.8-0.9,1.5-3.3,1.9-6.9l5.6-45.7c-1.6-2.5-2.9-4.1-3.8-4.9
	c-0.9-0.8-2.3-1.7-4.1-2.5c-0.9-0.4-2.3-0.7-4.2-1l0.2-1.8l17.8,2.2l34.1,54.2l4.7-37.9c0.5-4,0.4-6.6-0.4-7.7
	c-1-1.5-2.8-2.4-5.4-2.7l-2.3-0.3l0.2-1.8l22.9,2.8L438.7,780.2z M493.7,789.7c-0.5-2.7-1.1-4.6-1.8-5.8c-1.1-1.8-2.6-3.1-4.3-3.9
	c-1.7-0.8-4-1.1-6.7-0.9l-9.3,0.6l3.3,50.5c0.3,4.1,0.9,6.6,1.8,7.5c1.3,1.3,3.3,1.8,5.8,1.7l2.3-0.1l0.1,1.8l-28,1.8l-0.1-1.8
	l2.3-0.2c2.8-0.2,4.7-1.2,5.8-2.9c0.6-1.1,0.9-3.5,0.6-7.2l-3.3-50.5l-7.9,0.5c-3.1,0.2-5.3,0.6-6.5,1.1c-1.6,0.7-3,2-4.1,3.8
	s-1.6,4.3-1.7,7.3l-1.9,0.1l-0.2-15.5l53.9-3.5l1.7,15.4L493.7,789.7z M557.4,827l-29.2-24.6c-1.6,0.5-2.9,0.8-3.9,1.1
	c-0.4,0.1-0.9,0.2-1.3,0.3s-1,0.2-1.5,0.3l4.6,18.7c1,4,2.1,6.4,3.2,7.2c1.5,1.1,3.5,1.3,5.9,0.7l2.5-0.6l0.4,1.8l-27.5,6.8
	l-0.4-1.8l2.4-0.6c2.7-0.7,4.4-2,5.2-4.1c0.4-1.1,0.2-3.5-0.7-7.2l-10.3-41.5c-1-4-2.1-6.4-3.2-7.2c-1.6-1.1-3.6-1.3-6-0.7l-2.4,0.6
	l-0.4-1.8l23.4-5.8c6.8-1.7,12-2.5,15.5-2.3s6.7,1.3,9.6,3.5c2.9,2.1,4.8,5,5.8,8.7c1,4,0.5,7.7-1.3,11.2c-1.9,3.5-5.3,6.6-10.4,9.1
	l17.9,15.1c4.1,3.5,7.4,5.6,9.9,6.5s5.6,1,9.2,0.5l0.4,1.8L557.4,827z M595.6,813.6l-0.7-1.6l2.1-1c2.6-1.1,4-2.7,4.4-4.8
	c0.2-1.2-0.4-3.6-1.9-6.9l-6.4-14.3l-27.9-17.9c-3.3-2.1-5.5-3.4-6.5-3.8s-2.9-0.7-5.5-0.7c-0.7,0-1.7,0.2-2.8,0.7l-0.7-1.6
	l25.9-11.6l0.7,1.6l-1.3,0.6c-1.4,0.6-2.5,1.5-3.4,2.7s-1,2.4-0.4,3.7c0.5,1.1,2.3,2.6,5.3,4.6l21.3,13.8l3.5-23.9
	c0.5-3.6,0.5-6.1-0.1-7.4c-0.4-0.8-0.9-1.5-1.6-1.9s-1.6-0.7-2.5-0.7c-1,0-2.3,0.3-3.9,1.1l-0.7-1.6l21.1-9.4l0.7,1.7l-1.2,0.5
	c-0.8,0.3-1.8,1.2-2.9,2.5c-1.2,1.4-2.1,2.9-2.7,4.8c-0.6,1.8-1.2,4.6-1.7,8.3l-4.3,29.5l6.8,15.2c1.7,3.7,3.1,5.8,4.4,6.4
	c1.7,0.7,3.8,0.6,6.2-0.5l2-0.9l0.7,1.6L595.6,813.6z M670.3,774.7l-1.1-1.4l2-1.5c2.2-1.7,3.2-3.7,3-5.9c-0.1-1.2-1.3-3.4-3.7-6.3
	L644.1,726c-2.5-3.3-4.5-5-5.9-5.3c-1.9-0.3-3.8,0.3-5.8,1.8l-2,1.5l-1.1-1.4l23.6-18.5l1.1,1.4c-2.8,2.1-4.5,3.9-5.2,5.3
	s-0.9,2.7-0.7,3.8c0.2,1.1,1.6,3.3,4,6.4l25.7,32.7c1.7,2.1,3,3.4,4,3.9c0.7,0.3,1.5,0.3,2.4,0.1c0.8-0.2,2.9-1.7,6.3-4.3l3.8-3
	c4-3.1,6.6-5.6,7.7-7.5c1.2-1.9,1.8-4.1,2-6.6s-0.4-6-1.6-10.2l1.5-0.7l6.6,17.6L670.3,774.7z M723.5,731.7l-1.3-1.2l1.7-1.9
	c1.9-2.1,2.5-4.2,2-6.3c-0.3-1.2-1.9-3.1-4.7-5.6l-31.7-28.6c-3.1-2.8-5.3-4.2-6.7-4.2c-1.9,0-3.7,0.9-5.4,2.8l-1.7,1.9l-1.3-1.2
	l20.1-22.3l1.3,1.2c-2.4,2.6-3.8,4.6-4.2,6.1c-0.4,1.5-0.5,2.8,0,3.9c0.4,1.1,2.1,2.9,5,5.6l30.9,27.9c2,1.8,3.6,2.9,4.7,3.1
	c0.8,0.2,1.5,0.1,2.3-0.3s2.6-2.2,5.5-5.3l3.2-3.6c3.4-3.8,5.5-6.7,6.3-8.7s1.1-4.3,0.8-6.8c-0.3-2.5-1.4-5.8-3.3-9.8l1.3-1
	l9.5,16.2L723.5,731.7z M743.4,599.9c-0.3-1.2-1-2.3-2.2-3.5l0.9-1.4l19.9,10.6l-0.8,1.3c-6.8-1.8-12.4-1.9-16.9-0.3
	s-8.1,4.7-10.9,9.1c-2.3,3.7-3.5,7.7-3.4,11.9c0,4.2,1.6,8.4,4.7,12.7c3.1,4.3,7.7,8.4,13.9,12.2c5.1,3.2,10,5.1,14.8,5.8
	c4.7,0.7,9.1,0,13.2-2c4-2,7.3-5.2,9.9-9.4c2.3-3.6,3.5-7.4,3.6-11.1s-1-8.8-3.6-15l1.6-0.8c3.3,5.9,4.9,11.5,4.9,16.7
	s-1.6,10.4-4.8,15.6c-5.8,9.3-13.7,14.4-23.8,15.2c-7.5,0.6-14.8-1.2-21.7-5.5c-5.6-3.5-10-7.9-13.1-13.4
	c-3.1-5.4-4.6-11.2-4.5-17.2s1.8-11.6,5.1-16.9c2.5-4.1,6-7.5,10.5-10.2c1.3-0.8,2.1-1.4,2.5-1.9
	C743.4,601.6,743.6,600.8,743.4,599.9z"/>
<path d="M174.7,256.2c4.1-5.6,6.3-11.4,6.7-17.3c0.4-5.9-1-12.4-4.2-19.4l-1.9,0.7c2.4,7.3,3.4,13.1,2.9,17.3
	c-0.5,4.3-2.2,8.4-5,12.3c-3.3,4.6-7.3,7.9-12.1,9.8c-4.7,2-9.8,2.4-15.1,1.3c-5.3-1.2-10.8-3.7-16.3-7.7c-6.7-4.8-11.6-9.8-14.8-15
	c-3.1-5.1-4.6-10.1-4.3-14.9s1.9-9.2,4.9-13.2c3.5-4.8,7.9-8,13.1-9.5c5.2-1.5,11.6-0.9,19.2,1.7l1-1.4L127,187.3l-1.1,1.6
	c1.2,1.4,1.9,2.7,2.2,4.1c0.1,1-0.1,1.9-0.7,2.7c-0.4,0.5-1.4,1.2-2.9,2c-5.3,2.7-9.5,6.3-12.7,10.7c-4.1,5.7-6.5,11.9-7.1,18.8
	c-0.7,6.8,0.6,13.5,3.7,19.9c3.1,6.4,7.7,11.9,13.8,16.3c7.6,5.5,15.7,8.2,24.2,8.1C158,271.4,167.4,266.3,174.7,256.2z"/>
<path d="M146.3,171c1.3-1.2,2.9-2,4.7-2.4c1.3-0.3,2.4-0.1,3.3,0.3c1.2,0.6,3,2.4,5.6,5.3l32,36.7c3,3.4,4.5,5.9,4.6,7.3
	c0.1,2.3-1,4.5-3.3,6.5l-2,1.8l1.4,1.5l24.4-21.2l-1.4-1.6l-2.1,1.8c-1.3,1.2-2.9,1.9-4.7,2.3c-1.3,0.3-2.4,0.2-3.3-0.3
	c-1.2-0.6-3-2.4-5.5-5.2l-15.1-17.3l26.4-23l15.1,17.3c3,3.4,4.5,5.9,4.6,7.4c0.1,2.3-1,4.5-3.3,6.5l-2,1.8l1.4,1.5l24.3-21.2
	l-1.4-1.6l-2,1.8c-1.3,1.2-2.9,2-4.7,2.4c-1.3,0.3-2.4,0.1-3.3-0.3c-1.2-0.6-3-2.4-5.5-5.2l-32-36.7c-2.4-2.8-3.9-4.8-4.4-6
	s-0.5-2.4,0.1-3.6c0.6-1.7,1.6-3.1,3-4.3l2-1.8l-1.4-1.5l-24.3,21.2l1.4,1.5l2-1.8c1.3-1.2,2.9-1.9,4.7-2.3c1.3-0.3,2.4-0.2,3.3,0.3
	c1.2,0.6,3,2.4,5.6,5.3l14.2,16.3l-26.4,23l-14.2-16.3c-2.4-2.8-3.9-4.8-4.3-6s-0.4-2.4,0-3.6c0.6-1.7,1.6-3.1,3-4.3l2.1-1.8
	l-1.4-1.6l-24.4,21.2l1.4,1.6L146.3,171z"/>
<path d="M223.7,107.3c2.5-1.3,4.8-1.6,6.8-0.9c1.5,0.5,3.3,2.9,5.5,7.1l22.8,43.1c2,3.8,2.9,6.4,2.8,7.8c-0.2,2.5-1.8,4.5-4.6,6
	l-2.5,1.3l1,1.8l28.6-15.1l-1-1.8l-2.6,1.4c-2.5,1.3-4.7,1.6-6.8,0.8c-1.5-0.5-3.3-2.9-5.5-7.1l-10.3-19.4c0.5-0.2,1.1-0.5,1.6-0.7
	s1-0.5,1.4-0.7c1.1-0.6,2.4-1.3,4-2.3l39.1,19.2l16.9-8.9l-0.1-0.2l0.9-0.3l-0.9-1.8c-3.8,1.5-7.3,2.2-10.3,1.9s-7.3-1.7-12.7-4.5
	l-23.9-11.8c4.9-4.2,8-8.5,9-13c1.1-4.4,0.5-8.7-1.6-12.8c-2-3.8-4.9-6.5-8.8-8s-7.7-1.9-11.6-1.2c-3.9,0.8-9.4,3-16.5,6.7
	l-24.3,12.9l1,1.8L223.7,107.3z M248.9,96.4c4.3-2.3,8.4-2.8,12.4-1.6s7.1,3.9,9.3,8.1c2.3,4.3,2.5,8.6,0.7,13.1s-5.8,8.4-12.2,11.7
	c-0.3,0.2-0.7,0.3-1.1,0.6c-0.5,0.2-1,0.5-1.6,0.8l-14.7-27.7C244.6,99.1,247,97.4,248.9,96.4z"/>
<path d="M325,135.4l0.6,1.7l30.7-10.2l-0.7-2l-2.6,0.9c-1.7,0.6-3.4,0.7-5.2,0.3c-1.3-0.3-2.3-0.8-3-1.5c-0.8-1-1.9-3.3-3.1-7
	l-15.3-46.1c-1.4-4.3-1.9-7.1-1.4-8.6c0.8-2.2,2.6-3.7,5.5-4.7l2.6-0.9l-0.6-1.9l-30.7,10.2l0.7,2l2.5-0.8c1.7-0.6,3.4-0.7,5.3-0.4
	c1.3,0.3,2.3,0.8,2.9,1.6c0.8,1,1.9,3.3,3.1,7l15.4,46.2c1.4,4.3,1.9,7.1,1.4,8.6c-0.8,2.2-2.6,3.7-5.6,4.7l-1.6,0.5v0.1L325,135.4z
	"/>
<polygon points="325,135.4 325.9,135 325.9,134.9 325,135.2 "/>
<path d="M356.6,76.3c1.8,2.3,4.3,4.3,7.4,5.9c3.1,1.6,8.1,3.7,15.1,6.1c7,2.4,11.3,4.1,12.9,4.9c2.4,1.2,4.3,2.7,5.6,4.4
	s2.2,3.4,2.5,5.3c0.6,3.3-0.2,6.4-2.4,9.3c-2.2,2.9-5.6,4.7-10.2,5.5c-3.9,0.7-7.7,0.5-11.3-0.7s-6.5-2.9-8.5-5.3
	c-2.1-2.4-4.1-6.1-6-11.3l-2,0.4l4.6,25.5l2-0.4c-0.1-1.8,0.1-3,0.6-3.6c0.4-0.6,1.1-1,2-1.2s3.3,0,7.1,0.5s6.2,0.8,7.4,0.7
	c2,0,4-0.2,6.2-0.6c6.9-1.2,12.1-4.3,15.7-9.1s5-10.1,3.9-15.7c-0.5-3-1.7-5.7-3.6-8.1c-1.9-2.5-4.2-4.5-7.1-6
	c-2.9-1.5-8.1-3.5-15.7-6c-9.3-3-15.4-5.7-18.1-8.1c-1.9-1.6-3.1-3.5-3.5-5.8c-0.5-3,0.2-5.8,2.3-8.6s5-4.5,8.8-5.2
	c3.4-0.6,6.8-0.3,10.2,0.8c3.4,1.2,6.3,3,8.5,5.7c2.2,2.6,4.1,6.3,5.6,11.1l2-0.4L394,40.6l-2,0.4c-0.1,1.8-0.3,3-0.8,3.7
	S390,45.8,389,46c-0.8,0.2-2.4,0-4.6-0.6c-4.8-1.1-9.1-1.4-13.1-0.7c-6.3,1.1-11.2,4-14.6,8.6c-3.4,4.6-4.6,9.5-3.7,14.9
	C353.5,71.3,354.7,74,356.6,76.3z"/>
<path d="M424.1,49c1.4-2,3.1-3.3,5-4c1.5-0.5,4-0.7,7.5-0.7l9.1,0.1l-0.9,57.6c-0.1,4.2-0.5,6.9-1.3,8.1c-1.4,1.9-3.6,2.8-6.8,2.8
	H434v2.1l32,0.5v-2.1h-2.6c-2.9,0-5.1-0.9-6.5-2.4c-1-1.2-1.4-4.1-1.4-8.7l0.9-57.6l10.6,0.2c3.1,0.1,5.6,0.6,7.5,1.6
	s3.4,2.7,4.5,4.8c0.7,1.3,1.2,3.6,1.6,6.7h2.1l-0.6-17.7l-61.6-0.9l-1.2,17.7h2.1C421.8,53.6,422.7,50.9,424.1,49z"/>
<rect x="490.3" y="78.7" transform="matrix(0.1407 -0.9901 0.9901 0.1407 332.8012 569.5529)" width="8.4" height="28.8"/>
<path d="M564.9,137l12.2-17.7l-1.6-0.9c-3.2,3.9-6.1,6.6-8.5,8.1c-2.5,1.5-5,2.3-7.4,2.5c-2.5,0.1-6.5-0.6-12-2.3l-5.3-1.6
	c-4.6-1.4-7.4-2.5-8.1-3.1c-0.8-0.6-1.3-1.4-1.5-2.3c-0.2-1.3,0.1-3.4,1-6.3l13.9-45.3c1.3-4.3,2.4-6.9,3.3-7.9s2.3-1.6,4-1.9
	c1.8-0.3,4.6,0.2,8.4,1.4l0.6-2l-32.7-10l-0.6,2l2.7,0.8c2.7,0.8,4.6,2.2,5.5,4.2c0.6,1.4,0.3,4.4-1.1,8.9l-14.3,46.5
	c-1.3,4.1-2.4,6.6-3.5,7.5c-1.9,1.6-4.4,1.9-7.5,1l-2.7-0.8l-0.6,2L564.9,137z"/>
<path d="M573.8,139.1l-0.9,1.9l29.1,14.1l0.9-1.9l-2.5-1.2c-1.6-0.8-2.9-1.9-4-3.4c-0.8-1.1-1.1-2.2-1.1-3.2c0.1-1.3,1-3.7,2.7-7.1
	l21.3-43.8c2-4.1,3.6-6.4,5-7.1c2.1-1,4.5-0.9,7.2,0.5l2.5,1.2l0.9-1.9l-29.1-14.1l-0.9,1.9l2.4,1.2c1.6,0.8,2.9,1.9,4,3.4
	c0.7,1.1,1.1,2.2,1,3.1c-0.1,1.3-1,3.7-2.7,7.1l-21.3,43.8c-2,4.1-3.6,6.4-4.9,7.1c-2.1,1-4.5,0.8-7.3-0.5L573.8,139.1z"/>
<path d="M674.4,208.4l38.6,43.4l18.5-7.7l-1.5-1.7c-5.1,1.3-9.2,1.8-12.5,1.6c-2.5-0.2-4.6-0.8-6.3-1.8c-1.7-1-4-3.2-6.8-6.4
	l-8.5-9.6c-1.4-1.6-2.2-2.8-2.3-3.6c-0.2-0.8-0.1-1.6,0.3-2.3c0.3-0.7,1.8-2.2,4.3-4.4l18.6-16.5l11,12.4c2.1,2.4,3.4,4.3,3.8,6
	c0.5,1.6,0.4,3.1-0.1,4.5c-0.4,1.1-1.9,3-4.2,5.9l1.4,1.5l19.6-17.4l-1.4-1.5c-3.4,2.7-6.3,3.9-8.9,3.6c-1.9-0.2-4.3-1.9-7.2-5.2
	l-11-12.4l22.3-19.8l13.8,15.5c2.5,2.8,4,4.9,4.6,6.4c0.6,1.9,0.7,3.7,0.3,5.4s-1.9,4.1-4.4,7.4l1.4,1.6l11.8-11.6L731,158.3
	l-1.5,1.4l1.8,2c2.1,2.3,3,4.5,2.8,6.5c-0.2,1.5-2.1,3.8-5.7,7l-36.6,32.6c-2.7,2.4-4.7,3.9-5.9,4.4c-1.2,0.5-2.4,0.5-3.6,0
	c-2.6-1-6.7-4.8-6.7-4.8L674.4,208.4z"/>
<path d="M685,121.9l-1.2,1.7l1.4,1c1.5,1.1,2.4,2.1,2.6,3.1s0.1,1.8-0.4,2.5c-0.6,0.9-1.8,1.7-3.5,2.3c-3.8,1.4-13.2,3-28,4.7
	c-5.9,0.7-9.3,1.1-10.3,1.3l13.5-18.7c2.2-3,3.8-4.9,4.8-5.6c1.1-0.7,2.2-1,3.5-0.8c1.8,0.3,3.4,0.9,4.9,1.9l2.1,1.5l1.2-1.7
	l-26.1-18.8l-1.2,1.7l2.2,1.6c1.7,1,2.8,2.4,3.6,4c0.5,1.2,0.7,2.3,0.5,3.2c-0.4,1.3-1.6,3.5-3.9,6.6l-28.5,39.5
	c-2.6,3.7-4.7,5.7-6.1,6.2c-2.2,0.6-4.6,0.1-7.1-1.8l-2.2-1.6l-1.2,1.7l26.1,18.8l1.2-1.7l-2.1-1.5c-1.4-1-2.5-2.4-3.3-4
	c-0.6-1.2-0.7-2.3-0.5-3.3c0.3-1.3,1.6-3.5,3.8-6.6l14.2-19.7l6,36.1c0.5,2.7,0.6,4.5,0.5,5.2c-0.1,0.8-0.5,1.5-1,2.3
	c-0.5,0.7-1.4,1.1-2.6,1.1s-2.7-0.6-4.4-1.8l-1.2,1.7l29.1,21l1.2-1.7c-2.5-2.1-4.6-4.7-6.2-7.9s-3-8-4-14.4l-6.4-38.7l16-2.6
	c9.5-1.6,14.7-2.5,15.8-2.6c3.8-0.5,6.8-0.6,9.1-0.4c2.2,0.2,4,0.5,5.4,1c1.3,0.5,2.7,1.1,4,2.1l1.2-1.7L685,121.9z"/>
<path class="st1" d="M752.7,436.9l112.5,2.2c-0.1-13.5-0.9-27.1-2.3-40.8c-0.7-6.2-1.5-12.4-2.4-18.6l-111.3,15.4
	C751.2,408.7,752.4,422.7,752.7,436.9z"/>
<path class="st2" d="M136.1,442c0-3.9,0.1-7.8,0.2-11.6L24,424.8c-0.8,19.6-0.2,39.5,1.8,59.6l111.7-12
	C136.6,462.4,136.1,452.3,136.1,442z"/>
<path class="st2" d="M750.5,479l111.1,17.9c2.2-16.6,3.4-33.4,3.5-50.4l-112.4-2.2C752.6,456.1,751.9,467.6,750.5,479z"/>
<path class="st3" d="M748.3,390.1l111.3-15.4c-4.4-27.5-11.5-54.1-20.9-79.4L732.8,333C739.8,351.3,745,370.4,748.3,390.1z"/>
<path class="st4" d="M743.2,518.2l107.6,32.9c3.9-14.5,7-29.2,9.3-44.2l-111-17.9C747.6,498.8,745.7,508.6,743.2,518.2z"/>
<path d="M719.9,326.5c-15.1-35.8-36.8-67.9-64.3-95.4c-27.6-27.6-59.6-49.2-95.4-64.3c-37-15.6-76.3-23.6-116.8-23.6
	c-40.5,0-79.8,7.9-116.8,23.6c-35.7,15.1-67.8,36.7-95.4,64.3s-49.2,59.6-64.3,95.4c-15.6,37-23.6,76.3-23.6,116.8
	s7.9,79.8,23.6,116.8c15.1,35.7,36.7,67.8,64.3,95.4s59.6,49.2,95.4,64.3c37,15.6,76.3,23.6,116.8,23.6c40.5,0,79.8-7.9,116.8-23.6
	c35.7-15.1,67.8-36.7,95.4-64.3c27.6-27.6,49.2-59.6,64.3-95.4c15.6-37,23.6-76.3,23.6-116.8S735.6,363.5,719.9,326.5z M443.4,150.7
	c161.4,0,292.6,131.2,292.6,292.5c0,161.4-131.3,292.6-292.6,292.6c-161.3,0-292.6-131.2-292.6-292.6
	C150.8,281.9,282,150.7,443.4,150.7z M147.1,443.3C147.1,443.3,147.1,443.3,147.1,443.3L147.1,443.3
	C147.1,443.3,147.1,443.3,147.1,443.3z"/>
<path class="st1" d="M140.7,388.6L30.3,367.3c-2.9,16.4-4.9,33.1-5.9,50l112.3,5.6C137.4,411.3,138.8,399.8,140.7,388.6z"/>
<path class="st3" d="M150,350.1L43.5,314c-4.5,14.2-8.3,28.7-11.4,43.5l110.4,21.3C144.6,369,147.1,359.5,150,350.1z"/>
<path d="M486.7,308.9c-5.1,0-14.7-8.7-21.5-10.1c-0.6-0.1-1.3-0.2-2-0.3l6.1-135.2c0,0-22.9-9.6-51.9,0c0,17.2,7.6,94.3,8.6,135.4
	c-0.9,0.2-1.9,0.3-2.8,0.6c-2.9,0.7-5.8,11.4-8.8,12.4c-19.5,6.3-89.1,15.6-113.5-10.9c-7.1,1.7-7,73.7-2.6,77.4
	c6.3-3.3,58.9-29.5,108.1-12.9c11.1,3.7,15.1,13.2,18.6,12.6l-7.5,331.5c0,14.4,25.3,18.3,25.3,18.3s26.6-3.6,26.6-18.3
	c0-35.1-6.4-284.7-6.6-331.2c0.1,0,0.1,0,0.2,0c2.8,0.5,10.6-15.2,13.9-18.9c7.6-8.6,20.7-19,41-19.8c32.9-1.3,106.8,3.4,106.8,3.4
	l2.2-1.8C596.7,320.4,534.2,308.4,486.7,308.9z M423.8,372.7c-1.1-1.5-5.9-10.3-16.5-13.2c-10.6-2.9-70.1-12.3-102.9,6.5
	c-3.5-10.8-2-21.1-2-21.1h122.5c0,0,0,16.8,0,20.7c0,2.9,2.6,7.2,6.5,8.5C427.8,374.1,424.9,374.3,423.8,372.7z M421,700.6
	c0-6.7,3.8-182.8,6.4-263.6c0.8-24.7,1.4-46.7,1.8-56c1.3,1.8,4.8,1.9,4.8,1.9c-3.1,154.9-1.6,306.9,7.2,339.6
	C433.5,719.7,421,715.9,421,700.6z M455.5,293.3c-0.5-26,1.4-125.7-12.1-129.5c6.8,0,15.9,1.2,19.1,4.3c3.3,3.1-2.5,126.8-2.5,126.8
	S458.4,293.6,455.5,293.3z M621.4,339.4c-53.9-17.7-94.9-14.4-154.2-14.4c0-2.2-0.2-8.5-0.2-13.7c-0.1-5.3-2.3-9-5.9-10.1
	c4.9,0,8,4.6,9.4,6.3c4.6,5.5,5.6,9.6,11.5,9.3C487.1,316.7,571.8,313.4,621.4,339.4z"/>
<path d="M278.9,301.2c-6.1,0-6.1,76.9,0,76.9c3.1,0,15.1,0,15.1,0c-4.5-28.2-3-52.4,0-76.9C294,301.2,282.3,301.2,278.9,301.2z
	 M279.7,371.3c-1.6-4-1.6-14.9-1.9-26.3h10c0,0-1.3,14.6,2.2,26.3H279.7z"/>
<path class="st4" d="M138.1,477.4l-111.7,12c3,27,8.6,53,16.4,78l107.1-34.1C144.3,515.2,140.3,496.6,138.1,477.4z"/>
</svg>
