<?xml version="1.0" encoding="utf-8"?>
<!-- Generator: Adobe Illustrator 23.0.1, SVG Export Plug-In . SVG Version: 6.00 Build 0)  -->
<svg version="1.1" id="Layer_1" xmlns="http://www.w3.org/2000/svg" xmlns:xlink="http://www.w3.org/1999/xlink" x="0px" y="0px"
	 viewBox="0 0 8192 8192" style="enable-background:new 0 0 8192 8192;" xml:space="preserve">
<style type="text/css">
	.st0{fill:#BFBFBF;}
	.st1{fill:#808080;}
	.st2{fill:#DFDFDF;}
	.st3{fill:#404040;}
</style>
<path d="M4503.2,4042.2c-22.3-52.8-54.3-100.2-95-140.9s-88.1-72.7-140.9-95c-54.6-23.1-112.7-34.8-172.5-34.8
	s-117.9,11.7-172.5,34.8c-52.8,22.3-100.2,54.3-140.9,95c-40.7,40.7-72.7,88.1-95,140.9c-23.1,54.6-34.8,112.7-34.8,172.5
	s11.7,117.9,34.8,172.5c22.3,52.8,54.3,100.2,95,140.9c40.7,40.7,88.1,72.7,140.9,95c54.6,23.1,112.7,34.8,172.5,34.8
	s117.9-11.7,172.5-34.8c52.8-22.3,100.2-54.3,140.9-95c40.7-40.7,72.7-88.1,95-140.9c23.1-54.6,34.8-112.7,34.8-172.5
	S4526.3,4096.9,4503.2,4042.2z M4094.8,4645.7c-237.6,0-430.9-193.3-430.9-430.9c0-237.6,193.3-430.9,430.9-430.9
	c237.6,0,430.9,193.3,430.9,430.9C4525.7,4452.4,4332.4,4645.7,4094.8,4645.7z"/>
<path d="M3883.1,4506.9c4.2-0.3,7.6-2.1,10.1-5.5c2.5-3.3,3.4-6.8,2.9-10.4c-0.5-3.6-2.5-6.7-5.9-9.3c-1.5-1.1-3.8-2.4-6.7-3.8
	l-16.4,22.1c0.5,0.4,0.9,0.7,1.3,1c0.4,0.3,0.6,0.5,0.9,0.7C3874.3,4505.4,3878.9,4507.1,3883.1,4506.9z"/>
<path d="M3942.4,4514.9c-1.5-0.8-3.5-1.4-6.1-2.1l-12.4,24.6c1.4,1.1,2.6,2,3.8,2.7c1.1,0.8,2.1,1.3,2.9,1.8c3,1.5,6.2,1.7,9.6,0.5
	c3.4-1.2,6-3.7,7.9-7.4c1.3-2.6,2-5.2,2-7.9c0.1-2.7-0.6-5.1-2-7.2C3946.8,4517.8,3944.9,4516.1,3942.4,4514.9z"/>
<polygon points="3809,4454.7 3824.2,4471.5 3836.5,4445.3 "/>
<path d="M4190,4553.2c-1-4-3.1-7-6.2-8.9s-6.8-2.3-10.9-1.3c-1.8,0.5-4.2,1.4-7.2,2.8l6.6,26.7c0.6-0.2,1.1-0.3,1.6-0.4
	c0.4-0.1,0.8-0.2,1.1-0.3c6.1-1.5,10.4-4,12.9-7.4C4190.3,4561.1,4191,4557.3,4190,4553.2z"/>
<path d="M4096,4521.8c-136.8,0-252.9-89.2-293.1-212.5l-107,34.5c60,184.9,242.8,309.2,443.9,288.2
	c173-18.1,310.4-138.6,358.5-294.9l-107.5-32.9C4352.1,4430.2,4234.7,4521.8,4096,4521.8z M3753.3,4423.4
	c-5.7-9.4-6.6-18.8-2.7-28.1c2.9-7,7.8-12.6,14.8-16.8c5.7-3.4,11.6-5.3,17.9-5.6c6.3-0.3,12,1,17.3,3.8c5.3,2.9,9.5,7,12.7,12.2
	c2.5,4.1,3.9,8.7,4.3,13.9c0.1,1.5,0.3,2.6,0.6,3.1c0.5,0.8,1.1,1.3,2,1.5c1.2,0.3,2.5,0.2,4.1-0.3l0.9,1.5l-18.5,12.9l-0.8-1.3
	c4.7-5.2,7.4-10.2,8-14.9c0.6-4.7-0.4-9.4-3.2-13.8c-2.3-3.8-5.3-6.6-9-8.5c-3.7-1.9-8.2-2.4-13.5-1.7c-5.2,0.8-11,3-17.2,6.8
	c-5.1,3.1-9.1,6.6-11.9,10.5c-2.8,3.9-4.2,8.1-4.2,12.6c0,4.5,1.3,8.9,3.8,13.1c2.2,3.7,5,6.5,8.2,8.3c3.3,1.9,8.3,3.1,15,3.6
	l-0.1,1.8c-6.8,0.2-12.5-0.9-17.1-3.3C3760.4,4432.4,3756.5,4428.6,3753.3,4423.4z M3824.4,4507.4l-1.3,1.2l-17.5-19.4l1.3-1.2
	c1.9,1.9,3.4,2.9,4.6,3.1c1.2,0.2,2.2-0.1,3-0.8c1.1-1,2.3-3,3.7-6l4.4-9.4l-17.2-19l-10.8,3.7c-2.7,0.9-4.4,1.8-5.4,2.6
	c-0.8,0.7-1.1,1.6-1,2.9c0.1,1.2,1.1,3.1,3.1,5.6l-1.3,1.2l-14-15.5l1.3-1.2c2.2,1.7,3.9,2.6,5,2.7c2.3,0.2,5.9-0.6,10.8-2.3
	l56-19.3l1.1,1.3l-25.4,54.1c-2,4.4-3,7.5-3,9.5C3821.8,4503.3,3822.7,4505.3,3824.4,4507.4z M3880.1,4546.4c0.9,2.5,2.8,5,5.4,7.4
	l-1.1,1.4l-14.2-10.6l0.5-38.2c-1.4-0.9-2.5-1.7-3.3-2.3c-0.3-0.3-0.7-0.5-1.1-0.8c-0.4-0.3-0.8-0.6-1.2-1l-11.5,15.4
	c-2.5,3.3-3.7,5.7-3.5,7c0.1,1.9,1.2,3.6,3.2,5l2.1,1.5l-1.1,1.5l-22.8-16.9l1.1-1.5l2,1.5c2.2,1.7,4.4,2.1,6.5,1.4
	c1.1-0.4,2.9-2.1,5.1-5.1l25.5-34.3c2.5-3.3,3.7-5.7,3.5-7c-0.2-1.9-1.3-3.6-3.3-5.1l-2-1.5l1.1-1.5l19.4,14.4
	c5.6,4.2,9.5,7.7,11.6,10.5c2.1,2.8,3.2,6,3.4,9.6c0.2,3.6-0.8,6.9-3.1,10c-2.4,3.3-5.6,5.3-9.5,6.1c-3.9,0.8-8.5,0.1-13.7-2.3
	l-0.4,23.4C3878.8,4540,3879.2,4544,3880.1,4546.4z M3931.9,4546.1c-1.4-0.7-2.9-1.6-4.5-2.6c-1.6-1-3.2-2.2-4.9-3.6l-8.7,17.2
	c-1.9,3.7-2.6,6.2-2.3,7.5c0.5,1.8,1.8,3.3,4,4.5l2.3,1.1l-0.8,1.6l-25.3-12.8l0.8-1.6l2.2,1.1c2.5,1.3,4.7,1.4,6.6,0.3
	c1-0.6,2.4-2.6,4.1-6l19.3-38.2c1.9-3.7,2.7-6.2,2.3-7.5c-0.5-1.9-1.8-3.3-4.1-4.5l-2.2-1.1l0.8-1.6l21.7,11c5.3,2.7,9.2,5.3,11.7,8
	c2.5,2.6,4.1,5.8,4.9,9.4c0.8,3.6,0.3,7.2-1.5,10.8c-2.4,4.8-6,7.9-10.7,9.4C3943,4549.8,3937.7,4549.1,3931.9,4546.1z
	 M4011.4,4552.7c0.4-3.5,0.4-6,0-7.5c-0.4-1.5-1.3-2.8-2.6-4c-1.1-0.9-3.2-1.8-6.3-2.8l-17.3-5.5l-7.9,24.9l13.9,4.4
	c3.6,1.1,6.2,1.4,7.7,0.7c2.1-0.9,3.8-3.1,5.1-6.7l1.7,0.5l-7,22l-1.7-0.5c0.5-3.2,0.7-5.3,0.6-6.3c-0.2-1.3-0.9-2.4-1.9-3.4
	c-1.1-1-2.9-2-5.6-2.8l-13.9-4.4l-6.6,20.8c-0.9,2.8-1.3,4.5-1.3,5.2c0.1,0.7,0.3,1.3,0.8,1.9c0.5,0.6,1.6,1.1,3.4,1.7l10.7,3.4
	c3.6,1.1,6.2,1.7,8,1.7c1.8,0,3.6-0.5,5.6-1.5c2.5-1.3,5.4-3.6,8.7-6.8l1.9,0.6l-10.5,14.1l-48.6-15.5l0.6-1.7l2.2,0.7
	c1.5,0.5,3,0.6,4.6,0.3c1.1-0.2,2.1-0.7,2.7-1.6c0.7-0.9,1.5-2.9,2.5-5.9l13.1-41c1.3-4,1.7-6.6,1.1-7.8c-0.7-1.6-2.4-2.8-5-3.6
	l-2.2-0.7l0.6-1.7l48.6,15.5l-3.7,14L4011.4,4552.7z M4090.3,4551.7l-2.3-0.3c-2.8-0.3-4.9,0.3-6.2,1.8c-0.8,0.9-1.5,3.3-1.9,6.9
	l-6.8,55.4l-1.7-0.2l-36.8-58.2l-5,40.5c-0.5,4-0.4,6.6,0.4,7.7c1.1,1.5,2.9,2.4,5.4,2.7l2.3,0.3l-0.2,1.8l-22.9-2.8l0.2-1.8
	l2.3,0.3c2.8,0.3,4.9-0.3,6.3-1.8c0.8-0.9,1.5-3.3,1.9-6.9l5.6-45.7c-1.6-2.5-2.9-4.1-3.8-4.9c-0.9-0.8-2.3-1.7-4.1-2.5
	c-0.9-0.4-2.3-0.7-4.2-1l0.2-1.8l17.8,2.2l34.1,54.2l4.7-37.9c0.5-4,0.4-6.6-0.4-7.7c-1-1.5-2.8-2.4-5.4-2.7l-2.3-0.3l0.2-1.8
	l22.9,2.8L4090.3,4551.7z M4145.3,4561.2c-0.5-2.7-1.1-4.6-1.8-5.8c-1.1-1.8-2.6-3.1-4.3-3.9c-1.7-0.8-4-1.1-6.7-0.9l-9.3,0.6
	l3.3,50.5c0.3,4.1,0.9,6.6,1.8,7.5c1.3,1.3,3.3,1.8,5.8,1.7l2.3-0.1l0.1,1.8l-28,1.8l-0.1-1.8l2.3-0.2c2.8-0.2,4.7-1.2,5.8-2.9
	c0.6-1.1,0.9-3.5,0.6-7.2l-3.3-50.5l-7.9,0.5c-3.1,0.2-5.3,0.6-6.5,1.1c-1.6,0.7-3,2-4.1,3.8c-1.1,1.8-1.6,4.3-1.7,7.3l-1.9,0.1
	l-0.2-15.5l53.9-3.5l1.7,15.4L4145.3,4561.2z M4209,4598.5l-29.2-24.6c-1.6,0.5-2.9,0.8-3.9,1.1c-0.4,0.1-0.9,0.2-1.3,0.3
	s-1,0.2-1.5,0.3l4.6,18.7c1,4,2.1,6.4,3.2,7.2c1.5,1.1,3.5,1.3,5.9,0.7l2.5-0.6l0.4,1.8l-27.5,6.8l-0.4-1.8l2.4-0.6
	c2.7-0.7,4.4-2,5.2-4.1c0.4-1.1,0.2-3.5-0.7-7.2l-10.3-41.5c-1-4-2.1-6.4-3.2-7.2c-1.6-1.1-3.6-1.3-6-0.7l-2.4,0.6l-0.4-1.8
	l23.4-5.8c6.8-1.7,12-2.5,15.5-2.3c3.5,0.2,6.7,1.3,9.6,3.5c2.9,2.1,4.8,5,5.8,8.7c1,4,0.5,7.7-1.3,11.2c-1.9,3.5-5.3,6.6-10.4,9.1
	l17.9,15.1c4.1,3.5,7.4,5.6,9.9,6.5c2.5,0.9,5.6,1,9.2,0.5l0.4,1.8L4209,4598.5z M4247.2,4585.1l-0.7-1.6l2.1-1
	c2.6-1.1,4-2.7,4.4-4.8c0.2-1.2-0.4-3.6-1.9-6.9l-6.4-14.3l-27.9-17.9c-3.3-2.1-5.5-3.4-6.5-3.8c-1-0.4-2.9-0.7-5.5-0.7
	c-0.7,0-1.7,0.2-2.8,0.7l-0.7-1.6l25.9-11.6l0.7,1.6l-1.3,0.6c-1.4,0.6-2.5,1.5-3.4,2.7c-0.9,1.2-1,2.4-0.4,3.7
	c0.5,1.1,2.3,2.6,5.3,4.6l21.3,13.8l3.5-23.9c0.5-3.6,0.5-6.1-0.1-7.4c-0.4-0.8-0.9-1.5-1.6-1.9s-1.6-0.7-2.5-0.7
	c-1,0-2.3,0.3-3.9,1.1l-0.7-1.6l21.1-9.4l0.7,1.7l-1.2,0.5c-0.8,0.3-1.8,1.2-2.9,2.5c-1.2,1.4-2.1,2.9-2.7,4.8
	c-0.6,1.8-1.2,4.6-1.7,8.3l-4.3,29.5l6.8,15.2c1.7,3.7,3.1,5.8,4.4,6.4c1.7,0.7,3.8,0.6,6.2-0.5l2-0.9l0.7,1.6L4247.2,4585.1z
	 M4321.9,4546.2l-1.1-1.4l2-1.5c2.2-1.7,3.2-3.7,3-5.9c-0.1-1.2-1.3-3.4-3.7-6.3l-26.4-33.6c-2.5-3.3-4.5-5-5.9-5.3
	c-1.9-0.3-3.8,0.3-5.8,1.8l-2,1.5l-1.1-1.4l23.6-18.5l1.1,1.4c-2.8,2.1-4.5,3.9-5.2,5.3c-0.7,1.4-0.9,2.7-0.7,3.8
	c0.2,1.1,1.6,3.3,4,6.4l25.7,32.7c1.7,2.1,3,3.4,4,3.9c0.7,0.3,1.5,0.3,2.4,0.1c0.8-0.2,2.9-1.7,6.3-4.3l3.8-3
	c4-3.1,6.6-5.6,7.7-7.5c1.2-1.9,1.8-4.1,2-6.6c0.2-2.5-0.4-6-1.6-10.2l1.5-0.7l6.6,17.6L4321.9,4546.2z M4375.1,4503.2l-1.3-1.2
	l1.7-1.9c1.9-2.1,2.5-4.2,2-6.3c-0.3-1.2-1.9-3.1-4.7-5.6l-31.7-28.6c-3.1-2.8-5.3-4.2-6.7-4.2c-1.9,0-3.7,0.9-5.4,2.8l-1.7,1.9
	l-1.3-1.2l20.1-22.3l1.3,1.2c-2.4,2.6-3.8,4.6-4.2,6.1c-0.4,1.5-0.5,2.8,0,3.9c0.4,1.1,2.1,2.9,5,5.6l30.9,27.9
	c2,1.8,3.6,2.9,4.7,3.1c0.8,0.2,1.5,0.1,2.3-0.3c0.8-0.4,2.6-2.2,5.5-5.3l3.2-3.6c3.4-3.8,5.5-6.7,6.3-8.7c0.8-2,1.1-4.3,0.8-6.8
	c-0.3-2.5-1.4-5.8-3.3-9.8l1.3-1l9.5,16.2L4375.1,4503.2z M4395,4371.4c-0.3-1.2-1-2.3-2.2-3.5l0.9-1.4l19.9,10.6l-0.8,1.3
	c-6.8-1.8-12.4-1.9-16.9-0.3s-8.1,4.7-10.9,9.1c-2.3,3.7-3.5,7.7-3.4,11.9c0,4.2,1.6,8.4,4.7,12.7c3.1,4.3,7.7,8.4,13.9,12.2
	c5.1,3.2,10,5.1,14.8,5.8c4.7,0.7,9.1,0,13.2-2c4-2,7.3-5.2,9.9-9.4c2.3-3.6,3.5-7.4,3.6-11.1s-1-8.8-3.6-15l1.6-0.8
	c3.3,5.9,4.9,11.5,4.9,16.7s-1.6,10.4-4.8,15.6c-5.8,9.3-13.7,14.4-23.8,15.2c-7.5,0.6-14.8-1.2-21.7-5.5c-5.6-3.5-10-7.9-13.1-13.4
	c-3.1-5.4-4.6-11.2-4.5-17.2c0.1-6,1.8-11.6,5.1-16.9c2.5-4.1,6-7.5,10.5-10.2c1.3-0.8,2.1-1.4,2.5-1.9
	C4395,4373.1,4395.2,4372.3,4395,4371.4z"/>
<path d="M3834.3,4020.8c4.1-5.6,6.3-11.4,6.7-17.3c0.4-5.9-1-12.4-4.2-19.4l-1.9,0.7c2.4,7.3,3.4,13.1,2.9,17.3
	c-0.5,4.3-2.2,8.4-5,12.3c-3.3,4.6-7.3,7.9-12.1,9.8c-4.7,2-9.8,2.4-15.1,1.3c-5.3-1.2-10.8-3.7-16.3-7.7c-6.7-4.8-11.6-9.8-14.8-15
	c-3.1-5.1-4.6-10.1-4.3-14.9s1.9-9.2,4.9-13.2c3.5-4.8,7.9-8,13.1-9.5c5.2-1.5,11.6-0.9,19.2,1.7l1-1.4l-21.8-13.6l-1.1,1.6
	c1.2,1.4,1.9,2.7,2.2,4.1c0.1,1-0.1,1.9-0.7,2.7c-0.4,0.5-1.4,1.2-2.9,2c-5.3,2.7-9.5,6.3-12.7,10.7c-4.1,5.7-6.5,11.9-7.1,18.8
	c-0.7,6.8,0.6,13.5,3.7,19.9c3.1,6.4,7.7,11.9,13.8,16.3c7.6,5.5,15.7,8.2,24.2,8.1C3817.6,4036,3827,4030.9,3834.3,4020.8z"/>
<path d="M3805.9,3935.6c1.3-1.2,2.9-2,4.7-2.4c1.3-0.3,2.4-0.1,3.3,0.3c1.2,0.6,3,2.4,5.6,5.3l32,36.7c3,3.4,4.5,5.9,4.6,7.3
	c0.1,2.3-1,4.5-3.3,6.5l-2,1.8l1.4,1.5l24.4-21.2l-1.4-1.6l-2.1,1.8c-1.3,1.2-2.9,1.9-4.7,2.3c-1.3,0.3-2.4,0.2-3.3-0.3
	c-1.2-0.6-3-2.4-5.5-5.2l-15.1-17.3l26.4-23l15.1,17.3c3,3.4,4.5,5.9,4.6,7.4c0.1,2.3-1,4.5-3.3,6.5l-2,1.8l1.4,1.5l24.3-21.2
	l-1.4-1.6l-2,1.8c-1.3,1.2-2.9,2-4.7,2.4c-1.3,0.3-2.4,0.1-3.3-0.3c-1.2-0.6-3-2.4-5.5-5.2l-32-36.7c-2.4-2.8-3.9-4.8-4.4-6
	c-0.5-1.2-0.5-2.4,0.1-3.6c0.6-1.7,1.6-3.1,3-4.3l2-1.8l-1.4-1.5l-24.3,21.2l1.4,1.5l2-1.8c1.3-1.2,2.9-1.9,4.7-2.3
	c1.3-0.3,2.4-0.2,3.3,0.3c1.2,0.6,3,2.4,5.6,5.3l14.2,16.3l-26.4,23l-14.2-16.3c-2.4-2.8-3.9-4.8-4.3-6s-0.4-2.4,0-3.6
	c0.6-1.7,1.6-3.1,3-4.3l2.1-1.8l-1.4-1.6l-24.4,21.2l1.4,1.6L3805.9,3935.6z"/>
<path d="M3879.4,3875.4c2.5-1.3,4.8-1.6,6.8-0.9c1.5,0.5,3.3,2.9,5.5,7.1l22.8,43.1c2,3.8,2.9,6.4,2.8,7.8c-0.2,2.5-1.8,4.5-4.6,6
	l-2.5,1.3l1,1.8l28.6-15.1l-1-1.8l-2.6,1.4c-2.5,1.3-4.7,1.6-6.8,0.8c-1.5-0.5-3.3-2.9-5.5-7.1l-10.3-19.4c0.5-0.2,1.1-0.5,1.6-0.7
	c0.5-0.2,1-0.5,1.4-0.7c1.1-0.6,2.4-1.3,4-2.3l39.1,19.2l16.9-8.9l-0.1-0.2l0.9-0.3l-0.9-1.8c-3.8,1.5-7.3,2.2-10.3,1.9
	s-7.3-1.7-12.7-4.5l-23.9-11.8c4.9-4.2,8-8.5,9-13c1.1-4.4,0.5-8.7-1.6-12.8c-2-3.8-4.9-6.5-8.8-8s-7.7-1.9-11.6-1.2
	c-3.9,0.8-9.4,3-16.5,6.7l-24.3,12.9l1,1.8L3879.4,3875.4z M3904.6,3864.5c4.3-2.3,8.4-2.8,12.4-1.6c4,1.2,7.1,3.9,9.3,8.1
	c2.3,4.3,2.5,8.6,0.7,13.1c-1.8,4.5-5.8,8.4-12.2,11.7c-0.3,0.2-0.7,0.3-1.1,0.6c-0.5,0.2-1,0.5-1.6,0.8l-14.7-27.7
	C3900.3,3867.2,3902.7,3865.5,3904.6,3864.5z"/>
<path d="M3976.6,3906.9l0.6,1.7l30.7-10.2l-0.7-2l-2.6,0.9c-1.7,0.6-3.4,0.7-5.2,0.3c-1.3-0.3-2.3-0.8-3-1.5c-0.8-1-1.9-3.3-3.1-7
	L3978,3843c-1.4-4.3-1.9-7.1-1.4-8.6c0.8-2.2,2.6-3.7,5.5-4.7l2.6-0.9l-0.6-1.9l-30.7,10.2l0.7,2l2.5-0.8c1.7-0.6,3.4-0.7,5.3-0.4
	c1.3,0.3,2.3,0.8,2.9,1.6c0.8,1,1.9,3.3,3.1,7l15.4,46.2c1.4,4.3,1.9,7.1,1.4,8.6c-0.8,2.2-2.6,3.7-5.6,4.7l-1.6,0.5l0,0.1
	L3976.6,3906.9z"/>
<polygon points="3976.6,3906.9 3977.5,3906.5 3977.5,3906.4 3976.6,3906.7 "/>
<path d="M4008.2,3847.8c1.8,2.3,4.3,4.3,7.4,5.9c3.1,1.6,8.1,3.7,15.1,6.1c7,2.4,11.3,4.1,12.9,4.9c2.4,1.2,4.3,2.7,5.6,4.4
	c1.3,1.7,2.2,3.4,2.5,5.3c0.6,3.3-0.2,6.4-2.4,9.3c-2.2,2.9-5.6,4.7-10.2,5.5c-3.9,0.7-7.7,0.5-11.3-0.7c-3.6-1.2-6.5-2.9-8.5-5.3
	c-2.1-2.4-4.1-6.1-6-11.3l-2,0.4l4.6,25.5l2-0.4c-0.1-1.8,0.1-3,0.6-3.6c0.4-0.6,1.1-1,2-1.2c0.9-0.2,3.3,0,7.1,0.5
	c3.8,0.5,6.2,0.8,7.4,0.7c2,0,4-0.2,6.2-0.6c6.9-1.2,12.1-4.3,15.7-9.1s5-10.1,3.9-15.7c-0.5-3-1.7-5.7-3.6-8.1
	c-1.9-2.5-4.2-4.5-7.1-6c-2.9-1.5-8.1-3.5-15.7-6c-9.3-3-15.4-5.7-18.1-8.1c-1.9-1.6-3.1-3.5-3.5-5.8c-0.5-3,0.2-5.8,2.3-8.6
	c2.1-2.8,5-4.5,8.8-5.2c3.4-0.6,6.8-0.3,10.2,0.8c3.4,1.2,6.3,3,8.5,5.7c2.2,2.6,4.1,6.3,5.6,11.1l2-0.4l-4.6-25.7l-2,0.4
	c-0.1,1.8-0.3,3-0.8,3.7c-0.5,0.7-1.2,1.1-2.2,1.3c-0.8,0.2-2.4,0-4.6-0.6c-4.8-1.1-9.1-1.4-13.1-0.7c-6.3,1.1-11.2,4-14.6,8.6
	c-3.4,4.6-4.6,9.5-3.7,14.9C4005.1,3842.8,4006.3,3845.5,4008.2,3847.8z"/>
<path d="M4075.7,3820.5c1.4-2,3.1-3.3,5-4c1.5-0.5,4-0.7,7.5-0.7l9.1,0.1l-0.9,57.6c-0.1,4.2-0.5,6.9-1.3,8.1
	c-1.4,1.9-3.6,2.8-6.8,2.8l-2.7,0l0,2.1l32,0.5l0-2.1l-2.6,0c-2.9,0-5.1-0.9-6.5-2.4c-1-1.2-1.4-4.1-1.4-8.7l0.9-57.6l10.6,0.2
	c3.1,0.1,5.6,0.6,7.5,1.6c1.9,1,3.4,2.7,4.5,4.8c0.7,1.3,1.2,3.6,1.6,6.7l2.1,0l-0.6-17.7l-61.6-0.9l-1.2,17.7l2.1,0
	C4073.4,3825.1,4074.3,3822.4,4075.7,3820.5z"/>
<rect x="4141.6" y="3850.2" transform="matrix(0.1407 -0.9901 0.9901 0.1407 -263.5475 7425.5649)" width="8.4" height="28.8"/>
<path d="M4216.5,3908.5l12.2-17.7l-1.6-0.9c-3.2,3.9-6.1,6.6-8.5,8.1c-2.5,1.5-5,2.3-7.4,2.5c-2.5,0.1-6.5-0.6-12-2.3l-5.3-1.6
	c-4.6-1.4-7.4-2.5-8.1-3.1c-0.8-0.6-1.3-1.4-1.5-2.3c-0.2-1.3,0.1-3.4,1-6.3l13.9-45.3c1.3-4.3,2.4-6.9,3.3-7.9c0.9-1,2.3-1.6,4-1.9
	c1.8-0.3,4.6,0.2,8.4,1.4l0.6-2l-32.7-10l-0.6,2l2.7,0.8c2.7,0.8,4.6,2.2,5.5,4.2c0.6,1.4,0.3,4.4-1.1,8.9l-14.3,46.5
	c-1.3,4.1-2.4,6.6-3.5,7.5c-1.9,1.6-4.4,1.9-7.5,1l-2.7-0.8l-0.6,2L4216.5,3908.5z"/>
<path d="M4225.4,3910.6l-0.9,1.9l29.1,14.1l0.9-1.9l-2.5-1.2c-1.6-0.8-2.9-1.9-4-3.4c-0.8-1.1-1.1-2.2-1.1-3.2
	c0.1-1.3,1-3.7,2.7-7.1l21.3-43.8c2-4.1,3.6-6.4,5-7.1c2.1-1,4.5-0.9,7.2,0.5l2.5,1.2l0.9-1.9l-29.1-14.1l-0.9,1.9l2.4,1.2
	c1.6,0.8,2.9,1.9,4,3.4c0.7,1.1,1.1,2.2,1,3.1c-0.1,1.3-1,3.7-2.7,7.1l-21.3,43.8c-2,4.1-3.6,6.4-4.9,7.1c-2.1,1-4.5,0.8-7.3-0.5
	L4225.4,3910.6z"/>
<path d="M4304.3,3871.8c0.5,1.2,0.7,2.3,0.5,3.2c-0.4,1.3-1.6,3.5-3.9,6.6l-28.5,39.5c-2.6,3.7-4.7,5.7-6.1,6.2
	c-2.2,0.6-4.6,0.1-7.1-1.8l-2.2-1.6l-1.2,1.7l26.1,18.8l1.2-1.7l-2.1-1.5c-1.4-1-2.5-2.4-3.3-4c-0.6-1.2-0.7-2.3-0.5-3.3
	c0.3-1.3,1.6-3.5,3.8-6.6l14.2-19.7l6,36.1c0.5,2.7,0.6,4.5,0.5,5.2c-0.1,0.8-0.5,1.5-1,2.3c-0.5,0.7-1.4,1.1-2.6,1.1
	c-1.2,0-2.7-0.6-4.4-1.8l-1.2,1.7l27.2,19.6l0.9-0.8l1.4,1.6l0.8-1.1c-2.5-2.1-4.6-4.7-6.2-7.9s-3-8-4-14.4l-6.4-38.7l16-2.6
	c9.5-1.6,14.7-2.5,15.8-2.6c3.8-0.5,6.8-0.6,9.1-0.4c2.2,0.2,4,0.5,5.4,1c1.3,0.5,2.7,1.1,4,2.1l1.2-1.7l-22.5-16.2l-1.2,1.7l1.4,1
	c1.5,1.1,2.4,2.1,2.6,3.1s0.1,1.8-0.4,2.5c-0.6,0.9-1.8,1.7-3.5,2.3c-3.8,1.4-13.2,3-28,4.7c-5.9,0.7-9.3,1.1-10.3,1.3l13.5-18.7
	c2.2-3,3.8-4.9,4.8-5.6c1.1-0.7,2.2-1,3.5-0.8c1.8,0.3,3.4,0.9,4.9,1.9l2.1,1.5l1.2-1.7l-26.1-18.8l-1.2,1.7l2.2,1.6
	C4302.4,3868.8,4303.5,3870.2,4304.3,3871.8z"/>
<path d="M4319.9,3971.9l-0.6,0.5l38.6,43.4l18.5-7.7l-1.5-1.7c-5.1,1.3-9.2,1.8-12.5,1.6c-2.5-0.2-4.6-0.8-6.3-1.8
	c-1.7-1-4-3.2-6.8-6.4l-8.5-9.6c-1.4-1.6-2.2-2.8-2.3-3.6c-0.2-0.8-0.1-1.6,0.3-2.3c0.3-0.7,1.8-2.2,4.3-4.4l18.6-16.5l11,12.4
	c2.1,2.4,3.4,4.3,3.8,6c0.5,1.6,0.4,3.1-0.1,4.5c-0.4,1.1-1.9,3-4.2,5.9l1.4,1.5l19.6-17.4l-1.4-1.5c-3.4,2.7-6.3,3.9-8.9,3.6
	c-1.9-0.2-4.3-1.9-7.2-5.2l-11-12.4l22.3-19.8l13.8,15.5c2.5,2.8,4,4.9,4.6,6.4c0.6,1.9,0.7,3.7,0.3,5.4s-1.9,4.1-4.4,7.4l1.4,1.6
	l11.8-11.6l-38.6-43.4l-1.5,1.4l1.8,2c2.1,2.3,3,4.5,2.8,6.5c-0.2,1.5-2.1,3.8-5.7,7l-36.6,32.6c-2.7,2.4-4.7,3.9-5.9,4.4
	c-1.2,0.5-2.4,0.5-3.6,0c-1.7-0.6-3.1-1.6-4.3-2.9l-0.4-0.4l-0.4,0.6L4319.9,3971.9z"/>
<polygon points="4319.9,3971.9 4321.8,3973.3 4322.2,3972.7 4320.8,3971.1 "/>
<path class="st0" d="M4404.3,4208.4l112.5,2.2c-0.1-13.5-0.9-27.1-2.3-40.8c-0.7-6.2-1.5-12.4-2.4-18.6l-111.3,15.4
	C4402.8,4180.2,4404,4194.2,4404.3,4208.4z"/>
<path class="st1" d="M3787.7,4213.5c0-3.9,0.1-7.8,0.2-11.6l-112.3-5.6c-0.8,19.6-0.2,39.5,1.8,59.6l111.7-12
	C3788.2,4233.9,3787.7,4223.8,3787.7,4213.5z"/>
<path class="st1" d="M4402.1,4250.5l111.1,17.9c2.2-16.6,3.4-33.4,3.5-50.4l-112.4-2.2C4404.2,4227.6,4403.5,4239.1,4402.1,4250.5z"
	/>
<path class="st2" d="M4399.9,4161.6l111.3-15.4c-4.4-27.5-11.5-54.1-20.9-79.4l-105.9,37.7
	C4391.4,4122.8,4396.6,4141.9,4399.9,4161.6z"/>
<path class="st3" d="M4394.8,4289.7l107.6,32.9c3.9-14.5,7-29.2,9.3-44.2l-111-17.9C4399.2,4270.3,4397.3,4280.1,4394.8,4289.7z"/>
<path d="M4307.2,4002.6c-27.6-27.6-59.6-49.2-95.4-64.3c-37-15.6-76.3-23.6-116.8-23.6c-40.5,0-79.8,7.9-116.8,23.6
	c-35.7,15.1-67.8,36.7-95.4,64.3s-49.2,59.6-64.3,95.4c-15.6,37-23.6,76.3-23.6,116.8c0,40.5,7.9,79.8,23.6,116.8
	c15.1,35.7,36.7,67.8,64.3,95.4c27.6,27.6,59.6,49.2,95.4,64.3c37,15.6,76.3,23.6,116.8,23.6c40.5,0,79.8-7.9,116.8-23.6
	c35.7-15.1,67.8-36.7,95.4-64.3c27.6-27.6,49.2-59.6,64.3-95.4c15.6-37,23.6-76.3,23.6-116.8c0-40.5-7.9-79.8-23.6-116.8
	C4356.4,4062.2,4334.7,4030.1,4307.2,4002.6z M4095,4511.1c-163.6,0-296.3-132.7-296.3-296.3c0-163.6,132.7-296.3,296.3-296.3
	c163.6,0,296.3,132.7,296.3,296.3C4391.3,4378.4,4258.7,4511.1,4095,4511.1z"/>
<path d="M4095,3918.5c-163.6,0-296.3,132.7-296.3,296.3c0,163.6,132.7,296.3,296.3,296.3c163.6,0,296.3-132.7,296.3-296.3
	C4391.3,4051.1,4258.7,3918.5,4095,3918.5z M4095,4507.3c-161.3,0-292.6-131.2-292.6-292.6c0-161.3,131.2-292.5,292.6-292.5
	s292.6,131.2,292.6,292.5C4387.6,4376.1,4256.3,4507.3,4095,4507.3z"/>
<path class="st0" d="M3792.3,4160.1l-110.4-21.3c-2.9,16.4-4.9,33.1-5.9,50l112.3,5.6C3789,4182.8,3790.4,4171.3,3792.3,4160.1z"/>
<path class="st2" d="M3801.6,4121.6l-106.5-36.1c-4.5,14.2-8.3,28.7-11.4,43.5l110.4,21.3C3796.2,4140.5,3798.7,4131,3801.6,4121.6z
	"/>
<path d="M4138.3,4080.4c-5.1,0-14.7-8.7-21.5-10.1c-0.6-0.1-1.3-0.2-2-0.3l6.1-135.2c0,0-22.9-9.6-51.9,0c0,17.2,7.6,94.3,8.6,135.4
	c-0.9,0.2-1.9,0.3-2.8,0.6c-2.9,0.7-5.8,11.4-8.8,12.4c-19.5,6.3-89.1,15.6-113.5-10.9c-7.1,1.7-7,73.7-2.6,77.4
	c6.3-3.3,58.9-29.5,108.1-12.9c11.1,3.7,15.1,13.2,18.6,12.6l-7.5,331.5c0,14.4,25.3,18.3,25.3,18.3s26.6-3.6,26.6-18.3
	c0-35.1-6.4-284.7-6.6-331.2c0.1,0,0.1,0,0.2,0c2.8,0.5,10.6-15.2,13.9-18.9c7.6-8.6,20.7-19,41-19.8c32.9-1.3,106.8,3.4,106.8,3.4
	l2.2-1.8C4248.3,4091.9,4185.8,4079.9,4138.3,4080.4z M4075.4,4144.2c-1.1-1.5-5.9-10.3-16.5-13.2c-10.6-2.9-70.1-12.3-102.9,6.5
	c-3.5-10.8-2-21.1-2-21.1h122.5c0,0,0,16.8,0,20.7c0,2.9,2.6,7.2,6.5,8.5C4079.4,4145.6,4076.5,4145.8,4075.4,4144.2z
	 M4072.6,4472.1c0-6.7,3.8-182.8,6.4-263.6c0.8-24.7,1.4-46.7,1.8-56c1.3,1.8,4.8,1.9,4.8,1.9c-3.1,154.9-1.6,306.9,7.2,339.6
	C4085.1,4491.2,4072.6,4487.4,4072.6,4472.1z M4107.1,4064.8c-0.5-26,1.4-125.7-12.1-129.5c6.8,0,15.9,1.2,19.1,4.3
	c3.3,3.1-2.5,126.8-2.5,126.8S4110,4065.1,4107.1,4064.8z M4273,4110.9c-53.9-17.7-94.9-14.4-154.2-14.4c0-2.2-0.2-8.5-0.2-13.7
	c-0.1-5.3-2.3-9-5.9-10.1c4.9,0,8,4.6,9.4,6.3c4.6,5.5,5.6,9.6,11.5,9.3C4138.7,4088.2,4223.4,4084.9,4273,4110.9z"/>
<path d="M3930.5,4072.7c-6.1,0-6.1,76.9,0,76.9c3.1,0,15.1,0,15.1,0c-4.5-28.2-3-52.4,0-76.9
	C3945.6,4072.7,3933.9,4072.7,3930.5,4072.7z M3931.3,4142.8c-1.6-4-1.6-14.9-1.9-26.3h10c0,0-1.3,14.6,2.2,26.3H3931.3z"/>
<path class="st3" d="M3789.7,4248.9l-111.7,12c3,27,8.6,53,16.4,78l107.1-34.1C3795.9,4286.7,3791.9,4268.1,3789.7,4248.9z"/>
</svg>
