<?xml version="1.0" encoding="utf-8"?>
<!-- Generator: Adobe Illustrator 23.0.1, SVG Export Plug-In . SVG Version: 6.00 Build 0)  -->
<svg version="1.1" id="Layer_1" xmlns="http://www.w3.org/2000/svg" xmlns:xlink="http://www.w3.org/1999/xlink" x="0px" y="0px"
	 viewBox="0 0 8192 8192" style="enable-background:new 0 0 8192 8192;" xml:space="preserve">
<path d="M4096,4643.7c-58.1,0-114.4-11.4-167.4-33.8c-51.2-21.7-97.2-52.7-136.7-92.2c-39.5-39.5-70.5-85.5-92.2-136.7
	c-22.4-53-33.8-109.4-33.8-167.4c0-58.1,11.4-114.4,33.8-167.4c21.7-51.2,52.7-97.2,92.2-136.7c39.5-39.5,85.5-70.5,136.7-92.2
	c53-22.4,109.4-33.8,167.4-33.8c58.1,0,114.4,11.4,167.4,33.8c51.2,21.7,97.2,52.7,136.7,92.2c39.5,39.5,70.5,85.5,92.2,136.7
	c22.4,53,33.8,109.4,33.8,167.4c0,58.1-11.4,114.4-33.8,167.4c-21.7,51.2-52.7,97.2-92.2,136.7c-39.5,39.5-85.5,70.5-136.7,92.2
	C4210.4,4632.3,4154.1,4643.7,4096,4643.7z M4096,3792.8c-232,0-420.7,188.7-420.7,420.7c0,232,188.7,420.7,420.7,420.7
	c232,0,420.7-188.7,420.7-420.7C4516.7,3981.6,4328,3792.8,4096,3792.8z"/>
<path d="M4096,4521.2c-41.5,0-81.8-8.1-119.8-24.2c-36.6-15.5-69.6-37.7-97.8-65.9c-28.3-28.3-50.4-61.2-65.9-97.8
	c-16-37.9-24.2-78.2-24.2-119.8c0-41.5,8.1-81.8,24.2-119.8c15.5-36.6,37.7-69.6,65.9-97.8c28.3-28.3,61.2-50.4,97.8-65.9
	c37.9-16,78.2-24.2,119.8-24.2c41.5,0,81.8,8.1,119.8,24.2c36.6,15.5,69.6,37.7,97.8,65.9c28.3,28.3,50.4,61.2,65.9,97.8
	c16,37.9,24.2,78.2,24.2,119.8c0,41.5-8.1,81.8-24.2,119.8c-15.5,36.6-37.7,69.6-65.9,97.8c-28.3,28.3-61.2,50.4-97.8,65.9
	C4177.8,4513.1,4137.5,4521.2,4096,4521.2z M4096,3915.3c-164.4,0-298.2,133.8-298.2,298.2c0,164.4,133.8,298.2,298.2,298.2
	c164.4,0,298.2-133.8,298.2-298.2C4394.2,4049.1,4260.4,3915.3,4096,3915.3z"/>
<path d="M3840.7,4429.3l-17.4,14.3l-0.9-1.2c4.3-5.6,6.6-10.7,6.8-15.5c0.2-4.8-1.2-9.3-4.2-13.6c-2.6-3.6-5.8-6.2-9.7-7.8
	c-3.9-1.6-8.4-1.8-13.6-0.6c-5.2,1.2-10.7,3.9-16.6,8.1c-4.9,3.5-8.5,7.3-11,11.4c-2.5,4.1-3.5,8.4-3.2,12.9
	c0.3,4.5,1.9,8.8,4.8,12.8c2.5,3.5,5.5,6,8.9,7.7c3.4,1.6,8.5,2.4,15.2,2.4l0.1,1.8c-6.7,0.7-12.5,0.1-17.3-1.9
	c-4.8-2-9-5.5-12.5-10.5c-6.4-8.9-8-18.2-4.9-27.8c2.3-7.2,6.8-13.1,13.5-17.9c5.4-3.8,11.2-6.2,17.4-7c6.2-0.8,12.1,0,17.6,2.5
	c5.5,2.5,10,6.2,13.6,11.2c2.8,3.9,4.6,8.4,5.4,13.6c0.2,1.5,0.5,2.5,0.8,3c0.5,0.7,1.2,1.2,2.1,1.3c1.2,0.2,2.6,0,4-0.7
	L3840.7,4429.3z"/>
<path d="M3843.2,4495.8l-18.6-17.6l-10.4,4.5c-2.6,1.1-4.3,2.1-5.2,3c-0.7,0.7-1,1.7-0.8,2.9c0.2,1.2,1.3,3,3.5,5.4l-1.2,1.3
	l-15.2-14.3l1.2-1.3c2.3,1.5,4.1,2.3,5.2,2.3c2.3,0,5.8-1,10.6-3.1l54.3-23.6l1.2,1.2l-21.1,55.9c-1.7,4.5-2.4,7.7-2.2,9.7
	c0.2,2,1.2,4,3.1,6l-1.2,1.3l-19-17.9l1.2-1.3c2,1.7,3.6,2.6,4.8,2.7c1.2,0.1,2.2-0.3,2.9-1c1-1,2.1-3.1,3.2-6.3L3843.2,4495.8z
	 M3844.7,4492.2l10.2-27.2l-26.8,11.5L3844.7,4492.2z"/>
<path d="M3911.3,4571l-15-9.4l-2.5-38.1c-1.4-0.8-2.6-1.5-3.5-2.1c-0.4-0.2-0.7-0.5-1.1-0.8c-0.4-0.3-0.8-0.6-1.2-0.9l-10.2,16.3
	c-2.2,3.5-3.2,6-3,7.3c0.3,1.9,1.5,3.5,3.6,4.8l2.2,1.4l-1,1.5l-24-15.1l1-1.5l2.1,1.3c2.4,1.5,4.6,1.8,6.5,0.9
	c1.1-0.5,2.7-2.3,4.7-5.5l22.8-36.2c2.2-3.5,3.2-6,3-7.3c-0.3-1.9-1.5-3.5-3.7-4.8l-2.1-1.3l1-1.5l20.4,12.8
	c6,3.7,10.1,6.9,12.3,9.6c2.3,2.6,3.7,5.8,4.2,9.3c0.5,3.6-0.3,7-2.3,10.2c-2.2,3.4-5.2,5.7-9,6.9s-8.4,0.7-13.8-1.2l1.5,23.4
	c0.3,5.4,1.1,9.2,2.2,11.6c1.1,2.4,3.1,4.7,6,7L3911.3,4571z M3889.6,4517.2c0.5,0.3,1,0.6,1.4,0.9c0.4,0.3,0.7,0.5,0.9,0.6
	c5.3,3.4,10.1,4.7,14.3,4.1c4.2-0.6,7.4-2.7,9.6-6.3c2.2-3.5,2.9-7,2.1-10.6c-0.8-3.6-3-6.5-6.6-8.8c-1.6-1-3.9-2.1-7-3.3
	L3889.6,4517.2z"/>
<path d="M3948,4552.6l-7.3,17.8c-1.6,3.9-2.1,6.4-1.7,7.7c0.6,1.8,2.1,3.2,4.4,4.1l2.4,1l-0.7,1.7l-26.2-10.8l0.7-1.7l2.3,1
	c2.6,1.1,4.8,1,6.6-0.2c1-0.7,2.2-2.8,3.6-6.3l16.3-39.6c1.6-3.9,2.2-6.4,1.7-7.7c-0.6-1.8-2.1-3.2-4.4-4.1l-2.3-1l0.7-1.7l22.4,9.2
	c5.5,2.3,9.6,4.6,12.3,7c2.7,2.4,4.6,5.4,5.6,9c1.1,3.6,0.8,7.2-0.7,10.9c-2.1,5-5.4,8.4-10,10.2c-4.6,1.8-9.9,1.4-15.9-1.1
	c-1.5-0.6-3-1.4-4.7-2.3C3951.5,4554.9,3949.8,4553.8,3948,4552.6z M3949.1,4550c1.5,1,2.8,1.8,4,2.4c1.2,0.7,2.2,1.2,3.1,1.5
	c3.1,1.3,6.3,1.2,9.6-0.3c3.3-1.5,5.7-4.2,7.3-8c1.1-2.6,1.6-5.3,1.4-8.1c-0.1-2.7-1-5.1-2.5-7c-1.5-1.9-3.6-3.4-6.1-4.5
	c-1.5-0.6-3.6-1.2-6.3-1.6L3949.1,4550z"/>
<path d="M4009.8,4540.8l-6,25.5l14.2,3.3c3.7,0.9,6.3,0.9,7.8,0.1c2-1.1,3.5-3.4,4.6-7.1l1.8,0.4l-5.3,22.4l-1.8-0.4
	c0.3-3.2,0.3-5.4,0.1-6.4c-0.3-1.2-1-2.3-2.2-3.3c-1.2-0.9-3.1-1.7-5.8-2.4l-14.2-3.3l-5,21.3c-0.7,2.9-0.9,4.6-0.8,5.3
	c0.1,0.7,0.4,1.3,1,1.8c0.6,0.5,1.7,1,3.5,1.4l10.9,2.6c3.6,0.9,6.4,1.2,8.1,1.1c1.8-0.1,3.6-0.8,5.5-1.9c2.4-1.5,5.1-4,8.1-7.5
	l1.9,0.4l-9.4,14.9l-49.7-11.6l0.4-1.8l2.3,0.5c1.5,0.4,3.1,0.3,4.6-0.1c1.1-0.3,2-0.9,2.6-1.8c0.6-0.9,1.3-3,2-6.1l9.8-41.9
	c1-4.1,1.1-6.7,0.5-7.9c-0.8-1.5-2.6-2.6-5.3-3.2l-2.3-0.5l0.4-1.8l49.7,11.6l-2.6,14.3l-1.9-0.4c0.1-3.5-0.1-6.1-0.6-7.5
	c-0.5-1.5-1.5-2.7-2.9-3.7c-1.2-0.8-3.3-1.5-6.5-2.3L4009.8,4540.8z"/>
<path d="M4044.2,4546.3l18,0.8l38.3,51.4l1.7-38.1c0.2-4.1-0.2-6.6-1-7.7c-1.1-1.4-3-2.2-5.6-2.3l-2.3-0.1l0.1-1.8l23,1l-0.1,1.8
	l-2.3-0.1c-2.8-0.1-4.8,0.6-6.1,2.3c-0.8,1-1.2,3.4-1.4,7.1l-2.5,55.8l-1.8-0.1l-41.3-55.2l-1.8,40.7c-0.2,4.1,0.1,6.6,1,7.7
	c1.2,1.4,3.1,2.2,5.6,2.3l2.3,0.1l-0.1,1.8l-23-1l0.1-1.8l2.3,0.1c2.8,0.1,4.9-0.6,6.1-2.3c0.8-1,1.2-3.4,1.4-7.1l2-46
	c-1.8-2.3-3.2-3.9-4.2-4.6c-1-0.8-2.4-1.5-4.3-2.2c-0.9-0.3-2.4-0.5-4.3-0.6L4044.2,4546.3z"/>
<path d="M4170.6,4541l2.9,15.3l-1.8,0.3c-0.7-2.7-1.5-4.5-2.3-5.6c-1.3-1.7-2.8-2.9-4.6-3.6s-4-0.8-6.7-0.4l-9.2,1.3l7.2,50.1
	c0.6,4,1.4,6.5,2.4,7.4c1.4,1.2,3.4,1.6,5.9,1.2l2.3-0.3l0.3,1.8l-27.8,4l-0.3-1.8l2.3-0.3c2.8-0.4,4.6-1.5,5.5-3.4
	c0.6-1.1,0.6-3.5,0-7.2l-7.2-50.1l-7.9,1.1c-3.1,0.4-5.2,1-6.4,1.6c-1.6,0.9-2.9,2.2-3.8,4.1c-0.9,1.9-1.3,4.4-1.1,7.4l-1.8,0.3
	l-1.4-15.5L4170.6,4541z"/>
<path d="M4254.9,4583.1l-16.8,5.6l-31.1-22.3c-1.6,0.6-2.8,1-3.8,1.4c-0.4,0.1-0.8,0.3-1.3,0.4s-1,0.3-1.5,0.4l6.1,18.3
	c1.3,4,2.6,6.3,3.8,6.9c1.6,1,3.6,1.1,6,0.3l2.5-0.8l0.6,1.7l-26.9,9l-0.6-1.7l2.4-0.8c2.7-0.9,4.3-2.4,4.8-4.5
	c0.3-1.2-0.1-3.6-1.3-7.1l-13.5-40.6c-1.3-4-2.6-6.3-3.8-6.9c-1.7-1-3.7-1-6.1-0.2l-2.4,0.8l-0.6-1.7l22.9-7.6
	c6.7-2.2,11.8-3.4,15.2-3.5c3.5-0.1,6.8,0.8,9.9,2.7c3.1,1.9,5.2,4.6,6.4,8.2c1.3,3.9,1.1,7.6-0.4,11.3c-1.6,3.7-4.8,7-9.7,9.9
	l19,13.7c4.3,3.1,7.8,5.1,10.4,5.7c2.6,0.6,5.6,0.6,9.2-0.2L4254.9,4583.1z M4199.6,4565.7c0.6-0.2,1.1-0.4,1.5-0.5s0.8-0.2,1.1-0.3
	c6-2,10.1-4.8,12.3-8.4c2.2-3.6,2.6-7.4,1.3-11.4c-1.3-3.9-3.6-6.7-6.9-8.3c-3.3-1.6-6.9-1.8-11-0.4c-1.8,0.6-4.1,1.7-7,3.3
	L4199.6,4565.7z"/>
<path d="M4266.3,4501.8l20.3-11.1l0.9,1.6l-1.1,0.6c-0.7,0.4-1.6,1.3-2.7,2.8c-1.1,1.4-1.9,3.1-2.4,5c-0.5,1.9-0.9,4.7-1.1,8.4
	l-2,29.7l7.9,14.6c2,3.6,3.6,5.6,4.8,6c1.7,0.6,3.8,0.3,6.1-1l1.9-1l0.9,1.6l-24.7,13.5l-0.9-1.6l2.1-1.1c2.5-1.3,3.8-3,4-5.1
	c0.1-1.3-0.7-3.5-2.5-6.8l-7.5-13.8l-29.2-15.7c-3.4-1.8-5.7-2.9-6.8-3.3c-1.1-0.4-2.9-0.4-5.6-0.3c-0.7,0-1.6,0.3-2.7,0.9l-0.9-1.6
	l24.9-13.6l0.9,1.6l-1.3,0.7c-1.3,0.7-2.4,1.7-3.2,3c-0.8,1.2-0.8,2.5-0.1,3.8c0.6,1,2.4,2.4,5.7,4.1l22.3,12.1l1.6-24.1
	c0.3-3.6,0-6.1-0.7-7.4c-0.4-0.8-1-1.4-1.8-1.8c-0.8-0.4-1.6-0.6-2.6-0.5c-1,0.1-2.2,0.5-3.8,1.4L4266.3,4501.8z"/>
<path d="M4374.9,4476.8l1.4-0.8l8,17.1l-37.7,34.7l-1.2-1.3l1.8-1.7c2.1-1.9,2.9-3.9,2.6-6.1c-0.2-1.2-1.6-3.2-4.1-6l-28.9-31.5
	c-2.8-3-4.9-4.6-6.3-4.8c-1.9-0.2-3.8,0.6-5.6,2.3l-1.8,1.7l-1.2-1.3l22.1-20.3l1.2,1.3c-2.6,2.4-4.2,4.3-4.8,5.7
	c-0.6,1.5-0.7,2.8-0.4,3.9c0.3,1.1,1.8,3.1,4.5,6l28.2,30.6c1.8,2,3.3,3.2,4.3,3.6c0.8,0.2,1.5,0.2,2.4-0.1c0.8-0.3,2.8-1.9,5.9-4.8
	l3.6-3.3c3.7-3.4,6.1-6.1,7.1-8.1c1-1.9,1.5-4.2,1.4-6.7C4377.3,4484.3,4376.5,4481,4374.9,4476.8z"/>
<path d="M4415.6,4425.7l1.3-1.1l10.8,15.5l-31.3,40.6l-1.4-1.1l1.5-2c1.7-2.2,2.2-4.4,1.5-6.4c-0.4-1.2-2.1-2.9-5.1-5.2l-33.9-26.1
	c-3.3-2.5-5.6-3.7-7-3.7c-1.9,0.1-3.6,1.2-5.2,3.2l-1.5,2l-1.4-1.1l18.3-23.8l1.4,1.1c-2.2,2.8-3.4,4.9-3.7,6.5
	c-0.3,1.5-0.2,2.8,0.3,3.9c0.5,1,2.3,2.8,5.4,5.2l33,25.4c2.1,1.6,3.8,2.6,4.9,2.8c0.8,0.1,1.5-0.1,2.3-0.5c0.8-0.4,2.4-2.4,5-5.7
	l3-3.8c3.1-4,5-7.1,5.6-9.2c0.7-2.1,0.8-4.4,0.3-6.9C4419.1,4432.8,4417.8,4429.6,4415.6,4425.7z"/>
<path d="M4404.2,4342.9l20.7,9l-0.7,1.3c-6.9-1.3-12.5-1-16.9,1c-4.4,2-7.7,5.3-10.1,9.9c-2,3.9-2.9,7.9-2.5,12.1
	c0.4,4.2,2.2,8.3,5.6,12.3c3.4,4.1,8.3,7.7,14.8,11.1c5.3,2.8,10.4,4.3,15.2,4.6c4.8,0.3,9.1-0.7,13-3.1c3.9-2.4,6.9-5.7,9.2-10.1
	c2-3.8,2.9-7.6,2.8-11.4c-0.1-3.8-1.7-8.7-4.8-14.7l1.6-0.9c3.7,5.7,5.8,11.1,6.2,16.3c0.4,5.2-0.8,10.5-3.6,15.9
	c-5,9.8-12.5,15.4-22.5,17c-7.4,1.2-14.8-0.1-22.1-3.8c-5.9-3-10.6-7.1-14.1-12.3c-3.6-5.2-5.5-10.8-5.8-16.8
	c-0.3-6,0.9-11.8,3.8-17.2c2.2-4.3,5.4-7.9,9.6-11c1.3-0.9,2-1.6,2.3-2.1c0.4-0.8,0.5-1.6,0.2-2.5c-0.4-1.2-1.2-2.3-2.4-3.3
	L4404.2,4342.9z"/>
<path d="M3790.5,3954.8l21.5,13.5l-1,1.4c-7.5-2.6-13.8-3.2-19-1.7c-5.2,1.5-9.5,4.6-12.9,9.3c-2.9,4-4.5,8.4-4.8,13.1
	c-0.3,4.7,1.1,9.6,4.2,14.7c3.1,5.1,8,10,14.6,14.8c5.5,4,10.8,6.5,16.1,7.7c5.3,1.1,10.2,0.7,14.9-1.2c4.7-2,8.7-5.2,11.9-9.7
	c2.8-3.9,4.5-8,5-12.2s-0.4-9.9-2.8-17.1l1.9-0.7c3.2,6.9,4.6,13.3,4.1,19.1c-0.4,5.8-2.7,11.5-6.7,17.1
	c-7.2,10-16.6,15.1-27.9,15.2c-8.5,0.1-16.5-2.6-23.9-8c-6-4.4-10.6-9.7-13.7-16.1c-3.1-6.4-4.3-12.9-3.7-19.6
	c0.7-6.7,3-12.9,7.1-18.5c3.2-4.4,7.3-7.9,12.6-10.6c1.6-0.8,2.5-1.4,2.9-2c0.6-0.8,0.8-1.7,0.7-2.7c-0.2-1.4-1-2.7-2.1-4.1
	L3790.5,3954.8z"/>
<path d="M3844.8,3950.9l26.1-22.7l-14-16.1c-2.5-2.9-4.3-4.6-5.5-5.2c-0.9-0.4-2-0.5-3.3-0.3c-1.8,0.4-3.3,1.1-4.6,2.3l-2,1.7
	l-1.3-1.5l24-20.9l1.3,1.5l-2,1.7c-1.3,1.2-2.3,2.6-2.9,4.2c-0.5,1.2-0.5,2.4-0.1,3.6c0.5,1.2,1.9,3.1,4.3,5.9l31.5,36.3
	c2.5,2.8,4.3,4.6,5.4,5.2c0.9,0.4,2,0.6,3.3,0.3c1.8-0.4,3.4-1.2,4.7-2.3l2-1.7l1.3,1.5l-24,20.9l-1.3-1.5l2-1.7
	c2.3-2,3.4-4.1,3.3-6.4c-0.1-1.5-1.6-3.9-4.5-7.3l-14.9-17.1l-26.1,22.7l14.9,17.1c2.5,2.8,4.3,4.6,5.4,5.2c0.9,0.5,2,0.5,3.3,0.3
	c1.8-0.4,3.3-1.1,4.6-2.3l2-1.8l1.3,1.5L3855,3995l-1.3-1.5l2-1.7c2.3-2,3.4-4.2,3.3-6.4c-0.1-1.5-1.6-3.9-4.6-7.3l-31.5-36.3
	c-2.5-2.9-4.3-4.6-5.5-5.2c-0.9-0.4-2-0.6-3.3-0.3c-1.8,0.4-3.4,1.2-4.7,2.3l-2,1.7l-1.3-1.5l24.1-20.9l1.3,1.5l-2,1.8
	c-1.3,1.2-2.3,2.6-2.9,4.2c-0.5,1.2-0.5,2.4,0,3.6c0.4,1.2,1.9,3.2,4.3,5.9L3844.8,3950.9z"/>
<path d="M3979.1,3909.9l-17.6,9.3l-38.6-19c-1.6,0.9-2.9,1.7-4,2.2c-0.4,0.2-0.9,0.5-1.4,0.7s-1,0.5-1.5,0.7l10.1,19.1
	c2.2,4.1,4,6.5,5.4,7c2,0.8,4.2,0.5,6.7-0.8l2.6-1.4l0.9,1.8l-28.2,14.9l-0.9-1.8l2.5-1.3c2.8-1.5,4.3-3.4,4.5-5.9
	c0.1-1.4-0.8-3.9-2.8-7.7l-22.5-42.6c-2.2-4.1-4-6.5-5.4-7c-2-0.8-4.3-0.5-6.8,0.8l-2.5,1.3l-0.9-1.8l24-12.7
	c7-3.7,12.4-5.9,16.3-6.6c3.9-0.7,7.7-0.3,11.4,1.2c3.8,1.5,6.6,4.2,8.6,8c2.1,4.1,2.7,8.3,1.6,12.6c-1.1,4.4-4,8.6-8.9,12.8
	l23.6,11.7c5.4,2.7,9.6,4.2,12.6,4.4c3,0.2,6.4-0.4,10.2-1.9L3979.1,3909.9z M3914.4,3900.8c0.6-0.3,1.2-0.6,1.6-0.8
	s0.8-0.4,1.1-0.6c6.3-3.3,10.3-7.2,12.1-11.6c1.8-4.4,1.5-8.7-0.7-12.9c-2.2-4.1-5.2-6.8-9.2-8c-3.9-1.2-8-0.7-12.3,1.5
	c-1.9,1-4.3,2.6-7.1,5L3914.4,3900.8z"/>
<path d="M4008.4,3900.1l0.6,1.9l-30.3,10.1l-0.6-1.9l2.5-0.8c2.9-1,4.8-2.5,5.5-4.7c0.5-1.4,0-4.2-1.4-8.4l-15.2-45.7
	c-1.2-3.6-2.2-5.9-3-6.9c-0.6-0.8-1.6-1.3-2.9-1.5c-1.8-0.3-3.5-0.2-5.2,0.3l-2.5,0.8l-0.6-1.9l30.3-10.1l0.6,1.9l-2.6,0.9
	c-2.9,1-4.7,2.5-5.5,4.7c-0.5,1.4,0,4.2,1.4,8.5l15.2,45.7c1.2,3.6,2.2,5.9,3,6.9c0.6,0.8,1.6,1.3,2.9,1.5c1.8,0.3,3.5,0.2,5.2-0.3
	L4008.4,3900.1z"/>
<path d="M4046.2,3816.9l4.5,25.4l-2,0.4c-1.5-4.8-3.4-8.4-5.6-11c-2.2-2.6-5-4.5-8.4-5.6c-3.4-1.1-6.8-1.4-10.1-0.8
	c-3.8,0.7-6.6,2.4-8.7,5.1c-2,2.7-2.8,5.6-2.3,8.5c0.4,2.2,1.5,4.1,3.4,5.7c2.7,2.3,8.7,5,17.9,8c7.5,2.5,12.7,4.5,15.5,6
	c2.9,1.5,5.2,3.5,7,5.9c1.8,2.4,3,5.1,3.5,8c1,5.6-0.3,10.7-3.9,15.5c-3.6,4.8-8.8,7.8-15.6,9c-2.1,0.4-4.2,0.6-6.1,0.6
	c-1.1,0-3.6-0.2-7.3-0.7c-3.7-0.5-6-0.7-7-0.5c-0.9,0.2-1.6,0.6-2,1.2s-0.6,1.8-0.6,3.6l-2,0.4l-4.5-25.2l2-0.4
	c1.9,5.1,3.8,8.8,5.9,11.1c2.1,2.3,4.9,4.1,8.4,5.2c3.6,1.2,7.3,1.4,11.2,0.7c4.5-0.8,7.9-2.6,10.1-5.5c2.2-2.8,3-5.9,2.4-9.1
	c-0.3-1.8-1.1-3.5-2.5-5.2c-1.3-1.7-3.2-3.1-5.5-4.3c-1.6-0.8-5.8-2.4-12.7-4.9c-6.9-2.4-11.9-4.4-14.9-6c-3-1.6-5.4-3.6-7.3-5.9
	c-1.8-2.3-3-4.9-3.5-8c-0.9-5.3,0.3-10.2,3.6-14.7c3.4-4.5,8.2-7.3,14.4-8.4c3.9-0.7,8.2-0.5,12.9,0.7c2.2,0.5,3.7,0.7,4.5,0.6
	c0.9-0.2,1.7-0.6,2.1-1.2c0.5-0.7,0.8-1.9,0.8-3.6L4046.2,3816.9z"/>
<path d="M4133.4,3816.5l0.5,17.5l-2.1,0c-0.4-3.1-0.9-5.3-1.5-6.6c-1.1-2.1-2.6-3.7-4.5-4.8c-1.9-1-4.3-1.6-7.4-1.6l-10.5-0.2
	l-0.9,56.9c-0.1,4.6,0.4,7.4,1.3,8.6c1.4,1.6,3.5,2.4,6.4,2.4l2.6,0l0,2l-31.6-0.5l0-2l2.6,0c3.2,0.1,5.4-0.9,6.7-2.8
	c0.8-1.2,1.3-3.8,1.3-8l0.9-56.9l-9-0.1c-3.5-0.1-6,0.2-7.4,0.6c-1.9,0.7-3.6,2-5,3.9c-1.4,2-2.2,4.6-2.5,8l-2.1,0l1.2-17.5
	L4133.4,3816.5z"/>
<path d="M4131.9,3862.6l28.1,4l-1.2,8.2l-28.1-4L4131.9,3862.6z"/>
<path d="M4225.5,3893.8l1.6,0.9l-12,17.5l-55.1-16.9l0.6-1.9l2.7,0.8c3,0.9,5.5,0.6,7.4-1c1.1-0.9,2.2-3.4,3.5-7.4l14.1-45.9
	c1.4-4.4,1.7-7.4,1.1-8.8c-0.9-2-2.7-3.4-5.4-4.2l-2.7-0.8l0.6-1.9l32.2,9.9l-0.6,1.9c-3.8-1.2-6.5-1.7-8.3-1.4
	c-1.8,0.3-3.1,0.9-4,1.8c-0.9,0.9-2,3.5-3.3,7.8l-13.8,44.7c-0.9,2.9-1.2,5-1,6.2c0.2,0.9,0.7,1.6,1.4,2.2c0.8,0.6,3.4,1.6,8,3
	l5.2,1.6c5.5,1.7,9.4,2.5,11.9,2.3c2.5-0.1,4.9-0.9,7.4-2.4C4219.5,3900.3,4222.3,3897.6,4225.5,3893.8z"/>
<path d="M4252.5,3928.2l-0.9,1.8l-28.7-14l0.9-1.8l2.4,1.2c2.8,1.4,5.2,1.5,7.2,0.5c1.3-0.7,2.9-3,4.9-7l21.1-43.3
	c1.7-3.4,2.5-5.7,2.6-7c0.1-1-0.3-2-1-3.1c-1.1-1.5-2.4-2.6-4-3.4l-2.4-1.2l0.9-1.8l28.7,14l-0.9,1.8l-2.4-1.2
	c-2.7-1.3-5.1-1.5-7.2-0.5c-1.3,0.7-3,3-4.9,7l-21.1,43.3c-1.6,3.4-2.5,5.7-2.6,7c-0.1,1,0.3,2,1,3.1c1,1.5,2.3,2.6,3.9,3.4
	L4252.5,3928.2z"/>
<path d="M4303.9,3914.3l6.3,38.2c1,6.3,2.3,11,4,14.2c1.6,3.2,3.7,5.8,6.1,7.9l-1.2,1.6l-28.7-20.8l1.2-1.6c1.7,1.2,3.2,1.9,4.3,1.8
	c1.2,0,2-0.4,2.5-1.1c0.5-0.7,0.8-1.5,1-2.2s0-2.5-0.5-5.2l-5.9-35.7l-14.1,19.5c-2.2,3.1-3.5,5.2-3.8,6.5c-0.2,1-0.1,2,0.5,3.3
	c0.8,1.6,1.9,3,3.3,4l2,1.5l-1.2,1.6l-25.7-18.6l1.2-1.6l2.1,1.5c2.5,1.8,4.8,2.4,7,1.7c1.4-0.4,3.4-2.5,6-6.1l28.2-39
	c2.2-3.1,3.5-5.2,3.8-6.5c0.2-0.9,0.1-2-0.5-3.2c-0.8-1.7-1.9-3-3.3-4l-2.1-1.5l1.2-1.6l25.7,18.6l-1.2,1.6l-2-1.5
	c-1.4-1-3-1.6-4.8-1.9c-1.3-0.2-2.4,0.1-3.5,0.8c-1,0.7-2.6,2.5-4.8,5.5l-13.4,18.5c1-0.1,4.4-0.6,10.2-1.2
	c14.7-1.7,23.9-3.2,27.7-4.6c1.7-0.6,2.8-1.4,3.5-2.2c0.5-0.7,0.6-1.5,0.4-2.5c-0.3-1-1.1-2-2.6-3.1l-1.4-1l1.2-1.6l22.2,16
	l-1.2,1.6c-1.3-0.9-2.6-1.6-3.9-2c-1.3-0.4-3.1-0.8-5.3-0.9c-2.2-0.2-5.2-0.1-9,0.4c-1.1,0.1-6.3,1-15.6,2.6L4303.9,3914.3z"/>
<path d="M4383.3,3944.5l-22,19.5l10.9,12.2c2.8,3.2,5.2,4.9,7.1,5.1c2.5,0.3,5.4-0.9,8.8-3.5l1.4,1.5l-19.4,17.2l-1.4-1.5
	c2.4-2.8,3.8-4.7,4.2-5.8c0.5-1.3,0.6-2.8,0.1-4.4c-0.5-1.6-1.7-3.6-3.8-5.9l-10.9-12.2l-18.4,16.3c-2.5,2.2-3.9,3.6-4.2,4.3
	c-0.3,0.7-0.4,1.5-0.3,2.3c0.2,0.8,0.9,2,2.3,3.5l8.4,9.5c2.8,3.2,5,5.2,6.7,6.3c1.7,1,3.8,1.6,6.2,1.8c3.2,0.2,7.3-0.3,12.3-1.6
	l1.5,1.6l-18.2,7.6l-38.1-42.9l1.5-1.4l1.8,2c1.2,1.3,2.6,2.3,4.3,2.9c1.2,0.5,2.4,0.5,3.6,0c1.2-0.5,3.1-1.9,5.8-4.3l36.2-32.1
	c3.5-3.1,5.4-5.4,5.6-6.9c0.2-2-0.7-4.1-2.7-6.4l-1.8-2l1.5-1.4l38.1,42.9l-11.7,11.4l-1.4-1.6c2.4-3.2,3.9-5.6,4.3-7.3
	c0.5-1.7,0.4-3.4-0.2-5.3c-0.6-1.5-2.1-3.6-4.5-6.3L4383.3,3944.5z"/>
<g>
	<path d="M4138.3,4080.4c-5.1,0-14.7-8.7-21.5-10.1c-0.6-0.1-1.3-0.2-2-0.3l6.1-135.2c0,0-22.9-9.6-51.9,0
		c0,17.2,7.6,94.3,8.6,135.4c-0.9,0.2-1.9,0.3-2.8,0.6c-2.9,0.7-5.8,11.4-8.8,12.4c-19.5,6.3-89.1,15.6-113.5-10.9
		c-7.1,1.7-7,73.7-2.6,77.4c6.3-3.3,58.9-29.5,108.1-12.9c11.1,3.7,15.1,13.2,18.6,12.6l-7.5,331.5c0,14.4,25.3,18.3,25.3,18.3
		s26.6-3.6,26.6-18.3c0-35.1-6.4-284.7-6.6-331.2c0.1,0,0.1,0,0.2,0c2.8,0.5,10.6-15.2,13.9-18.9c7.6-8.6,20.7-19,41-19.8
		c32.9-1.3,106.8,3.4,106.8,3.4l2.2-1.8C4248.3,4091.9,4185.8,4079.9,4138.3,4080.4z M4075.4,4144.2c-1.1-1.5-5.9-10.3-16.5-13.2
		c-10.6-2.9-70.1-12.3-102.9,6.5c-3.5-10.8-2-21.1-2-21.1h122.5c0,0,0,16.8,0,20.7c0,2.9,2.6,7.2,6.5,8.5
		C4079.4,4145.6,4076.5,4145.8,4075.4,4144.2z M4072.6,4472.1c0-6.7,3.8-182.8,6.4-263.6c0.8-24.7,1.4-46.7,1.8-56
		c1.3,1.8,4.8,1.9,4.8,1.9c-3.1,154.9-1.6,306.9,7.2,339.6C4085.1,4491.2,4072.6,4487.4,4072.6,4472.1z M4107.1,4064.8
		c-0.5-26,1.4-125.7-12.1-129.5c6.8,0,15.9,1.2,19.1,4.3c3.3,3.1-2.5,126.8-2.5,126.8S4110,4065.1,4107.1,4064.8z M4118.7,4096.6
		c0-2.2-0.2-8.5-0.2-13.7c-0.1-5.3-2.3-9-5.9-10.1c4.9,0,8,4.6,9.4,6.3c4.6,5.5,5.6,9.6,11.5,9.3c5.1-0.2,89.9-3.5,139.4,22.5
		C4219.1,4093.2,4178.1,4096.6,4118.7,4096.6z"/>
	<path d="M3930.5,4072.7c-6.1,0-6.1,76.9,0,76.9c3.1,0,15.1,0,15.1,0c-4.5-28.2-3-52.4,0-76.9
		C3945.6,4072.7,3933.9,4072.7,3930.5,4072.7z M3931.3,4142.8c-1.6-4-1.6-14.9-1.9-26.3h10c0,0-1.3,14.6,2.2,26.3H3931.3z"/>
</g>
</svg>
