<?xml version="1.0" encoding="utf-8"?>
<!-- Generator: Adobe Illustrator 23.0.1, SVG Export Plug-In . SVG Version: 6.00 Build 0)  -->
<svg version="1.1" id="Layer_1" xmlns="http://www.w3.org/2000/svg" xmlns:xlink="http://www.w3.org/1999/xlink" x="0px" y="0px"
	 viewBox="0 0 16382.95 16382.95" style="enable-background:new 0 0 16382.95 16382.95;" xml:space="preserve">
<style type="text/css">
	.st0{fill:#FFFFFF;}
</style>
<g>
	<circle class="st0" cx="8191.48" cy="8426.5" r="850.78"/>
	<path d="M8191.48,9286.78c-116.13,0-228.8-22.75-334.86-67.61c-102.44-43.33-194.44-105.36-273.45-184.36
		c-79-79-141.03-171-184.36-273.45c-44.86-106.07-67.61-218.73-67.61-334.86s22.75-228.8,67.61-334.86
		c43.33-102.44,105.36-194.44,184.36-273.45c79-79,171-141.03,273.45-184.36c106.07-44.86,218.73-67.61,334.86-67.61
		c116.13,0,228.8,22.75,334.86,67.61c102.44,43.33,194.44,105.36,273.45,184.36c79,79,141.03,171,184.36,273.45
		c44.86,106.07,67.61,218.73,67.61,334.86s-22.75,228.8-67.61,334.86c-43.33,102.44-105.36,194.44-184.36,273.45
		s-171,141.03-273.45,184.36C8420.27,9264.03,8307.61,9286.78,8191.48,9286.78z M8191.48,7585.21
		c-463.88,0-841.28,377.4-841.28,841.28s377.4,841.28,841.28,841.28c463.88,0,841.28-377.4,841.28-841.28
		S8655.36,7585.21,8191.48,7585.21z"/>
</g>
<g>
	<circle class="st0" cx="8191.48" cy="8426.5" r="605.92"/>
	<path d="M8191.48,9041.91c-83.08,0-163.67-16.27-239.55-48.37c-73.28-31-139.1-75.37-195.61-131.89
		c-56.52-56.52-100.89-122.33-131.88-195.61c-32.09-75.88-48.37-156.47-48.37-239.55s16.27-163.67,48.37-239.55
		c31-73.28,75.37-139.1,131.88-195.61c56.52-56.52,122.33-100.89,195.61-131.88c75.88-32.09,156.47-48.37,239.55-48.37
		s163.67,16.27,239.55,48.37c73.29,31,139.1,75.37,195.62,131.88c56.52,56.52,100.89,122.33,131.88,195.61
		c32.09,75.88,48.37,156.47,48.37,239.55s-16.27,163.67-48.37,239.55c-31,73.29-75.37,139.1-131.88,195.61
		c-56.52,56.52-122.33,100.89-195.62,131.89C8355.15,9025.64,8274.55,9041.91,8191.48,9041.91z M8191.48,7830.08
		c-328.87,0-596.42,267.55-596.42,596.42s267.55,596.42,596.42,596.42c328.86,0,596.42-267.55,596.42-596.42
		S8520.34,7830.08,8191.48,7830.08z"/>
</g>
<g>
	<path d="M7680.92,8858.02l-34.87,28.64l-1.76-2.46c8.62-11.12,13.16-21.45,13.63-30.98c0.47-9.54-2.35-18.57-8.44-27.1
		c-5.11-7.15-11.54-12.32-19.3-15.5c-7.75-3.18-16.79-3.59-27.1-1.22c-10.31,2.37-21.37,7.77-33.19,16.21
		c-9.75,6.96-17.08,14.56-22,22.8c-4.92,8.23-7.04,16.85-6.37,25.86c0.67,9,3.88,17.53,9.64,25.58c5,6.99,10.9,12.09,17.72,15.31
		c6.81,3.21,16.96,4.84,30.44,4.89l0.17,3.6c-13.45,1.45-24.97,0.16-34.57-3.87c-9.6-4.03-17.93-10.99-25.01-20.9
		c-12.76-17.85-16.01-36.41-9.77-55.67c4.63-14.35,13.62-26.29,26.97-35.83c10.75-7.68,22.35-12.33,34.8-13.95
		c12.45-1.61,24.17,0.04,35.16,4.95c10.99,4.91,20.06,12.37,27.21,22.38c5.56,7.79,9.14,16.83,10.74,27.13
		c0.42,3.06,0.98,5.06,1.66,6.02c1.02,1.43,2.41,2.32,4.18,2.66c2.41,0.36,5.1-0.08,8.06-1.32L7680.92,8858.02z"/>
	<path d="M7685.84,8990.93l-37.28-35.2l-20.88,9.03c-5.14,2.22-8.58,4.25-10.33,6.1c-1.39,1.47-1.91,3.42-1.56,5.85
		c0.34,2.43,2.68,6,7.01,10.71l-2.48,2.63l-30.32-28.63l2.48-2.63c4.69,3.09,8.17,4.63,10.42,4.61c4.56,0.01,11.59-2.08,21.1-6.27
		l108.69-47.26l2.49,2.35l-42.12,111.74c-3.38,8.99-4.88,15.48-4.49,19.47c0.39,4,2.44,7.97,6.14,11.91l-2.48,2.63l-37.98-35.87
		l2.48-2.63c4.01,3.43,7.21,5.24,9.58,5.42c2.38,0.19,4.3-0.5,5.78-2.06c1.97-2.08,4.13-6.27,6.48-12.55L7685.84,8990.93z
		 M7688.81,8983.79l20.41-54.33l-53.5,23.09L7688.81,8983.79z"/>
	<path d="M7822,9141.43l-29.92-18.83l-4.97-76.27c-2.88-1.66-5.2-3.04-6.96-4.15c-0.72-0.45-1.48-0.95-2.29-1.5
		c-0.81-0.55-1.64-1.13-2.48-1.74l-20.49,32.57c-4.44,7.05-6.42,11.92-5.95,14.6c0.57,3.74,2.95,6.93,7.14,9.57l4.38,2.76
		l-1.92,3.06l-48.03-30.21l1.92-3.06l4.22,2.65c4.74,2.98,9.1,3.57,13.08,1.77c2.23-0.98,5.36-4.67,9.38-11.06l45.55-72.41
		c4.44-7.05,6.42-11.92,5.95-14.6c-0.62-3.78-3.06-7-7.3-9.67l-4.22-2.65l1.92-3.06l40.83,25.69c11.9,7.49,20.13,13.88,24.69,19.17
		c4.56,5.29,7.34,11.5,8.35,18.64c1.01,7.14-0.51,13.93-4.57,20.37c-4.33,6.89-10.34,11.46-18.02,13.7
		c-7.68,2.24-16.89,1.45-27.63-2.38l2.92,46.71c0.64,10.71,2.1,18.48,4.38,23.29c2.28,4.82,6.27,9.48,11.97,13.99L7822,9141.43z
		 M7778.65,9033.74c1.05,0.66,1.95,1.24,2.7,1.76c0.75,0.51,1.38,0.93,1.88,1.24c10.69,6.73,20.21,9.48,28.55,8.27
		c8.34-1.21,14.76-5.4,19.27-12.57c4.4-7,5.79-14.07,4.17-21.2c-1.63-7.14-6.05-12.98-13.26-17.52c-3.2-2.01-7.85-4.21-13.97-6.59
		L7778.65,9033.74z"/>
	<path d="M7895.58,9104.65l-14.68,35.67c-3.17,7.71-4.3,12.84-3.38,15.4c1.2,3.59,4.11,6.34,8.75,8.25l4.7,1.93l-1.37,3.34
		l-52.47-21.59l1.38-3.34l4.61,1.9c5.18,2.13,9.57,1.97,13.19-0.49c1.97-1.37,4.4-5.55,7.27-12.53l32.56-79.11
		c3.17-7.71,4.33-12.83,3.47-15.36c-1.26-3.62-4.2-6.38-8.84-8.29l-4.61-1.9l1.38-3.34l44.88,18.47
		c10.96,4.51,19.13,9.19,24.52,14.05c5.39,4.86,9.15,10.86,11.28,18c2.13,7.14,1.68,14.39-1.34,21.73
		c-4.11,10-10.75,16.77-19.92,20.31c-9.17,3.55-19.77,2.84-31.82-2.11c-2.95-1.21-6.06-2.74-9.31-4.57
		C7902.56,9109.25,7899.15,9107.1,7895.58,9104.65z M7897.7,9099.5c2.94,1.92,5.58,3.53,7.93,4.85c2.34,1.32,4.39,2.33,6.14,3.05
		c6.26,2.58,12.66,2.38,19.2-0.6c6.54-2.97,11.4-8.32,14.57-16.02c2.18-5.3,3.12-10.67,2.82-16.1c-0.3-5.44-1.97-10.1-5.01-14
		c-3.04-3.89-7.1-6.88-12.15-8.96c-3.07-1.26-7.25-2.31-12.54-3.15L7897.7,9099.5z"/>
	<path d="M8019.18,9080.97l-11.94,50.96l28.33,6.64c7.35,1.72,12.52,1.76,15.52,0.12c3.98-2.14,7.02-6.85,9.12-14.11l3.52,0.82
		l-10.51,44.88l-3.52-0.82c0.58-6.48,0.64-10.72,0.17-12.7c-0.62-2.49-2.08-4.67-4.38-6.54c-2.3-1.88-6.15-3.45-11.54-4.71
		l-28.33-6.64l-9.96,42.5c-1.34,5.71-1.9,9.23-1.68,10.59c0.22,1.36,0.87,2.55,1.97,3.57c1.1,1.03,3.42,1.96,6.97,2.79l21.87,5.12
		c7.29,1.71,12.7,2.44,16.24,2.2c3.53-0.24,7.17-1.5,10.91-3.76c4.85-3.01,10.26-7.99,16.24-14.95l3.8,0.89l-18.7,29.72
		l-99.36-23.28l0.82-3.52l4.56,1.07c3.04,0.71,6.1,0.66,9.17-0.16c2.27-0.54,4-1.74,5.21-3.59c1.2-1.86,2.54-5.92,4.01-12.2
		l19.62-83.77c1.92-8.18,2.27-13.41,1.07-15.7c-1.69-3.07-5.19-5.23-10.52-6.48l-4.56-1.07l0.82-3.52l99.36,23.28l-5.19,28.57
		l-3.71-0.87c0.26-7.09-0.13-12.1-1.15-15.01c-1.02-2.91-2.96-5.41-5.82-7.48c-2.31-1.54-6.67-3.07-13.07-4.57L8019.18,9080.97z"/>
	<path d="M8087.85,9092.05l35.9,1.58l76.52,102.78l3.35-76.29c0.36-8.13-0.33-13.24-2.06-15.34c-2.29-2.84-6.03-4.37-11.23-4.6
		l-4.59-0.2l0.16-3.61l46.05,2.02l-0.16,3.61l-4.68-0.21c-5.59-0.25-9.64,1.27-12.13,4.55c-1.52,2.02-2.45,6.73-2.77,14.15
		l-4.9,111.51l-3.51-0.15l-82.54-110.37l-3.58,81.46c-0.36,8.13,0.3,13.24,1.96,15.33c2.35,2.84,6.1,4.37,11.24,4.6l4.68,0.21
		l-0.16,3.61l-46.05-2.02l0.16-3.61l4.59,0.2c5.66,0.25,9.73-1.27,12.22-4.55c1.52-2.02,2.45-6.74,2.77-14.15l4.04-92
		c-3.64-4.66-6.42-7.74-8.34-9.26c-1.92-1.52-4.77-2.98-8.56-4.38c-1.86-0.67-4.71-1.09-8.55-1.25L8087.85,9092.05z"/>
	<path d="M8340.71,9081.34l5.89,30.53l-3.67,0.53c-1.49-5.31-3.02-9.04-4.57-11.18c-2.54-3.45-5.59-5.82-9.17-7.11
		c-3.58-1.29-8.07-1.55-13.48-0.77l-18.46,2.67l14.46,100.13c1.16,8.06,2.76,12.96,4.79,14.7c2.84,2.35,6.8,3.16,11.89,2.43
		l4.54-0.66l0.52,3.58l-55.58,8.03l-0.52-3.58l4.64-0.67c5.54-0.8,9.23-3.04,11.07-6.73c1.12-2.27,1.15-7.07,0.09-14.42
		l-14.46-100.13l-15.75,2.28c-6.12,0.88-10.41,1.96-12.85,3.24c-3.17,1.71-5.7,4.47-7.58,8.3c-1.88,3.82-2.62,8.73-2.22,14.73
		l-3.67,0.53l-2.89-30.96L8340.71,9081.34z"/>
	<path d="M8509.32,9165.67l-33.54,11.18l-62.1-44.56c-3.11,1.17-5.65,2.09-7.63,2.75c-0.8,0.27-1.67,0.54-2.61,0.82
		s-1.91,0.55-2.92,0.82l12.17,36.5c2.63,7.91,5.14,12.53,7.5,13.87c3.25,1.94,7.23,2.12,11.92,0.56l4.91-1.64l1.14,3.43
		l-53.83,17.94l-1.14-3.43l4.73-1.57c5.31-1.77,8.53-4.77,9.67-8.99c0.66-2.35-0.21-7.1-2.59-14.27l-27.05-81.16
		c-2.63-7.9-5.14-12.53-7.5-13.87c-3.31-1.91-7.35-2.08-12.11-0.49l-4.73,1.58l-1.14-3.43l45.77-15.26
		c13.34-4.45,23.5-6.75,30.48-6.92s13.55,1.63,19.7,5.37c6.16,3.75,10.44,9.23,12.85,16.46c2.57,7.72,2.29,15.26-0.85,22.62
		c-3.14,7.36-9.6,13.97-19.38,19.84l37.95,27.39c8.69,6.3,15.62,10.1,20.78,11.4c5.17,1.3,11.3,1.17,18.41-0.37L8509.32,9165.67z
		 M8398.58,9130.83c1.17-0.39,2.2-0.71,3.07-0.97c0.87-0.26,1.59-0.48,2.15-0.66c11.98-3.99,20.15-9.6,24.5-16.82
		c4.35-7.22,5.19-14.84,2.52-22.87c-2.61-7.84-7.19-13.4-13.74-16.68c-6.55-3.27-13.87-3.56-21.96-0.86
		c-3.58,1.19-8.24,3.4-13.96,6.61L8398.58,9130.83z"/>
	<path d="M8532.11,9003.06l40.56-22.11l1.73,3.17l-2.23,1.22c-1.49,0.81-3.3,2.65-5.44,5.52c-2.14,2.87-3.71,6.18-4.72,9.91
		c-1,3.74-1.71,9.31-2.12,16.72l-3.97,59.44l15.89,29.15c3.9,7.15,7.12,11.17,9.69,12.07c3.48,1.22,7.56,0.55,12.25-2.01l3.77-2.06
		l1.73,3.17l-49.39,26.92l-1.73-3.17l4.12-2.24c4.92-2.68,7.59-6.07,8.03-10.16c0.26-2.51-1.39-7.03-4.94-13.55l-15-27.52
		l-58.45-31.32c-6.89-3.66-11.39-5.84-13.52-6.54c-2.12-0.7-5.84-0.89-11.17-0.59c-1.46,0.05-3.27,0.67-5.44,1.85l-1.73-3.17
		l49.73-27.11l1.73,3.17l-2.57,1.4c-2.69,1.47-4.82,3.44-6.39,5.93c-1.57,2.49-1.67,4.99-0.3,7.5c1.12,2.06,4.89,4.82,11.31,8.3
		l44.69,24.24l3.27-48.27c0.5-7.24,0.04-12.18-1.4-14.81c-0.87-1.6-2.07-2.8-3.58-3.61c-1.51-0.8-3.24-1.14-5.17-1.02
		c-1.93,0.13-4.44,1.03-7.53,2.71L8532.11,9003.06z"/>
	<path d="M8749.32,8953.07l2.84-1.68l15.98,34.12l-75.49,69.39l-2.45-2.66l3.67-3.37c4.12-3.79,5.84-7.84,5.14-12.15
		c-0.4-2.46-3.16-6.47-8.27-12.03l-57.83-62.91c-5.59-6.09-9.77-9.28-12.52-9.58c-3.81-0.39-7.56,1.11-11.25,4.5l-3.67,3.37
		l-2.45-2.66l44.14-40.58l2.44,2.66c-5.22,4.71-8.41,8.53-9.57,11.45c-1.16,2.92-1.42,5.5-0.77,7.74c0.64,2.24,3.63,6.26,8.96,12.06
		l56.31,61.25c3.66,3.98,6.55,6.36,8.68,7.14c1.5,0.48,3.07,0.41,4.71-0.22c1.64-0.62,5.6-3.82,11.88-9.59l7.12-6.54
		c7.48-6.87,12.22-12.25,14.22-16.13c2.01-3.88,2.97-8.36,2.88-13.46C8753.95,8968.12,8752.38,8961.41,8749.32,8953.07z"/>
	<path d="M8830.56,8850.9l2.51-2.14l21.56,30.9l-62.56,81.24l-2.86-2.21l3.04-3.95c3.42-4.43,4.42-8.72,3-12.85
		c-0.82-2.35-4.21-5.83-10.2-10.44l-67.7-52.14c-6.55-5.04-11.21-7.48-13.97-7.31c-3.82,0.26-7.26,2.38-10.32,6.35l-3.04,3.95
		l-2.86-2.21l36.58-47.51l2.86,2.2c-4.34,5.53-6.83,9.84-7.48,12.91c-0.65,3.08-0.46,5.67,0.56,7.76c1.02,2.1,4.64,5.55,10.88,10.35
		l65.92,50.77c4.28,3.3,7.54,5.15,9.77,5.56c1.56,0.21,3.09-0.12,4.6-1.02c1.51-0.89,4.87-4.72,10.07-11.47l5.9-7.66
		c6.2-8.05,9.96-14.15,11.27-18.32c1.32-4.16,1.5-8.75,0.55-13.75C8837.68,8864.94,8834.99,8858.59,8830.56,8850.9z"/>
	<path d="M8807.79,8685.34l41.39,17.97l-1.39,2.69c-13.83-2.6-25.09-1.93-33.79,2.01c-8.7,3.94-15.45,10.56-20.26,19.87
		c-4.03,7.81-5.7,15.89-4.99,24.24c0.71,8.35,4.46,16.58,11.28,24.67c6.81,8.1,16.67,15.48,29.56,22.14
		c10.64,5.5,20.75,8.55,30.32,9.17c9.57,0.62,18.21-1.42,25.91-6.13c7.7-4.71,13.83-11.45,18.37-20.25
		c3.94-7.64,5.79-15.22,5.54-22.75c-0.25-7.53-3.43-17.3-9.53-29.32l3.12-1.79c7.42,11.31,11.53,22.15,12.33,32.53
		c0.8,10.38-1.6,20.97-7.18,31.79c-10.07,19.5-25.09,30.86-45.08,34.09c-14.88,2.43-29.61-0.12-44.19-7.65
		c-11.74-6.06-21.17-14.27-28.29-24.61c-7.12-10.34-11-21.52-11.64-33.54c-0.64-12.02,1.86-23.5,7.5-34.43
		c4.39-8.5,10.8-15.81,19.24-21.94c2.53-1.77,4.06-3.18,4.6-4.22c0.81-1.56,0.96-3.2,0.46-4.93c-0.79-2.31-2.4-4.5-4.85-6.57
		L8807.79,8685.34z"/>
</g>
<g>
	<path d="M7580.54,7909.06l43.01,26.96l-2,2.76c-14.94-5.22-27.58-6.37-37.92-3.46c-10.34,2.91-18.97,9.14-25.89,18.69
		c-5.8,8.01-9.01,16.72-9.63,26.12c-0.62,9.41,2.17,19.19,8.38,29.34c6.21,10.15,15.93,20.02,29.16,29.6
		c10.91,7.91,21.64,13.01,32.18,15.31c10.54,2.3,20.49,1.49,29.86-2.45c9.36-3.93,17.31-10.41,23.84-19.42
		c5.67-7.83,9-15.95,9.99-24.37c0.99-8.42-0.9-19.83-5.66-34.22l3.78-1.47c6.35,13.83,9.1,26.58,8.24,38.26
		c-0.86,11.68-5.31,23.06-13.35,34.15c-14.48,19.99-33.11,30.1-55.89,30.33c-16.96,0.19-32.92-5.13-47.86-15.96
		c-12.04-8.72-21.15-19.44-27.32-32.14c-6.17-12.7-8.6-25.79-7.3-39.27c1.31-13.48,6.02-25.82,14.15-37.03
		c6.32-8.72,14.68-15.77,25.1-21.16c3.11-1.54,5.05-2.85,5.83-3.92c1.16-1.6,1.61-3.4,1.34-5.41c-0.48-2.7-1.91-5.41-4.29-8.13
		L7580.54,7909.06z"/>
	<path d="M7689.17,7901.29l52.23-45.42l-27.97-32.17c-5-5.75-8.65-9.22-10.95-10.42c-1.75-0.9-3.95-1.08-6.58-0.54
		c-3.53,0.74-6.62,2.26-9.27,4.57l-3.98,3.46l-2.67-3.07l48.08-41.81l2.67,3.07l-3.98,3.46c-2.65,2.31-4.62,5.13-5.88,8.47
		c-1,2.42-1.04,4.81-0.11,7.16c0.93,2.35,3.79,6.29,8.6,11.81l63.08,72.54c4.95,5.69,8.58,9.14,10.88,10.34
		c1.75,0.9,3.92,1.1,6.5,0.61c3.58-0.79,6.7-2.34,9.36-4.64l3.98-3.46l2.67,3.07l-48.08,41.81l-2.67-3.07l3.98-3.46
		c4.59-3.99,6.75-8.25,6.5-12.79c-0.16-2.97-3.17-7.83-9.03-14.57l-29.77-34.24l-52.23,45.42l29.77,34.24
		c4.95,5.69,8.58,9.14,10.88,10.34c1.75,0.9,3.95,1.08,6.58,0.54c3.53-0.74,6.62-2.26,9.27-4.57l4.06-3.53l2.67,3.07l-48.17,41.89
		l-2.67-3.07l3.98-3.46c4.64-4.04,6.84-8.32,6.58-12.86c-0.21-2.92-3.25-7.75-9.11-14.5l-63.08-72.54c-5-5.75-8.65-9.22-10.95-10.42
		c-1.75-0.9-3.92-1.1-6.5-0.61c-3.59,0.79-6.7,2.34-9.36,4.64l-3.98,3.46l-2.67-3.07l48.17-41.89l2.67,3.07l-4.06,3.53
		c-2.65,2.31-4.62,5.13-5.89,8.47c-0.94,2.38-0.97,4.75-0.07,7.12c0.9,2.37,3.75,6.32,8.56,11.85L7689.17,7901.29z"/>
	<path d="M7957.62,7819.32l-35.17,18.57l-77.12-38.04c-3.23,1.88-5.89,3.36-7.96,4.45c-0.84,0.44-1.76,0.91-2.75,1.39
		c-0.99,0.48-2.02,0.96-3.09,1.44l20.21,38.28c4.38,8.29,8,12.96,10.88,14.01c3.96,1.55,8.41,1.03,13.33-1.57l5.15-2.72l1.9,3.59
		l-56.44,29.81l-1.9-3.59l4.95-2.62c5.57-2.94,8.6-6.86,9.08-11.75c0.3-2.73-1.53-7.84-5.5-15.36l-44.94-85.1
		c-4.38-8.29-8-12.96-10.88-14.01c-4.03-1.51-8.54-0.96-13.53,1.68l-4.95,2.62l-1.9-3.59l47.99-25.34
		c13.99-7.39,24.84-11.81,32.56-13.28c7.72-1.47,15.33-0.68,22.86,2.34c7.52,3.03,13.28,8.33,17.28,15.91
		c4.28,8.1,5.35,16.52,3.22,25.26c-2.13,8.75-8.08,17.27-17.86,25.58l47.16,23.42c10.8,5.4,19.19,8.34,25.16,8.83
		c5.97,0.49,12.76-0.77,20.36-3.79L7957.62,7819.32z M7828.31,7801.01c1.23-0.65,2.31-1.2,3.23-1.64c0.92-0.44,1.68-0.82,2.26-1.13
		c12.56-6.64,20.6-14.36,24.11-23.17c3.51-8.81,3.04-17.42-1.41-25.84c-4.34-8.22-10.45-13.55-18.32-15.98s-16.04-1.4-24.53,3.08
		c-3.76,1.98-8.52,5.29-14.28,9.9L7828.31,7801.01z"/>
	<path d="M8016.29,7799.7l1.28,3.86l-60.58,20.11l-1.28-3.86l5-1.66c5.84-1.94,9.51-5.05,11.03-9.33c0.93-2.78-0.01-8.41-2.83-16.89
		l-30.31-91.34c-2.38-7.16-4.4-11.74-6.06-13.73c-1.27-1.51-3.19-2.53-5.76-3.06c-3.61-0.65-7.09-0.43-10.42,0.68l-5,1.66
		l-1.28-3.86l60.58-20.11l1.28,3.86l-5.11,1.7c-5.77,1.92-9.41,5.01-10.92,9.3c-1,2.8-0.09,8.44,2.72,16.92l30.31,91.34
		c2.38,7.16,4.4,11.74,6.06,13.73c1.27,1.51,3.23,2.52,5.87,3.03c3.54,0.68,6.98,0.46,10.32-0.65L8016.29,7799.7z"/>
	<path d="M8091.97,7633.34l9.02,50.73l-4,0.71c-3.03-9.5-6.73-16.84-11.11-22.02c-4.38-5.17-9.97-8.9-16.77-11.19
		c-6.81-2.29-13.52-2.84-20.16-1.66c-7.5,1.33-13.29,4.73-17.38,10.17c-4.09,5.45-5.62,11.1-4.58,16.94
		c0.79,4.47,3.07,8.27,6.82,11.4c5.43,4.61,17.35,9.93,35.75,15.96c15.01,4.92,25.37,8.9,31.08,11.94
		c5.71,3.04,10.39,6.99,14.04,11.84c3.65,4.86,6,10.2,7.04,16.04c1.97,11.11-0.63,21.45-7.82,31.02
		c-7.19,9.57-17.56,15.56-31.12,17.97c-4.25,0.76-8.31,1.14-12.18,1.16c-2.3,0.04-7.17-0.46-14.6-1.48
		c-7.43-1.02-12.09-1.37-13.96-1.03c-1.8,0.32-3.13,1.11-3.98,2.38c-0.85,1.27-1.23,3.64-1.13,7.12l-4,0.71l-8.94-50.3l4-0.71
		c3.75,10.2,7.67,17.63,11.77,22.29c4.1,4.67,9.72,8.15,16.87,10.45c7.14,2.3,14.61,2.76,22.39,1.38c9.01-1.6,15.71-5.25,20.1-10.94
		c4.38-5.69,6-11.78,4.84-18.27c-0.64-3.61-2.28-7.07-4.92-10.4s-6.33-6.2-11.07-8.63c-3.2-1.66-11.69-4.9-25.49-9.7
		c-13.8-4.8-23.72-8.82-29.76-12.06c-6.04-3.24-10.88-7.14-14.52-11.7c-3.64-4.56-5.99-9.87-7.07-15.93
		c-1.87-10.53,0.56-20.31,7.28-29.36c6.72-9.04,16.32-14.67,28.8-16.89c7.79-1.38,16.38-0.94,25.79,1.33
		c4.36,1.09,7.37,1.48,9.03,1.19c1.87-0.33,3.31-1.16,4.3-2.49c0.99-1.33,1.55-3.75,1.66-7.27L8091.97,7633.34z"/>
	<path d="M8266.24,7632.54l1.09,34.96l-4.17-0.07c-0.71-6.16-1.74-10.58-3.09-13.23c-2.2-4.28-5.17-7.46-8.91-9.54
		c-3.74-2.07-8.68-3.16-14.84-3.26l-20.98-0.33l-1.81,113.8c-0.15,9.15,0.75,14.88,2.69,17.18c2.73,3.12,6.99,4.73,12.78,4.82
		l5.16,0.08l-0.07,4.06l-63.16-1.01l0.06-4.06l5.27,0.08c6.3,0.1,10.8-1.73,13.49-5.5c1.65-2.32,2.54-7.65,2.67-16l1.81-113.8
		l-17.91-0.29c-6.96-0.11-11.91,0.32-14.85,1.3c-3.83,1.33-7.13,3.95-9.9,7.86c-2.77,3.91-4.47,9.23-5.09,15.96l-4.17-0.07
		l2.31-34.9L8266.24,7632.54z"/>
	<path d="M8263.17,7724.68l56.23,8.04l-2.35,16.42l-56.23-8.04L8263.17,7724.68z"/>
	<path d="M8450.43,7787.09l3.24,1.8l-24.06,34.9l-110.27-33.89l1.19-3.89l5.36,1.65c6.02,1.85,10.93,1.21,14.72-1.91
		c2.16-1.79,4.49-6.74,6.98-14.87l28.24-91.89c2.73-8.89,3.46-14.76,2.19-17.6c-1.79-3.92-5.37-6.71-10.76-8.36l-5.36-1.65
		l1.19-3.89l64.48,19.82l-1.19,3.89c-7.54-2.39-13.06-3.32-16.56-2.79c-3.5,0.53-6.15,1.75-7.96,3.65
		c-1.81,1.9-4.01,7.08-6.62,15.55l-27.5,89.47c-1.79,5.81-2.45,9.97-2,12.49c0.39,1.73,1.35,3.21,2.89,4.45
		c1.53,1.24,6.89,3.27,16.06,6.08l10.4,3.2c10.92,3.36,18.84,4.91,23.74,4.65c4.91-0.25,9.81-1.87,14.71-4.85
		C8438.45,7800.13,8444.08,7794.79,8450.43,7787.09z"/>
	<path d="M8504.53,7855.93l-1.78,3.65l-57.38-27.96l1.78-3.65l4.74,2.31c5.53,2.7,10.33,3.04,14.41,1.03
		c2.61-1.34,5.87-6.02,9.78-14.05l42.16-86.51c3.3-6.78,5.06-11.47,5.26-14.06c0.14-1.97-0.52-4.04-1.98-6.22
		c-2.13-2.99-4.77-5.26-7.93-6.8l-4.74-2.31l1.78-3.65l57.38,27.96l-1.78,3.65l-4.84-2.36c-5.47-2.66-10.24-2.99-14.31-0.98
		c-2.67,1.31-5.97,5.97-9.88,14.01l-42.16,86.51c-3.3,6.78-5.06,11.47-5.26,14.06c-0.14,1.97,0.55,4.05,2.08,6.27
		c2.06,2.96,4.67,5.21,7.83,6.75L8504.53,7855.93z"/>
	<path d="M8607.23,7828.05l12.51,76.44c2.02,12.58,4.66,22.06,7.91,28.43c3.25,6.38,7.33,11.61,12.24,15.7l-2.38,3.29l-57.42-41.53
		l2.38-3.29c3.44,2.49,6.34,3.7,8.69,3.64c2.35-0.06,4.04-0.81,5.07-2.23s1.67-2.9,1.92-4.44c0.25-1.54-0.08-4.98-0.99-10.34
		l-11.85-71.35l-28.14,38.9c-4.42,6.11-6.96,10.43-7.6,12.94c-0.48,1.91-0.16,4.09,0.97,6.53c1.52,3.27,3.71,5.93,6.55,8l4.09,2.96
		l-2.38,3.29l-51.45-37.22l2.38-3.29l4.27,3.09c4.99,3.61,9.66,4.77,14.02,3.49c2.8-0.87,6.82-4.92,12.05-12.16l56.4-77.98
		c4.42-6.11,6.98-10.46,7.66-13.03c0.44-1.85,0.12-3.98-0.95-6.38c-1.58-3.31-3.79-6-6.64-8.06l-4.27-3.09l2.38-3.29l51.45,37.22
		l-2.38,3.29l-4.09-2.96c-2.79-2.02-5.98-3.29-9.58-3.81c-2.53-0.38-4.83,0.12-6.92,1.5c-2.08,1.38-5.28,5.04-9.57,10.98
		l-26.72,36.94c2-0.27,8.79-1.1,20.37-2.48c29.3-3.39,47.74-6.46,55.33-9.2c3.32-1.21,5.62-2.71,6.91-4.49
		c0.99-1.36,1.23-3.02,0.74-4.96c-0.5-1.94-2.23-3.98-5.19-6.13l-2.76-2l2.38-3.29l44.33,32.07l-2.38,3.29
		c-2.65-1.83-5.29-3.19-7.89-4.08c-2.61-0.89-6.13-1.52-10.57-1.88c-4.44-0.36-10.42-0.1-17.93,0.79
		c-2.17,0.24-12.59,1.97-31.27,5.18L8607.23,7828.05z"/>
	<path d="M8766.03,7888.42l-44.04,39.09l21.73,24.49c5.64,6.35,10.36,9.75,14.18,10.18c5.05,0.61,10.89-1.74,17.54-7.05l2.7,3.04
		l-38.78,34.42l-2.7-3.04c4.74-5.58,7.54-9.43,8.39-11.56c1.04-2.69,1.11-5.64,0.22-8.86c-0.9-3.22-3.41-7.16-7.54-11.81
		l-21.73-24.49l-36.73,32.6c-4.93,4.38-7.74,7.26-8.42,8.64c-0.68,1.39-0.85,2.91-0.5,4.56c0.34,1.65,1.87,4.01,4.6,7.08l16.77,18.9
		c5.59,6.3,10.09,10.49,13.49,12.56c3.4,2.07,7.56,3.28,12.47,3.62c6.41,0.38,14.62-0.68,24.63-3.2l2.92,3.29l-36.47,15.18
		l-76.21-85.87l3.04-2.7l3.5,3.94c2.33,2.63,5.17,4.56,8.53,5.8c2.43,0.98,4.8,1,7.12,0.07c2.31-0.93,6.18-3.79,11.6-8.61
		l72.39-64.25c7.07-6.27,10.79-10.85,11.17-13.73c0.44-3.92-1.38-8.17-5.46-12.78l-3.5-3.94l3.04-2.7l76.2,85.87l-23.31,22.89
		l-2.84-3.2c4.84-6.35,7.74-11.2,8.69-14.54c0.95-3.34,0.79-6.89-0.49-10.65c-1.12-2.92-4.14-7.15-9.05-12.68L8766.03,7888.42z"/>
</g>
<g>
	<g>
		<path d="M8276.04,8160.18c-10.18,0-29.33-17.47-42.91-20.12c-1.29-0.25-2.65-0.46-3.97-0.69l12.23-270.35
			c0,0-45.89-19.16-103.79,0c0,34.35,15.13,188.5,17.11,270.87c-1.88,0.37-3.72,0.66-5.63,1.1c-5.77,1.31-11.67,22.87-17.68,24.8
			c-39.03,12.52-178.13,31.17-226.96-21.82c-14.17,3.32-13.92,147.39-5.27,154.69c12.67-6.6,117.71-58.99,216.24-25.85
			c22.11,7.44,30.15,26.39,37.15,25.24l-14.96,662.89c0,28.74,50.67,36.53,50.67,36.53s53.12-7.29,53.12-36.53
			c0-70.18-12.75-569.44-13.2-662.35c0.13,0.02,0.28,0.04,0.41,0.06c5.57,1.04,21.22-30.33,27.74-37.73
			c15.16-17.21,41.45-38.03,82.02-39.62c65.81-2.57,213.51,6.83,213.51,6.83l4.42-3.59
			C8496.03,8183.35,8371.07,8159.2,8276.04,8160.18z"/>
		<path class="st0" d="M7911.65,8274.47c-6.94-21.58-3.94-42.11-3.94-42.11h244.94c0,0,0,33.53,0,41.31
			c0,5.74,5.24,14.3,13.04,16.95c-7.35,0-13.23,0.45-15.41-2.66c-2.15-3.07-11.7-20.54-32.93-26.42
			C8096.11,8255.65,7977.24,8236.97,7911.65,8274.47z"/>
		<path class="st0" d="M8224.73,8144.96c9.75,0,16.02,9.26,18.86,12.67c9.17,10.99,11.21,19.15,23,18.69
			c10.25-0.4,179.75-7.09,278.78,44.99c-107.77-35.4-189.8-28.7-308.44-28.7c0-4.4-0.38-17.07-0.48-27.44
			C8236.35,8154.6,8231.81,8147.18,8224.73,8144.96z"/>
		<path class="st0" d="M8189.5,7870.2c13.63,0,31.7,2.46,38.26,8.62c6.57,6.16-4.93,253.51-4.93,253.51s-3.41-2.65-9.22-3.21
			C8212.69,8077.09,8216.39,7877.73,8189.5,7870.2z"/>
		<path class="st0" d="M8161.01,8304.5c-0.77,18.62-2.06,62.67-3.6,112.01c-5.05,161.7-12.71,513.82-12.73,527.21
			c-0.06,30.54,25.06,38.18,40.33,43.63c-17.56-65.42-20.61-369.27-14.38-679.11C8170.62,8308.25,8163.58,8308.1,8161.01,8304.5z"/>
		<path d="M7890.69,8144.96c-5.94,48.96-8.91,97.37,0,153.72c0,0-24,0-30.28,0c-12.11,0-12.11-153.72,0-153.72
			C7867.36,8144.96,7890.69,8144.96,7890.69,8144.96z"/>
	</g>
	<path class="st0" d="M7878.36,8232.36h-20.01c0.54,22.82,0.6,44.55,3.82,52.61h20.62
		C7875.84,8261.49,7878.36,8232.36,7878.36,8232.36z"/>
</g>
</svg>
