<?xml version="1.0" encoding="utf-8"?>
<!-- Generator: Adobe Illustrator 23.0.1, SVG Export Plug-In . SVG Version: 6.00 Build 0)  -->
<svg version="1.1" id="Layer_1" xmlns="http://www.w3.org/2000/svg" xmlns:xlink="http://www.w3.org/1999/xlink" x="0px" y="0px"
	 viewBox="0 0 16382.95 16382.95" style="enable-background:new 0 0 16382.95 16382.95;" xml:space="preserve">
<style type="text/css">
	.st0{fill:#FFFFFF;}
	.st1{fill:#808080;}
	.st2{fill:#BFBFBF;}
	.st3{fill:#404040;}
</style>
<circle class="st0" cx="8188.99" cy="8428.98" r="886.54"/>
<path d="M8103.97,7589.73c-331.94,34.71-598.52,257.99-704.47,552.29l212.93,72.22c86.51-235.95,313.12-404.31,579.05-404.31
	c260.53,0,483.31,161.6,573.6,390.03l210.81-78.2C8842.03,7776.63,8489.86,7549.38,8103.97,7589.73z"/>
<path d="M8188.99,9315.4c-119.66,0-235.75-23.44-345.04-69.66c-105.55-44.65-200.35-108.56-281.75-189.96
	c-81.4-81.4-145.31-176.2-189.96-281.75c-46.23-109.29-69.66-225.38-69.66-345.04s23.44-235.75,69.66-345.04
	c44.65-105.55,108.56-200.35,189.96-281.75c81.4-81.4,176.2-145.31,281.75-189.96c109.29-46.23,225.38-69.66,345.04-69.66
	s235.75,23.44,345.03,69.66c105.56,44.65,200.35,108.56,281.75,189.96c81.4,81.4,145.31,176.2,189.96,281.75
	c46.23,109.29,69.67,225.38,69.67,345.04s-23.44,235.75-69.67,345.04c-44.64,105.55-108.56,200.35-189.96,281.75
	c-81.4,81.4-176.2,145.31-281.75,189.96C8424.74,9291.96,8308.65,9315.4,8188.99,9315.4z M8188.99,7567.22
	c-475.18,0-861.76,386.58-861.76,861.76c0,475.18,386.59,861.76,861.76,861.76c475.18,0,861.76-386.58,861.76-861.76
	C9050.75,7953.81,8664.17,7567.22,8188.99,7567.22z"/>
<path d="M8191.48,9043.05c-273.66,0-505.68-178.29-586.23-425.06l-213.94,68.93c119.95,369.79,485.51,618.39,887.68,576.33
	c345.92-36.18,620.84-277.13,716.98-589.84l-215-65.71C8703.56,8859.79,8468.93,9043.05,8191.48,9043.05z"/>
<g>
	<path class="st0" d="M7649.95,8816.5l-37,25.82l-1.56-2.59c9.46-10.41,14.8-20.35,16.01-29.82c1.21-9.47-0.89-18.7-6.3-27.67
		c-4.54-7.53-10.55-13.18-18.03-16.96c-7.48-3.78-16.45-4.89-26.92-3.33c-10.46,1.55-21.92,6.08-34.35,13.57
		c-10.26,6.18-18.17,13.18-23.71,21.01c-5.55,7.83-8.34,16.25-8.37,25.28c-0.04,9.03,2.5,17.78,7.61,26.26
		c4.44,7.36,9.92,12.91,16.47,16.64c6.54,3.73,16.53,6.15,29.97,7.26l-0.11,3.6c-13.52,0.39-24.91-1.79-34.16-6.56
		c-9.25-4.76-17.02-12.36-23.3-22.79c-11.32-18.79-13.12-37.55-5.39-56.26c5.74-13.94,15.63-25.15,29.68-33.62
		c11.32-6.82,23.25-10.55,35.79-11.19c12.54-0.64,24.09,1.92,34.67,7.68c10.57,5.75,19.03,13.9,25.38,24.44
		c4.94,8.2,7.8,17.49,8.59,27.89c0.18,3.08,0.58,5.12,1.18,6.13c0.91,1.51,2.23,2.5,3.96,2.97c2.38,0.54,5.09,0.31,8.14-0.68
		L7649.95,8816.5z"/>
	<path class="st0" d="M7644.47,8949.39l-34.41-38l-21.52,7.37c-5.3,1.81-8.89,3.57-10.77,5.27c-1.5,1.36-2.17,3.26-2.01,5.71
		c0.15,2.45,2.2,6.19,6.15,11.23l-2.68,2.43l-27.99-30.91l2.68-2.43c4.44,3.45,7.78,5.25,10.03,5.41c4.54,0.36,11.72-1.17,21.52-4.6
		l112.05-38.62l2.29,2.53l-50.72,108.11c-4.07,8.7-6.07,15.05-5.99,19.06c0.08,4.01,1.81,8.13,5.19,12.36l-2.68,2.42l-35.07-38.73
		l2.68-2.43c3.73,3.74,6.77,5.79,9.13,6.16c2.36,0.37,4.33-0.17,5.92-1.61c2.12-1.92,4.6-5.93,7.44-12.01L7644.47,8949.39z
		 M7647.99,8942.51l24.59-52.57l-55.14,18.84L7647.99,8942.51z"/>
	<path class="st0" d="M7768.47,9110.07l-28.36-21.1l1-76.43c-2.74-1.88-4.95-3.44-6.62-4.68c-0.68-0.5-1.4-1.06-2.17-1.67
		c-0.76-0.61-1.55-1.25-2.34-1.92l-22.97,30.87c-4.98,6.69-7.33,11.38-7.08,14.09c0.27,3.78,2.4,7.14,6.37,10.09l4.15,3.09
		l-2.16,2.9l-45.52-33.87l2.16-2.9l4,2.97c4.49,3.34,8.79,4.27,12.9,2.78c2.3-0.8,5.71-4.23,10.22-10.29l51.07-68.63
		c4.97-6.68,7.33-11.38,7.08-14.09c-0.33-3.81-2.5-7.22-6.52-10.21l-4-2.97l2.16-2.9l38.7,28.8c11.28,8.4,18.99,15.41,23.12,21.04
		c4.13,5.63,6.42,12.04,6.87,19.23c0.45,7.19-1.6,13.84-6.15,19.96c-4.86,6.53-11.2,10.61-19.04,12.25
		c-7.83,1.64-16.95,0.13-27.36-4.54l-0.74,46.8c-0.19,10.73,0.66,18.59,2.55,23.56c1.89,4.98,5.51,9.94,10.84,14.88L7768.47,9110.07
		z M7733.65,8999.32c0.99,0.74,1.84,1.39,2.56,1.96c0.71,0.57,1.3,1.03,1.77,1.38c10.13,7.54,19.4,11.03,27.81,10.47
		c8.41-0.56,15.14-4.23,20.19-11.02c4.94-6.63,6.87-13.57,5.81-20.81c-1.06-7.24-5.01-13.41-11.86-18.5
		c-3.03-2.25-7.5-4.81-13.41-7.66L7733.65,8999.32z"/>
	<path class="st0" d="M7844.7,9079.14l-17.42,34.42c-3.77,7.44-5.29,12.46-4.57,15.09c0.91,3.67,3.61,6.64,8.08,8.91l4.53,2.29
		l-1.63,3.22l-50.62-25.63l1.63-3.22l4.44,2.25c5,2.53,9.39,2.71,13.19,0.55c2.07-1.21,4.81-5.19,8.23-11.93l38.64-76.33
		c3.76-7.43,5.32-12.45,4.66-15.04c-0.97-3.7-3.69-6.69-8.17-8.95l-4.44-2.25l1.63-3.22l43.3,21.92
		c10.57,5.35,18.35,10.66,23.35,15.93c5,5.27,8.28,11.54,9.84,18.83c1.56,7.29,0.55,14.47-3.03,21.56
		c-4.88,9.64-12.03,15.87-21.45,18.7c-9.42,2.82-19.94,1.29-31.55-4.59c-2.85-1.44-5.82-3.2-8.93-5.29
		C7851.29,9084.27,7848.06,9081.87,7844.7,9079.14z M7847.21,9074.18c2.78,2.14,5.29,3.96,7.53,5.45c2.23,1.5,4.19,2.67,5.88,3.52
		c6.04,3.06,12.44,3.36,19.19,0.9c6.75-2.45,12.01-7.4,15.77-14.83c2.59-5.11,3.94-10.39,4.07-15.83c0.13-5.44-1.17-10.23-3.9-14.34
		c-2.73-4.12-6.54-7.41-11.42-9.88c-2.96-1.5-7.05-2.87-12.25-4.12L7847.21,9074.18z"/>
	<path class="st0" d="M7969.77,9065.2l-15.88,49.88l27.73,8.83c7.2,2.29,12.35,2.74,15.46,1.34c4.13-1.83,7.53-6.28,10.2-13.36
		l3.44,1.1l-13.99,43.92l-3.44-1.1c1.09-6.42,1.47-10.63,1.16-12.65c-0.42-2.53-1.71-4.81-3.86-6.87c-2.15-2.05-5.86-3.92-11.13-5.6
		l-27.73-8.83l-13.24,41.59c-1.78,5.58-2.61,9.06-2.5,10.43c0.11,1.37,0.67,2.61,1.69,3.71c1.01,1.11,3.26,2.22,6.73,3.32l21.4,6.82
		c7.13,2.27,12.47,3.43,16.01,3.46c3.54,0.04,7.26-0.93,11.17-2.9c5.07-2.62,10.86-7.17,17.36-13.64l3.72,1.19l-20.96,28.17
		l-97.24-30.96l1.1-3.44l4.47,1.42c2.98,0.95,6.03,1.14,9.15,0.56c2.3-0.36,4.12-1.42,5.47-3.18c1.34-1.76,3-5.71,4.95-11.85
		l26.11-81.98c2.55-8,3.31-13.19,2.29-15.57c-1.44-3.19-4.77-5.62-9.98-7.28l-4.47-1.42l1.1-3.44l97.24,30.97l-7.4,28.08l-3.63-1.16
		c0.81-7.05,0.82-12.07,0.03-15.06c-0.79-2.98-2.53-5.62-5.22-7.91c-2.19-1.72-6.41-3.58-12.67-5.57L7969.77,9065.2z"/>
	<path class="st0" d="M8037.36,9081.6l35.67,4.38l68.26,108.44l9.3-75.8c0.99-8.08,0.7-13.23-0.86-15.45
		c-2.06-3.01-5.67-4.83-10.84-5.46l-4.56-0.56l0.44-3.59l45.75,5.62l-0.44,3.59l-4.65-0.57c-5.56-0.68-9.71,0.52-12.44,3.59
		c-1.68,1.89-2.96,6.52-3.87,13.89l-13.6,110.79l-3.49-0.43l-73.67-116.48l-9.93,80.94c-0.99,8.08-0.74,13.22,0.76,15.44
		c2.12,3.01,5.74,4.84,10.84,5.46l4.65,0.57l-0.44,3.59l-45.75-5.61l0.44-3.59l4.56,0.56c5.62,0.69,9.8-0.5,12.54-3.58
		c1.68-1.89,2.97-6.52,3.87-13.89l11.22-91.4c-3.27-4.93-5.8-8.22-7.59-9.88c-1.8-1.66-4.53-3.34-8.19-5.04
		c-1.8-0.81-4.61-1.45-8.42-1.92L8037.36,9081.6z"/>
	<path class="st0" d="M8290.28,9090.68l3.49,30.89l-3.7,0.24c-1.07-5.41-2.3-9.25-3.69-11.5c-2.26-3.64-5.12-6.24-8.58-7.81
		c-3.46-1.57-7.92-2.17-13.38-1.82l-18.61,1.22l6.6,100.96c0.53,8.12,1.74,13.13,3.62,15.03c2.65,2.57,6.54,3.68,11.67,3.35
		l4.58-0.3l0.24,3.61l-56.03,3.66l-0.23-3.61l4.68-0.31c5.59-0.37,9.44-2.31,11.56-5.84c1.29-2.17,1.7-6.96,1.21-14.37l-6.6-100.96
		l-15.88,1.04c-6.17,0.4-10.53,1.14-13.07,2.22c-3.3,1.46-6.04,4.02-8.21,7.68c-2.18,3.67-3.29,8.5-3.36,14.51l-3.7,0.24
		l-0.47-31.09L8290.28,9090.68z"/>
	<path class="st0" d="M8451.79,9187.92l-34.31,8.53l-58.43-49.28c-3.19,0.93-5.8,1.64-7.82,2.14c-0.82,0.2-1.71,0.41-2.67,0.61
		c-0.96,0.2-1.95,0.4-2.97,0.59l9.28,37.34c2.01,8.09,4.14,12.89,6.4,14.41c3.09,2.18,7.04,2.68,11.84,1.49l5.02-1.25l0.87,3.5
		l-55.06,13.68l-0.87-3.51l4.83-1.2c5.43-1.35,8.88-4.08,10.34-8.21c0.84-2.29,0.35-7.1-1.47-14.43l-20.63-83.02
		c-2.01-8.09-4.14-12.89-6.4-14.41c-3.15-2.17-7.17-2.65-12.03-1.44l-4.83,1.2l-0.87-3.51l46.82-11.63
		c13.65-3.39,23.96-4.9,30.93-4.52c6.97,0.38,13.38,2.68,19.22,6.9c5.84,4.22,9.69,10.02,11.52,17.41
		c1.96,7.9,1.09,15.39-2.61,22.49c-3.71,7.09-10.66,13.18-20.87,18.27l35.7,30.27c8.17,6.96,14.78,11.29,19.83,12.98
		c5.05,1.7,11.18,2.05,18.38,1.07L8451.79,9187.92z M8344.11,9144.54c1.2-0.3,2.25-0.54,3.14-0.73c0.89-0.19,1.62-0.35,2.19-0.5
		c12.26-3.05,20.84-8,25.74-14.85c4.9-6.85,6.34-14.39,4.29-22.6c-1.99-8.02-6.13-13.92-12.4-17.7c-6.27-3.78-13.55-4.63-21.82-2.58
		c-3.67,0.91-8.48,2.74-14.43,5.5L8344.11,9144.54z"/>
	<path class="st0" d="M8487.21,9027.58l42.16-18.87l1.48,3.3l-2.32,1.04c-1.54,0.69-3.5,2.39-5.86,5.08
		c-2.36,2.7-4.18,5.87-5.48,9.51c-1.29,3.65-2.43,9.15-3.42,16.51l-8.6,58.95l13.57,30.3c3.33,7.43,6.23,11.69,8.72,12.79
		c3.37,1.48,7.5,1.14,12.37-1.04l3.92-1.76l1.48,3.3l-51.34,22.98l-1.48-3.3l4.28-1.92c5.11-2.29,8.04-5.46,8.8-9.5
		c0.46-2.49-0.83-7.12-3.86-13.89l-12.81-28.61l-55.82-35.79c-6.58-4.19-10.9-6.71-12.96-7.57c-2.06-0.86-5.76-1.34-11.09-1.46
		c-1.45-0.06-3.31,0.41-5.57,1.42l-1.48-3.3l51.7-23.14l1.48,3.3l-2.67,1.2c-2.79,1.25-5.07,3.06-6.83,5.41
		c-1.76,2.36-2.06,4.84-0.89,7.46c0.96,2.14,4.5,5.19,10.62,9.15l42.66,27.66l7.03-47.87c1.07-7.18,0.99-12.14-0.24-14.87
		c-0.75-1.66-1.84-2.96-3.29-3.88c-1.45-0.92-3.14-1.39-5.08-1.42c-1.94-0.02-4.51,0.68-7.72,2.12L8487.21,9027.58z"/>
	<path class="st0" d="M8707.66,8994.72l2.96-1.45l13.27,35.27l-80.68,63.29l-2.23-2.84l3.92-3.07c4.4-3.46,6.43-7.36,6.08-11.72
		c-0.21-2.48-2.65-6.7-7.31-12.64l-52.74-67.23c-5.1-6.5-9.01-10.01-11.73-10.53c-3.77-0.69-7.62,0.52-11.57,3.61l-3.92,3.07
		l-2.23-2.84l47.18-37.01l2.23,2.84c-5.57,4.29-9.05,7.84-10.44,10.67c-1.38,2.82-1.84,5.38-1.38,7.66s3.13,6.52,7.99,12.72
		l51.35,65.46c3.33,4.25,6.03,6.85,8.1,7.79c1.46,0.59,3.03,0.65,4.71,0.15c1.68-0.49,5.88-3.37,12.59-8.63l7.61-5.97
		c7.99-6.27,13.14-11.26,15.44-14.97s3.61-8.11,3.92-13.19C8711.11,9010.08,8710.06,9003.26,8707.66,8994.72z"/>
	<path class="st0" d="M8796.63,8899.2l2.67-1.93l19.08,32.49l-68.72,76.11l-2.68-2.42l3.34-3.7c3.75-4.15,5.08-8.35,3.99-12.58
		c-0.63-2.41-3.75-6.15-9.35-11.21l-63.42-57.26c-6.14-5.54-10.59-8.33-13.36-8.38c-3.83-0.04-7.42,1.81-10.78,5.53l-3.34,3.7
		l-2.68-2.42l40.18-44.5l2.68,2.42c-4.76,5.18-7.58,9.27-8.47,12.29c-0.88,3.02-0.9,5.61-0.05,7.78c0.85,2.17,4.2,5.89,10.04,11.17
		l61.75,55.76c4.01,3.62,7.11,5.72,9.31,6.3c1.54,0.34,3.09,0.12,4.67-0.65c1.57-0.77,5.22-4.32,10.94-10.65l6.48-7.18
		c6.81-7.54,11.03-13.33,12.67-17.38c1.64-4.05,2.18-8.6,1.62-13.67C8802.64,8913.75,8800.45,8907.21,8796.63,8899.2z"/>
	<path class="st0" d="M8786.87,8732.37l39.86,21.14l-1.59,2.57c-13.58-3.67-24.86-3.88-33.84-0.64
		c-8.98,3.24-16.23,9.32-21.75,18.23c-4.63,7.47-6.92,15.4-6.87,23.78c0.05,8.38,3.16,16.88,9.31,25.48
		c6.16,8.6,15.41,16.73,27.75,24.38c10.18,6.31,20.02,10.15,29.51,11.51c9.49,1.37,18.26,0,26.31-4.08
		c8.05-4.09,14.68-10.34,19.89-18.75c4.53-7.3,6.96-14.72,7.3-22.25c0.34-7.53-2.07-17.52-7.21-29.98l3.25-1.55
		c6.52,11.85,9.77,22.98,9.75,33.39c-0.02,10.41-3.23,20.78-9.65,31.13c-11.56,18.65-27.43,28.8-47.61,30.47
		c-15.03,1.26-29.51-2.44-43.46-11.08c-11.23-6.96-19.99-15.88-26.28-26.74c-6.29-10.86-9.28-22.31-8.99-34.35
		c0.3-12.03,3.69-23.28,10.17-33.74c5.04-8.13,12.01-14.92,20.9-20.37c2.66-1.57,4.3-2.85,4.91-3.85c0.93-1.5,1.21-3.12,0.84-4.88
		c-0.6-2.36-2.04-4.67-4.32-6.93L8786.87,8732.37z"/>
</g>
<g>
	<path class="st0" d="M7572.86,7903.66l43.57,27.25l-2.02,2.79c-15.13-5.27-27.93-6.42-38.4-3.47c-10.46,2.96-19.2,9.27-26.19,18.95
		c-5.87,8.11-9.11,16.93-9.73,26.46c-0.62,9.53,2.22,19.43,8.52,29.7c6.3,10.27,16.15,20.26,29.55,29.95
		c11.06,8,21.92,13.15,32.6,15.47c10.68,2.32,20.75,1.49,30.23-2.51c9.48-3.99,17.52-10.55,24.12-19.69
		c5.74-7.93,9.1-16.16,10.09-24.68c0.99-8.52-0.93-20.07-5.77-34.64l3.82-1.49c6.44,14,9.23,26.9,8.37,38.73
		c-0.86,11.82-5.36,23.35-13.48,34.59c-14.64,20.25-33.5,30.5-56.56,30.76c-17.17,0.21-33.33-5.16-48.48-16.11
		c-12.2-8.82-21.43-19.66-27.69-32.52c-6.26-12.85-8.74-26.11-7.42-39.75c1.31-13.65,6.08-26.15,14.29-37.51
		c6.39-8.83,14.85-15.98,25.39-21.45c3.15-1.57,5.11-2.89,5.89-3.97c1.17-1.62,1.62-3.45,1.35-5.47c-0.49-2.74-1.94-5.48-4.35-8.22
		L7572.86,7903.66z"/>
	<path class="st0" d="M7682.84,7895.7l52.84-46.03l-28.35-32.54c-5.07-5.81-8.77-9.33-11.1-10.54c-1.78-0.91-4-1.09-6.66-0.54
		c-3.57,0.75-6.7,2.3-9.39,4.64l-4.03,3.51l-2.7-3.1l48.64-42.38l2.7,3.1l-4.03,3.51c-2.68,2.34-4.67,5.2-5.95,8.58
		c-1.01,2.45-1.05,4.87-0.1,7.25c0.94,2.38,3.85,6.36,8.72,11.95l63.94,73.38c5.02,5.76,8.69,9.24,11.03,10.46
		c1.78,0.91,3.97,1.11,6.58,0.61c3.63-0.8,6.79-2.37,9.47-4.71l4.03-3.51l2.7,3.1l-48.64,42.38l-2.7-3.1l4.03-3.51
		c4.64-4.04,6.83-8.36,6.57-12.95c-0.16-3.01-3.21-7.92-9.16-14.74l-30.18-34.64l-52.84,46.03l30.18,34.64
		c5.02,5.76,8.69,9.24,11.03,10.46c1.78,0.91,4,1.09,6.66,0.54c3.57-0.75,6.7-2.3,9.39-4.64l4.11-3.58l2.7,3.1l-48.73,42.45
		l-2.7-3.1l4.03-3.51c4.7-4.09,6.91-8.43,6.65-13.02c-0.22-2.96-3.3-7.85-9.24-14.67l-63.94-73.38c-5.07-5.81-8.77-9.33-11.1-10.54
		c-1.78-0.91-3.97-1.11-6.58-0.61c-3.63,0.8-6.79,2.37-9.47,4.71l-4.03,3.51l-2.7-3.1l48.73-42.45l2.7,3.1l-4.11,3.58
		c-2.68,2.34-4.67,5.2-5.95,8.58c-0.95,2.41-0.97,4.81-0.06,7.21c0.91,2.4,3.8,6.4,8.68,11.99L7682.84,7895.7z"/>
	<path class="st0" d="M7954.57,7812.45l-35.59,18.84l-78.12-38.45c-3.27,1.9-5.96,3.41-8.06,4.52c-0.85,0.45-1.78,0.92-2.78,1.41
		c-1,0.49-2.04,0.98-3.13,1.47l20.5,38.73c4.44,8.39,8.12,13.12,11.03,14.17c4.02,1.57,8.52,1.03,13.5-1.61l5.21-2.76l1.93,3.64
		l-57.12,30.23l-1.93-3.64l5.01-2.65c5.64-2.98,8.7-6.95,9.18-11.9c0.3-2.76-1.56-7.94-5.58-15.54l-45.58-86.12
		c-4.44-8.39-8.12-13.11-11.03-14.17c-4.08-1.53-8.65-0.96-13.69,1.71l-5.01,2.65l-1.93-3.64l48.57-25.71
		c14.16-7.49,25.14-11.98,32.95-13.48c7.81-1.49,15.52-0.71,23.14,2.35c7.62,3.06,13.46,8.42,17.51,16.09
		c4.34,8.19,5.43,16.72,3.28,25.57c-2.15,8.86-8.17,17.5-18.06,25.92l47.77,23.67c10.94,5.45,19.43,8.42,25.48,8.91
		c6.05,0.49,12.92-0.8,20.61-3.86L7954.57,7812.45z M7823.62,7794.03c1.24-0.66,2.33-1.21,3.27-1.67c0.94-0.45,1.7-0.83,2.29-1.15
		c12.71-6.73,20.84-14.56,24.38-23.48c3.54-8.92,3.06-17.64-1.45-26.17c-4.41-8.32-10.59-13.71-18.56-16.17
		c-7.97-2.45-16.25-1.41-24.83,3.14c-3.8,2.01-8.62,5.36-14.45,10.04L7823.62,7794.03z"/>
	<path class="st0" d="M8013.95,7792.53l1.3,3.9l-61.32,20.41l-1.3-3.91l5.07-1.69c5.91-1.97,9.63-5.12,11.15-9.46
		c0.94-2.81-0.02-8.51-2.88-17.1l-30.78-92.45c-2.41-7.25-4.46-11.88-6.15-13.9c-1.29-1.52-3.24-2.56-5.84-3.1
		c-3.66-0.66-7.18-0.43-10.55,0.7l-5.07,1.69l-1.3-3.9l61.32-20.41l1.3,3.9l-5.17,1.72c-5.84,1.94-9.52,5.09-11.05,9.42
		c-1.01,2.84-0.08,8.55,2.77,17.13l30.78,92.45c2.41,7.25,4.46,11.88,6.15,13.9c1.29,1.53,3.27,2.55,5.94,3.06
		c3.59,0.68,7.07,0.46,10.45-0.66L8013.95,7792.53z"/>
	<path class="st0" d="M8090.42,7624.03l9.18,51.36l-4.05,0.72c-3.07-9.62-6.83-17.05-11.27-22.28c-4.44-5.23-10.1-9-16.99-11.31
		c-6.89-2.31-13.7-2.86-20.41-1.66c-7.59,1.36-13.46,4.8-17.59,10.32c-4.14,5.52-5.67,11.24-4.62,17.15
		c0.81,4.53,3.11,8.37,6.92,11.53c5.5,4.67,17.58,10.04,36.21,16.13c15.2,4.97,25.69,8.99,31.48,12.06
		c5.78,3.07,10.53,7.07,14.23,11.98c3.7,4.91,6.08,10.33,7.14,16.24c2.01,11.24-0.62,21.71-7.89,31.41
		c-7.27,9.7-17.77,15.77-31.49,18.23c-4.31,0.77-8.42,1.16-12.33,1.19c-2.33,0.04-7.26-0.45-14.78-1.48
		c-7.53-1.03-12.24-1.37-14.14-1.03c-1.83,0.33-3.17,1.13-4.03,2.41c-0.86,1.28-1.24,3.69-1.14,7.21l-4.05,0.72l-9.1-50.92
		l4.05-0.72c3.8,10.32,7.78,17.84,11.94,22.56c4.16,4.72,9.85,8.24,17.09,10.56c7.23,2.32,14.79,2.78,22.67,1.37
		c9.13-1.63,15.9-5.33,20.34-11.09c4.43-5.76,6.06-11.93,4.89-18.5c-0.65-3.65-2.32-7.16-4.99-10.52
		c-2.67-3.36-6.41-6.27-11.22-8.73c-3.24-1.68-11.84-4.95-25.82-9.79c-13.97-4.85-24.02-8.91-30.14-12.18
		c-6.12-3.27-11.03-7.22-14.71-11.83c-3.69-4.61-6.08-9.99-7.17-16.12c-1.9-10.66,0.54-20.57,7.34-29.73
		c6.8-9.16,16.51-14.87,29.14-17.13c7.89-1.41,16.59-0.97,26.11,1.32c4.41,1.1,7.46,1.49,9.14,1.19c1.9-0.34,3.35-1.18,4.35-2.53
		c1-1.35,1.56-3.8,1.68-7.36L8090.42,7624.03z"/>
	<path class="st0" d="M8266.86,7623.05l1.14,35.39l-4.23-0.06c-0.72-6.24-1.77-10.71-3.14-13.4c-2.23-4.33-5.25-7.55-9.03-9.65
		s-8.79-3.19-15.02-3.29l-21.24-0.32l-1.73,115.23c-0.14,9.27,0.78,15.07,2.74,17.39c2.77,3.16,7.08,4.78,12.94,4.87l5.23,0.08
		l-0.06,4.12l-63.95-0.96l0.06-4.12l5.34,0.08c6.38,0.1,10.93-1.76,13.66-5.58c1.67-2.35,2.56-7.75,2.69-16.2l1.73-115.23
		l-18.13-0.27c-7.05-0.11-12.06,0.34-15.04,1.33c-3.88,1.35-7.22,4.01-10.02,7.97c-2.8,3.96-4.52,9.35-5.14,16.16l-4.23-0.06
		l2.31-35.34L8266.86,7623.05z"/>
	<path class="st0" d="M8263.84,7716.35l56.94,8.09l-2.36,16.63l-56.94-8.09L8263.84,7716.35z"/>
	<path class="st0" d="M8453.49,7779.36l3.28,1.82l-24.33,35.36l-111.67-34.21l1.21-3.94l5.42,1.66c6.1,1.87,11.07,1.22,14.91-1.95
		c2.18-1.81,4.54-6.83,7.06-15.06l28.5-93.06c2.76-9,3.49-14.95,2.2-17.82c-1.81-3.97-5.45-6.79-10.91-8.46l-5.42-1.66l1.21-3.94
		l65.3,20l-1.2,3.94c-7.64-2.42-13.22-3.35-16.77-2.81c-3.54,0.54-6.23,1.78-8.05,3.7c-1.83,1.92-4.06,7.17-6.69,15.75l-27.76,90.62
		c-1.8,5.89-2.47,10.1-2.01,12.65c0.39,1.75,1.37,3.25,2.93,4.5c1.55,1.25,6.97,3.3,16.26,6.15l10.53,3.23
		c11.06,3.39,19.08,4.95,24.04,4.69c4.97-0.26,9.93-1.9,14.89-4.92C8441.38,7792.58,8447.07,7787.17,8453.49,7779.36z"/>
	<path class="st0" d="M8508.33,7849.02l-1.8,3.7l-58.12-28.26l1.8-3.7l4.8,2.33c5.6,2.72,10.46,3.07,14.59,1.03
		c2.64-1.36,5.93-6.1,9.89-14.24l42.6-87.63c3.34-6.87,5.11-11.62,5.31-14.24c0.14-1.99-0.53-4.09-2.01-6.3
		c-2.16-3.03-4.83-5.32-8.04-6.88l-4.8-2.33l1.8-3.7l58.12,28.26l-1.8,3.7l-4.9-2.38c-5.54-2.69-10.37-3.02-14.49-0.98
		c-2.71,1.32-6.04,6.05-9.99,14.19l-42.6,87.63c-3.34,6.87-5.11,11.62-5.31,14.24c-0.14,1.99,0.56,4.1,2.11,6.34
		c2.09,3,4.73,5.27,7.94,6.83L8508.33,7849.02z"/>
	<path class="st0" d="M8612.29,7820.69l12.73,77.38c2.06,12.73,4.73,22.33,8.03,28.78c3.3,6.45,7.43,11.75,12.4,15.88l-2.41,3.34
		l-58.17-42l2.41-3.34c3.49,2.52,6.42,3.74,8.8,3.68c2.38-0.07,4.09-0.82,5.13-2.26c1.04-1.44,1.69-2.94,1.94-4.5
		c0.25-1.55-0.09-5.05-1.01-10.47l-12.06-72.23l-28.45,39.41c-4.47,6.19-7.03,10.56-7.68,13.11c-0.48,1.94-0.16,4.14,0.99,6.61
		c1.54,3.31,3.76,6,6.64,8.09l4.15,3l-2.41,3.34l-52.13-37.63l2.41-3.34l4.33,3.13c5.05,3.65,9.78,4.82,14.19,3.52
		c2.83-0.88,6.9-4.99,12.19-12.33l57.04-79c4.47-6.19,7.05-10.59,7.75-13.2c0.44-1.88,0.12-4.03-0.96-6.46
		c-1.6-3.35-3.85-6.07-6.73-8.16l-4.33-3.13l2.41-3.34l52.13,37.63l-2.41,3.34l-4.15-2.99c-2.83-2.04-6.06-3.32-9.7-3.85
		c-2.56-0.38-4.89,0.13-7,1.53c-2.11,1.4-5.34,5.11-9.68,11.12l-27.02,37.43c2.03-0.27,8.9-1.12,20.62-2.53
		c29.66-3.46,48.33-6.58,56.01-9.36c3.36-1.23,5.69-2.75,6.99-4.56c1-1.38,1.24-3.06,0.74-5.02c-0.5-1.96-2.26-4.03-5.26-6.2
		l-2.8-2.02l2.41-3.34l44.91,32.42l-2.41,3.34c-2.69-1.85-5.35-3.22-8-4.13c-2.64-0.9-6.21-1.53-10.7-1.9
		c-4.49-0.36-10.55-0.09-18.15,0.82c-2.19,0.25-12.75,2-31.66,5.27L8612.29,7820.69z"/>
	<path class="st0" d="M8773.12,7881.67l-44.56,39.62l22.03,24.77c5.71,6.43,10.5,9.86,14.36,10.3c5.11,0.62,11.03-1.77,17.75-7.15
		l2.73,3.08l-39.24,34.89l-2.73-3.08c4.79-5.65,7.62-9.56,8.49-11.71c1.05-2.72,1.12-5.71,0.21-8.97
		c-0.91-3.26-3.46-7.24-7.65-11.95l-22.03-24.77l-37.16,33.04c-4.99,4.43-7.83,7.35-8.51,8.76c-0.69,1.4-0.86,2.94-0.51,4.62
		c0.35,1.67,1.9,4.06,4.66,7.17l17,19.12c5.67,6.37,10.22,10.61,13.67,12.7c3.45,2.09,7.66,3.31,12.63,3.66
		c6.49,0.38,14.8-0.71,24.93-3.26l2.96,3.33l-36.91,15.4l-77.23-86.87l3.08-2.73l3.55,3.99c2.37,2.66,5.24,4.61,8.64,5.86
		c2.46,0.99,4.86,1.01,7.21,0.07c2.34-0.94,6.25-3.85,11.74-8.73l73.24-65.11c7.15-6.36,10.91-10.99,11.3-13.91
		c0.44-3.96-1.41-8.28-5.54-12.93l-3.55-3.99l3.08-2.73l77.23,86.87l-23.58,23.2l-2.88-3.24c4.9-6.44,7.82-11.35,8.78-14.73
		c0.96-3.38,0.79-6.98-0.51-10.78c-1.14-2.96-4.2-7.23-9.17-12.83L8773.12,7881.67z"/>
</g>
<path class="st1" d="M8807.94,8416.19l224.89,4.38c-0.22-26.98-1.72-54.2-4.59-81.59c-1.31-12.49-2.9-24.89-4.73-37.19
	l-222.59,30.72C8805.1,8359.86,8807.47,8387.79,8807.94,8416.19z"/>
<path class="st1" d="M7574.92,8426.5c0-7.79,0.15-15.54,0.43-23.25l-224.59-11.21c-1.56,39.2-0.39,78.98,3.67,119.12l223.45-23.94
	C7575.93,8467.24,7574.92,8446.98,7574.92,8426.5z"/>
<path class="st2" d="M8808,8431.19c-0.18,23.42-1.66,46.54-4.37,69.27l222.15,35.86c4.33-33.1,6.72-66.72,7.05-100.75L8808,8431.19z
	"/>
<path class="st3" d="M8799.31,8322.64l222.66-30.73c-8.87-55.05-22.96-108.1-41.73-158.69l-211.81,75.42
	C8782.22,8245.12,8792.63,8283.25,8799.31,8322.64z"/>
<path class="st0" d="M8789.07,8578.81l215.2,65.77c7.78-28.96,14.03-58.48,18.68-88.46l-222-35.84
	C8797.92,8540.12,8793.94,8559.65,8789.07,8578.81z"/>
<circle class="st0" cx="8189.5" cy="8428.98" r="592.57"/>
<path d="M8189.5,9029.05c-81,0-159.59-15.87-233.58-47.16c-71.46-30.22-135.63-73.49-190.74-128.6
	c-55.11-55.11-98.37-119.28-128.6-190.74c-31.29-73.98-47.16-152.57-47.16-233.58s15.87-159.59,47.16-233.57
	c30.22-71.46,73.49-135.63,128.6-190.74c55.11-55.11,119.28-98.37,190.74-128.6c73.98-31.29,152.57-47.16,233.58-47.16
	c81,0,159.59,15.87,233.58,47.16c71.46,30.22,135.63,73.49,190.74,128.6s98.37,119.28,128.6,190.74
	c31.29,73.98,47.16,152.57,47.16,233.57s-15.87,159.59-47.16,233.58c-30.22,71.46-73.49,135.63-128.6,190.74
	s-119.28,98.37-190.74,128.6C8349.09,9013.18,8270.51,9029.05,8189.5,9029.05z M8189.5,7843.92
	c-322.61,0-585.07,262.46-585.07,585.06c0,322.61,262.46,585.07,585.07,585.07c322.61,0,585.07-262.46,585.07-585.07
	C8774.57,8106.38,8512.11,7843.92,8189.5,7843.92z"/>
<path class="st2" d="M7584.16,8319.6l-220.83-42.57c-5.9,32.8-9.89,66.18-11.84,100.03l224.61,11.21
	C7577.51,8365,7580.23,8342.09,7584.16,8319.6z"/>
<path class="st0" d="M7602.79,8242.66l-212.94-72.23c-9.09,28.41-16.69,57.43-22.74,86.95l220.82,42.57
	C7591.98,8280.5,7596.95,8261.39,7602.79,8242.66z"/>
<g>
	<g>
		<path d="M8276.04,8160.18c-10.18,0-29.33-17.47-42.91-20.12c-1.29-0.25-2.65-0.46-3.97-0.69l12.23-270.35
			c0,0-45.89-19.16-103.79,0c0,34.35,15.13,188.5,17.11,270.87c-1.88,0.37-3.72,0.66-5.63,1.1c-5.77,1.31-11.67,22.87-17.68,24.8
			c-39.03,12.52-178.13,31.17-226.96-21.82c-14.17,3.32-13.92,147.39-5.27,154.69c12.67-6.6,117.71-58.99,216.24-25.85
			c22.11,7.44,30.15,26.39,37.15,25.24l-14.96,662.89c0,28.74,50.67,36.53,50.67,36.53s53.12-7.29,53.12-36.53
			c0-70.18-12.75-569.44-13.2-662.35c0.13,0.02,0.28,0.04,0.41,0.06c5.57,1.04,21.22-30.33,27.74-37.73
			c15.16-17.21,41.45-38.03,82.02-39.62c65.81-2.57,213.51,6.83,213.51,6.83l4.42-3.59
			C8496.03,8183.35,8371.07,8159.2,8276.04,8160.18z"/>
		<path class="st0" d="M7911.65,8274.47c-6.94-21.58-3.94-42.11-3.94-42.11h244.94c0,0,0,33.53,0,41.31
			c0,5.74,5.24,14.3,13.04,16.95c-7.35,0-13.23,0.45-15.41-2.66c-2.15-3.07-11.7-20.54-32.93-26.42
			C8096.11,8255.65,7977.24,8236.97,7911.65,8274.47z"/>
		<path class="st0" d="M8224.73,8144.96c9.75,0,16.02,9.26,18.86,12.67c9.17,10.99,11.21,19.15,23,18.69
			c10.25-0.4,179.75-7.09,278.78,44.99c-107.77-35.4-189.8-28.7-308.44-28.7c0-4.4-0.38-17.07-0.48-27.44
			C8236.35,8154.6,8231.81,8147.18,8224.73,8144.96z"/>
		<path class="st0" d="M8189.5,7870.2c13.63,0,31.7,2.46,38.26,8.62c6.57,6.16-4.93,253.51-4.93,253.51s-3.41-2.65-9.22-3.21
			C8212.69,8077.09,8216.39,7877.73,8189.5,7870.2z"/>
		<path class="st0" d="M8161.01,8304.5c-0.77,18.62-2.06,62.67-3.6,112.01c-5.05,161.7-12.71,513.82-12.73,527.21
			c-0.06,30.54,25.06,38.18,40.33,43.63c-17.56-65.42-20.61-369.27-14.38-679.11C8170.62,8308.25,8163.58,8308.1,8161.01,8304.5z"/>
		<path d="M7890.69,8144.96c-5.94,48.96-8.91,97.37,0,153.72c0,0-24,0-30.28,0c-12.11,0-12.11-153.72,0-153.72
			C7867.36,8144.96,7890.69,8144.96,7890.69,8144.96z"/>
	</g>
	<path class="st0" d="M7878.36,8232.36h-20.01c0.54,22.82,0.6,44.55,3.82,52.61h20.62
		C7875.84,8261.49,7878.36,8232.36,7878.36,8232.36z"/>
</g>
<path class="st3" d="M7578.92,8497.16l-223.42,23.94c6.09,53.9,17.17,106.05,32.7,156.04l214.16-68.24
	C7591.25,8572.94,7583.31,8535.59,7578.92,8497.16z"/>
</svg>
